SplineFontDB: 3.0
FontName: FreeSerifBoldItalic
FullName: FreeSerif Bold Italic
FamilyName: FreeSerif
Weight: Bold
Copyright: Copyright 2002, 2003, 2005, 2008, 2009, 2010, 2012 GNU Freefont contributors.
Version: 0412.2268
ItalicAngle: -15.3
UnderlinePosition: -100
UnderlineWidth: 50
Ascent: 800
Descent: 200
sfntRevision: 0x019c3a1d
woffMajor: 412
woffMinor: 2268
LayerCount: 2
Layer: 0 1 "Back"  1
Layer: 1 1 "Fore"  0
XUID: [1021 905 1579682281 7404586]
FSType: 0
OS2Version: 3
OS2_WeightWidthSlopeOnly: 0
OS2_UseTypoMetrics: 1
CreationTime: 1203284335
ModificationTime: 1430337110
PfmFamily: 17
TTFWeight: 700
TTFWidth: 5
LineGap: 100
VLineGap: 0
Panose: 2 2 8 3 6 5 5 9 3 4
OS2TypoAscent: 800
OS2TypoAOffset: 0
OS2TypoDescent: -200
OS2TypoDOffset: 0
OS2TypoLinegap: 100
OS2WinAscent: 900
OS2WinAOffset: 0
OS2WinDescent: 300
OS2WinDOffset: 0
HheadAscent: 900
HheadAOffset: 0
HheadDescent: -200
HheadDOffset: 0
OS2SubXSize: 650
OS2SubYSize: 600
OS2SubXOff: 0
OS2SubYOff: 200
OS2SupXSize: 650
OS2SupYSize: 600
OS2SupXOff: 0
OS2SupYOff: 390
OS2StrikeYSize: 49
OS2StrikeYPos: 258
OS2FamilyClass: 261
OS2Vendor: 'GNU '
OS2CodePages: 600101bf.00000000
OS2UnicodeRanges: e5000eff.420061ff.00001020.00000040
Lookup: 2 0 0 "Multiple Substitution lookup 0"  {"Multiple Substitution lookup 0 subtable"  } []
Lookup: 4 0 0 "'ccmp' Glyph Composition/Decomposition in Latin lookup 1"  {"'ccmp' Glyph Composition/Decomposition in Latin lookup 1 subtable"  } ['ccmp' ('latn' <'dflt' > ) ]
Lookup: 4 0 1 "'liga' Standard Ligatures in Latin lookup 2"  {"'liga' Standard Ligatures in Latin lookup 2 subtable"  } ['liga' ('latn' <'dflt' > ) ]
Lookup: 2 0 0 "'ccmp' Glyph Composition/Decomposition in Latin lookup 3"  {"'ccmp' Glyph Composition/Decomposition in Latin lookup 3 subtable"  } ['ccmp' ('latn' <'TRK ' > ) ]
Lookup: 6 0 0 "'ccmp' Glyph Composition/Decomposition in Latin lookup 4"  {"'ccmp' Glyph Composition/Decomposition in Latin lookup 4 subtable"  } ['ccmp' ('latn' <'dflt' > ) ]

StartChar: .notdef
Encoding: 65536 -1 0
Width: 364
Flags: W
LayerCount: 2
Fore
SplineSet
33 0 m 1,0,-1
 33 666 l 1,1,-1
 298 666 l 1,2,-1
 298 0 l 1,3,-1
 33 0 l 1,0,-1
66 33 m 1,4,-1
 265 33 l 1,5,-1
 265 633 l 1,6,-1
 66 633 l 1,7,-1
 66 33 l 1,4,-1
EndSplineSet
EndChar

StartChar: exclam
Encoding: 33 33 4
Width: 389
GlyphClass: 2
Flags: W
LayerCount: 2
Fore
SplineSet
167 212 m 1,0,1
 182 288 182 288 193 362 c 128,-1,2
 204 436 204 436 209 479.5 c 128,-1,3
 214 523 214 523 219.5 563.5 c 128,-1,4
 225 604 225 604 229.5 623.5 c 128,-1,5
 234 643 234 643 243 659 c 128,-1,6
 252 675 252 675 265.5 679.5 c 128,-1,7
 279 684 279 684 301 684 c 0,8,9
 332 684 332 684 351 664 c 128,-1,10
 370 644 370 644 370 611 c 0,11,12
 370 581 370 581 354 549 c 128,-1,13
 338 517 338 517 292 424.5 c 128,-1,14
 246 332 246 332 196 204 c 1,15,-1
 167 212 l 1,0,1
140 133 m 0,16,17
 168 133 168 133 190.5 110 c 128,-1,18
 213 87 213 87 213 58 c 128,-1,19
 213 29 213 29 191.5 8 c 128,-1,20
 170 -13 170 -13 139 -13 c 128,-1,21
 108 -13 108 -13 87.5 7 c 128,-1,22
 67 27 67 27 67 58 c 0,23,24
 67 90 67 90 88 111.5 c 128,-1,25
 109 133 109 133 140 133 c 0,16,17
EndSplineSet
EndChar

StartChar: quotedbl
Encoding: 34 34 5
Width: 555
GlyphClass: 2
Flags: W
LayerCount: 2
Fore
SplineSet
177 398 m 1,0,-1
 136 398 l 1,1,-1
 152 612 l 2,2,3
 154 641 154 641 178 663 c 128,-1,4
 202 685 202 685 230 685 c 0,5,6
 249 685 249 685 262.5 670.5 c 128,-1,7
 276 656 276 656 276 636 c 0,8,9
 276 622 276 622 259 584 c 2,10,-1
 177 398 l 1,0,-1
437 398 m 1,11,-1
 396 398 l 1,12,-1
 412 612 l 2,13,14
 414 641 414 641 438 663 c 128,-1,15
 462 685 462 685 490 685 c 0,16,17
 509 685 509 685 522.5 670.5 c 128,-1,18
 536 656 536 656 536 636 c 0,19,20
 536 622 536 622 519 584 c 2,21,-1
 437 398 l 1,11,-1
EndSplineSet
EndChar

StartChar: numbersign
Encoding: 35 35 6
Width: 500
GlyphClass: 2
Flags: W
LayerCount: 2
Fore
SplineSet
449 283 m 1,0,-1
 429 210 l 1,1,-1
 332 210 l 1,2,-1
 247 0 l 1,3,-1
 169 0 l 1,4,-1
 254 210 l 1,5,-1
 141 210 l 1,6,-1
 56 0 l 1,7,-1
 -22 0 l 1,8,-1
 63 210 l 1,9,-1
 -33 210 l 1,10,-1
 -13 283 l 1,11,-1
 93 283 l 1,12,-1
 147 417 l 1,13,-1
 51 417 l 1,14,-1
 71 490 l 1,15,-1
 176 490 l 1,16,-1
 263 700 l 1,17,-1
 340 700 l 1,18,-1
 254 490 l 1,19,-1
 367 490 l 1,20,-1
 454 700 l 1,21,-1
 531 700 l 1,22,-1
 445 490 l 1,23,-1
 533 490 l 1,24,-1
 513 417 l 1,25,-1
 416 417 l 1,26,-1
 362 283 l 1,27,-1
 449 283 l 1,0,-1
338 417 m 1,28,-1
 225 417 l 1,29,-1
 171 283 l 1,30,-1
 284 283 l 1,31,-1
 338 417 l 1,28,-1
EndSplineSet
EndChar

StartChar: dollar
Encoding: 36 36 7
Width: 500
GlyphClass: 2
Flags: W
LayerCount: 2
Fore
SplineSet
292 410 m 1,0,1
 325 382 325 382 338 370 c 128,-1,2
 351 358 351 358 374 333.5 c 128,-1,3
 397 309 397 309 406.5 292.5 c 128,-1,4
 416 276 416 276 424 251.5 c 128,-1,5
 432 227 432 227 432 201 c 0,6,7
 432 116 432 116 365.5 58 c 128,-1,8
 299 0 299 0 201 0 c 2,9,-1
 178 0 l 1,10,-1
 150 -100 l 1,11,-1
 98 -100 l 1,12,-1
 127 7 l 1,13,14
 80 18 80 18 50 34.5 c 128,-1,15
 20 51 20 51 -20 86 c 1,16,-1
 22 228 l 1,17,-1
 44 222 l 1,18,19
 46 141 46 141 65.5 103.5 c 128,-1,20
 85 66 85 66 137 42 c 1,21,-1
 211 303 l 1,22,23
 131 364 131 364 105 400.5 c 128,-1,24
 79 437 79 437 79 488 c 0,25,26
 79 565 79 565 135.5 617.5 c 128,-1,27
 192 670 192 670 275 670 c 0,28,29
 291 670 291 670 313 668 c 1,30,-1
 331 733 l 1,31,-1
 381 733 l 1,32,-1
 361 661 l 1,33,34
 418 651 418 651 479 612 c 1,35,-1
 497 598 l 1,36,-1
 455 465 l 1,37,-1
 434 470 l 1,38,39
 435 481 435 481 435 500 c 0,40,41
 435 552 435 552 415.5 581 c 128,-1,42
 396 610 396 610 351 625 c 1,43,-1
 292 410 l 1,0,1
248 436 m 1,44,-1
 303 635 l 1,45,46
 298 637 298 637 288 637 c 0,47,48
 238 637 238 637 208 611 c 128,-1,49
 178 585 178 585 178 542 c 0,50,51
 178 512 178 512 193 489 c 128,-1,52
 208 466 208 466 248 436 c 1,44,-1
186 32 m 1,53,54
 227 32 227 32 256 44 c 128,-1,55
 285 56 285 56 298.5 76 c 128,-1,56
 312 96 312 96 317.5 115.5 c 128,-1,57
 323 135 323 135 323 157 c 0,58,59
 323 192 323 192 308.5 216.5 c 128,-1,60
 294 241 294 241 253 274 c 1,61,-1
 186 32 l 1,53,54
EndSplineSet
EndChar

StartChar: percent
Encoding: 37 37 8
Width: 833
GlyphClass: 2
Flags: W
LayerCount: 2
Fore
SplineSet
450 128 m 0,0,1
 450 181 450 181 479.5 238 c 128,-1,2
 509 295 509 295 562.5 335.5 c 128,-1,3
 616 376 616 376 676 376 c 0,4,5
 728 376 728 376 760.5 344 c 128,-1,6
 793 312 793 312 793 260 c 0,7,8
 793 233 793 233 782.5 192.5 c 128,-1,9
 772 152 772 152 750.5 104.5 c 128,-1,10
 729 57 729 57 684.5 23.5 c 128,-1,11
 640 -10 640 -10 583 -10 c 0,12,13
 523 -10 523 -10 486.5 28 c 128,-1,14
 450 66 450 66 450 128 c 0,0,1
759 257 m 0,15,16
 759 287 759 287 743.5 306 c 128,-1,17
 728 325 728 325 706 325 c 0,18,19
 670 325 670 325 636 274 c 128,-1,20
 602 223 602 223 584.5 169 c 128,-1,21
 567 115 567 115 567 89 c 0,22,23
 567 66 567 66 581 51 c 128,-1,24
 595 36 595 36 617 36 c 0,25,26
 653 36 653 36 687 74 c 128,-1,27
 721 112 721 112 740 163.5 c 128,-1,28
 759 215 759 215 759 257 c 0,15,16
263 679 m 0,29,30
 299 679 299 679 340 651 c 128,-1,31
 381 623 381 623 436 623 c 0,32,33
 526 623 526 623 605 692 c 1,34,-1
 644 692 l 1,35,-1
 250 -8 l 1,36,-1
 194 -8 l 1,37,-1
 543 612 l 1,38,39
 478 585 478 585 424 585 c 0,40,41
 414 585 414 585 381 590 c 1,42,43
 380 459 380 459 318 376.5 c 128,-1,44
 256 294 256 294 168 294 c 0,45,46
 112 294 112 294 75.5 332.5 c 128,-1,47
 39 371 39 371 39 431 c 0,48,49
 39 524 39 524 109 601.5 c 128,-1,50
 179 679 179 679 263 679 c 0,29,30
285 631 m 0,51,52
 257 631 257 631 224.5 581 c 128,-1,53
 192 531 192 531 173 474.5 c 128,-1,54
 154 418 154 418 154 390 c 0,55,56
 154 368 154 368 167.5 354 c 128,-1,57
 181 340 181 340 202 340 c 0,58,59
 254 340 254 340 300.5 415.5 c 128,-1,60
 347 491 347 491 347 577 c 0,61,62
 347 595 347 595 342 600.5 c 128,-1,63
 337 606 337 606 324.5 609.5 c 128,-1,64
 312 613 312 613 302 623 c 1,65,66
 292 631 292 631 285 631 c 0,51,52
EndSplineSet
EndChar

StartChar: ampersand
Encoding: 38 38 9
Width: 778
GlyphClass: 2
Flags: W
LayerCount: 2
Fore
SplineSet
5 148 m 0,0,1
 5 172 5 172 11 194.5 c 128,-1,2
 17 217 17 217 29 235.5 c 128,-1,3
 41 254 41 254 53.5 270 c 128,-1,4
 66 286 66 286 86.5 300.5 c 128,-1,5
 107 315 107 315 120.5 324.5 c 128,-1,6
 134 334 134 334 157 345.5 c 128,-1,7
 180 357 180 357 190 361.5 c 128,-1,8
 200 366 200 366 221.5 374.5 c 128,-1,9
 243 383 243 383 245 384 c 1,10,11
 234 446 234 446 234 476 c 0,12,13
 234 568 234 568 285.5 625 c 128,-1,14
 337 682 337 682 419 682 c 0,15,16
 479 682 479 682 518 650 c 128,-1,17
 557 618 557 618 557 568 c 0,18,19
 557 469 557 469 375 396 c 1,20,21
 394 276 394 276 461 169 c 1,22,23
 504 223 504 223 519.5 250 c 128,-1,24
 535 277 535 277 535 298 c 0,25,26
 535 314 535 314 523 322.5 c 128,-1,27
 511 331 511 331 479 336 c 1,28,-1
 479 361 l 1,29,-1
 691 361 l 1,30,-1
 691 336 l 1,31,32
 657 329 657 329 637.5 316 c 128,-1,33
 618 303 618 303 590 269 c 128,-1,34
 562 235 562 235 486 133 c 1,35,36
 541 61 541 61 596 61 c 0,37,38
 633 61 633 61 673 101 c 1,39,-1
 699 80 l 1,40,41
 653 25 653 25 615.5 3.5 c 128,-1,42
 578 -18 578 -18 529 -18 c 0,43,44
 453 -18 453 -18 390 44 c 1,45,46
 298 -19 298 -19 198 -19 c 0,47,48
 112 -19 112 -19 58.5 27.5 c 128,-1,49
 5 74 5 74 5 148 c 0,0,1
253 343 m 1,50,51
 190 312 190 312 164 277.5 c 128,-1,52
 138 243 138 243 138 190 c 0,53,54
 138 131 138 131 174.5 91.5 c 128,-1,55
 211 52 211 52 265 52 c 0,56,57
 306 52 306 52 362 80 c 1,58,59
 320 145 320 145 296 202.5 c 128,-1,60
 272 260 272 260 253 343 c 1,50,51
366 434 m 1,61,62
 422 468 422 468 445 496 c 0,63,64
 477 535 477 535 477 582 c 0,65,66
 477 614 477 614 463.5 631.5 c 128,-1,67
 450 649 450 649 425 649 c 0,68,69
 355 649 355 649 355 530 c 0,70,71
 355 500 355 500 366 434 c 1,61,62
EndSplineSet
EndChar

StartChar: quotesingle
Encoding: 39 39 10
Width: 278
GlyphClass: 2
Flags: W
LayerCount: 2
Fore
SplineSet
169 398 m 1,0,-1
 128 398 l 1,1,-1
 144 612 l 2,2,3
 146 641 146 641 170 663 c 128,-1,4
 194 685 194 685 222 685 c 0,5,6
 241 685 241 685 254.5 670.5 c 128,-1,7
 268 656 268 656 268 636 c 0,8,9
 268 622 268 622 251 584 c 2,10,-1
 169 398 l 1,0,-1
EndSplineSet
EndChar

StartChar: parenleft
Encoding: 40 40 11
Width: 333
GlyphClass: 2
Flags: W
LayerCount: 2
Fore
SplineSet
344 665 m 1,0,1
 310 634 310 634 286 607.5 c 128,-1,2
 262 581 262 581 228.5 530.5 c 128,-1,3
 195 480 195 480 174 425.5 c 128,-1,4
 153 371 153 371 137.5 288 c 128,-1,5
 122 205 122 205 122 110 c 0,6,7
 122 23 122 23 137 -34.5 c 128,-1,8
 152 -92 152 -92 193 -164 c 1,9,-1
 170 -179 l 1,10,11
 94 -75 94 -75 61 14.5 c 128,-1,12
 28 104 28 104 28 207 c 0,13,14
 28 249 28 249 35 289 c 128,-1,15
 42 329 42 329 51.5 361.5 c 128,-1,16
 61 394 61 394 79 427 c 128,-1,17
 97 460 97 460 111.5 483.5 c 128,-1,18
 126 507 126 507 150 534 c 128,-1,19
 174 561 174 561 188.5 576 c 128,-1,20
 203 591 203 591 229.5 612.5 c 128,-1,21
 256 634 256 634 266.5 642 c 128,-1,22
 277 650 277 650 300.5 666.5 c 128,-1,23
 324 683 324 683 326 685 c 1,24,-1
 344 665 l 1,0,1
EndSplineSet
EndChar

StartChar: parenright
Encoding: 41 41 12
Width: 333
GlyphClass: 2
Flags: W
LayerCount: 2
Fore
SplineSet
128 685 m 1,0,1
 198 589 198 589 234.5 499 c 128,-1,2
 271 409 271 409 271 299 c 0,3,4
 271 244 271 244 258.5 191 c 128,-1,5
 246 138 246 138 229.5 99 c 128,-1,6
 213 60 213 60 182.5 18.5 c 128,-1,7
 152 -23 152 -23 132 -46 c 128,-1,8
 112 -69 112 -69 75.5 -100.5 c 128,-1,9
 39 -132 39 -132 26.5 -141 c 128,-1,10
 14 -150 14 -150 -16 -171 c 0,11,12
 -24 -177 -24 -177 -27 -179 c 1,13,-1
 -44 -159 l 1,14,15
 13 -106 13 -106 42 -70 c 128,-1,16
 71 -34 71 -34 95 14 c 0,17,18
 132 89 132 89 154.5 194 c 128,-1,19
 177 299 177 299 177 399 c 0,20,21
 177 484 177 484 161.5 543 c 128,-1,22
 146 602 146 602 105 670 c 1,23,-1
 128 685 l 1,0,1
EndSplineSet
EndChar

StartChar: asterisk
Encoding: 42 42 13
Width: 500
GlyphClass: 2
Flags: W
LayerCount: 2
Fore
SplineSet
144 497 m 1,0,1
 99 497 99 497 82 513 c 128,-1,2
 65 529 65 529 65 549 c 0,3,4
 65 570 65 570 80 586.5 c 128,-1,5
 95 603 95 603 114 603 c 0,6,7
 132 603 132 603 147.5 590 c 128,-1,8
 163 577 163 577 173 560 c 128,-1,9
 183 543 183 543 201.5 522 c 128,-1,10
 220 501 220 501 242 488 c 2,11,-1
 253 482 l 1,12,-1
 253 494 l 2,13,14
 253 539 253 539 231.5 576 c 128,-1,15
 210 613 210 613 210 633 c 0,16,17
 210 656 210 656 224 670.5 c 128,-1,18
 238 685 238 685 261 685 c 0,19,20
 283 685 283 685 297 670.5 c 128,-1,21
 311 656 311 656 311 633 c 0,22,23
 311 614 311 614 289.5 576 c 128,-1,24
 268 538 268 538 268 494 c 2,25,-1
 268 482 l 1,26,-1
 279 488 l 2,27,28
 307 504 307 504 328.5 534 c 128,-1,29
 350 564 350 564 366.5 583.5 c 128,-1,30
 383 603 383 603 407 603 c 0,31,32
 426 603 426 603 441 586.5 c 128,-1,33
 456 570 456 570 456 548 c 0,34,35
 456 528 456 528 438 512.5 c 128,-1,36
 420 497 420 497 377 497 c 1,37,38
 344 496 344 496 328 492 c 128,-1,39
 312 488 312 488 287 474 c 2,40,-1
 276 468 l 1,41,-1
 287 462 l 2,42,43
 311 448 311 448 326.5 444.5 c 128,-1,44
 342 441 342 441 377 439 c 1,45,46
 456 439 456 439 456 388 c 0,47,48
 456 366 456 366 441 350 c 128,-1,49
 426 334 426 334 406 334 c 0,50,51
 384 334 384 334 367.5 353 c 128,-1,52
 351 372 351 372 329 401.5 c 128,-1,53
 307 431 307 431 279 448 c 1,54,-1
 268 454 l 1,55,-1
 268 442 l 2,56,57
 268 399 268 399 289.5 361 c 128,-1,58
 311 323 311 323 311 303 c 0,59,60
 311 280 311 280 297 266 c 128,-1,61
 283 252 283 252 260 252 c 0,62,63
 238 252 238 252 224 266.5 c 128,-1,64
 210 281 210 281 210 304 c 0,65,66
 210 324 210 324 231.5 360.5 c 128,-1,67
 253 397 253 397 253 442 c 2,68,-1
 253 454 l 1,69,-1
 242 448 l 1,70,71
 213 431 213 431 191 401 c 128,-1,72
 169 371 169 371 153.5 352.5 c 128,-1,73
 138 334 138 334 115 334 c 0,74,75
 95 334 95 334 80 350 c 128,-1,76
 65 366 65 366 65 388 c 0,77,78
 65 439 65 439 144 439 c 1,79,80
 179 441 179 441 194.5 444.5 c 128,-1,81
 210 448 210 448 234 462 c 2,82,-1
 245 468 l 1,83,-1
 234 474 l 2,84,85
 209 488 209 488 193 492 c 128,-1,86
 177 496 177 496 144 497 c 1,0,1
EndSplineSet
EndChar

StartChar: plus
Encoding: 43 43 14
Width: 570
GlyphClass: 2
Flags: W
LayerCount: 2
Fore
SplineSet
241 297 m 1,0,-1
 241 506 l 1,1,-1
 329 506 l 1,2,-1
 329 297 l 1,3,-1
 537 297 l 1,4,-1
 537 209 l 1,5,-1
 329 209 l 1,6,-1
 329 0 l 1,7,-1
 241 0 l 1,8,-1
 241 209 l 1,9,-1
 33 209 l 1,10,-1
 33 297 l 1,11,-1
 241 297 l 1,0,-1
EndSplineSet
EndChar

StartChar: comma
Encoding: 44 44 15
Width: 250
GlyphClass: 2
Flags: W
LayerCount: 2
Fore
SplineSet
58 -41 m 0,0,1
 58 -27 58 -27 47 -16.5 c 128,-1,2
 36 -6 36 -6 23 1 c 128,-1,3
 10 8 10 8 -1 23.5 c 128,-1,4
 -12 39 -12 39 -12 61 c 0,5,6
 -12 93 -12 93 8 113.5 c 128,-1,7
 28 134 28 134 59 134 c 0,8,9
 97 134 97 134 120.5 107 c 128,-1,10
 144 80 144 80 144 36 c 0,11,12
 144 -25 144 -25 91.5 -84.5 c 128,-1,13
 39 -144 39 -144 -47 -182 c 1,14,-1
 -60 -158 l 1,15,16
 58 -94 58 -94 58 -41 c 0,0,1
EndSplineSet
EndChar

StartChar: hyphen
Encoding: 45 45 16
Width: 333
GlyphClass: 2
Flags: W
LayerCount: 2
Fore
SplineSet
271 282 m 1,0,-1
 248 166 l 1,1,-1
 2 166 l 1,2,-1
 26 282 l 1,3,-1
 271 282 l 1,0,-1
EndSplineSet
EndChar

StartChar: period
Encoding: 46 46 17
Width: 250
GlyphClass: 2
Flags: W
LayerCount: 2
Fore
SplineSet
66 135 m 0,0,1
 96 135 96 135 117.5 113 c 128,-1,2
 139 91 139 91 139 61 c 0,3,4
 139 30 139 30 117.5 8.5 c 128,-1,5
 96 -13 96 -13 64 -13 c 0,6,7
 33 -13 33 -13 12 8 c 128,-1,8
 -9 29 -9 29 -9 60 c 0,9,10
 -9 92 -9 92 12.5 113.5 c 128,-1,11
 34 135 34 135 66 135 c 0,0,1
EndSplineSet
EndChar

StartChar: slash
Encoding: 47 47 18
Width: 335
GlyphClass: 2
Flags: W
LayerCount: 2
Fore
SplineSet
315 685 m 1,0,-1
 402 685 l 1,1,-1
 83 -18 l 1,2,-1
 -4 -18 l 1,3,-1
 315 685 l 1,0,-1
EndSplineSet
EndChar

StartChar: zero
Encoding: 48 48 19
Width: 500
GlyphClass: 2
Flags: W
LayerCount: 2
Fore
SplineSet
17 206 m 0,0,1
 17 308 17 308 54.5 416.5 c 128,-1,2
 92 525 92 525 165.5 604 c 128,-1,3
 239 683 239 683 327 683 c 0,4,5
 395 683 395 683 436 617.5 c 128,-1,6
 477 552 477 552 477 442 c 0,7,8
 477 370 477 370 455 291 c 128,-1,9
 433 212 433 212 395 143.5 c 128,-1,10
 357 75 357 75 299 30.5 c 128,-1,11
 241 -14 241 -14 177 -14 c 0,12,13
 105 -14 105 -14 61 46 c 128,-1,14
 17 106 17 106 17 206 c 0,0,1
325 654 m 0,15,16
 297 654 297 654 274 621 c 128,-1,17
 251 588 251 588 223 510 c 0,18,19
 188 413 188 413 154 271 c 128,-1,20
 120 129 120 129 120 81 c 0,21,22
 120 51 120 51 133.5 33 c 128,-1,23
 147 15 147 15 170 15 c 0,24,25
 201 15 201 15 224.5 46 c 128,-1,26
 248 77 248 77 273 149 c 0,27,28
 297 217 297 217 335.5 375 c 128,-1,29
 374 533 374 533 374 582 c 0,30,31
 374 616 374 616 361 635 c 128,-1,32
 348 654 348 654 325 654 c 0,15,16
EndSplineSet
EndChar

StartChar: one
Encoding: 49 49 20
Width: 500
GlyphClass: 2
Flags: W
LayerCount: 2
Fore
SplineSet
5 0 m 1,0,-1
 5 23 l 1,1,2
 59 23 59 23 86 39.5 c 128,-1,3
 113 56 113 56 124 97 c 2,4,-1
 252 556 l 2,5,6
 256 574 256 574 256 580 c 0,7,8
 256 613 256 613 210 613 c 0,9,10
 181 613 181 613 147 608 c 1,11,-1
 149 631 l 1,12,13
 288 651 288 651 419 683 c 1,14,-1
 265 123 l 2,15,16
 253 79 253 79 253 69 c 0,17,18
 253 41 253 41 272 32.5 c 128,-1,19
 291 24 291 24 350 23 c 1,20,-1
 350 0 l 1,21,-1
 5 0 l 1,0,-1
EndSplineSet
EndChar

StartChar: two
Encoding: 50 50 21
Width: 500
GlyphClass: 2
Flags: W
LayerCount: 2
Fore
SplineSet
104 519 m 1,0,1
 189 683 189 683 321 683 c 0,2,3
 391 683 391 683 438.5 634.5 c 128,-1,4
 486 586 486 586 486 515 c 0,5,6
 486 401 486 401 342 278 c 2,7,-1
 146 111 l 1,8,-1
 295 111 l 2,9,10
 353 111 353 111 379 126 c 128,-1,11
 405 141 405 141 434 191 c 1,12,-1
 459 191 l 1,13,-1
 380 0 l 1,14,-1
 13 0 l 1,15,-1
 13 24 l 1,16,-1
 103 114 l 2,17,18
 244 254 244 254 298 334.5 c 128,-1,19
 352 415 352 415 352 483 c 0,20,21
 352 535 352 535 327.5 564 c 128,-1,22
 303 593 303 593 259 593 c 0,23,24
 184 593 184 593 126 507 c 1,25,-1
 104 519 l 1,0,1
EndSplineSet
EndChar

StartChar: three
Encoding: 51 51 22
Width: 500
GlyphClass: 2
Flags: W
LayerCount: 2
Fore
SplineSet
305 189 m 0,0,1
 305 340 305 340 148 347 c 1,2,-1
 152 369 l 1,3,4
 249 389 249 389 295 426.5 c 128,-1,5
 341 464 341 464 341 522 c 0,6,7
 341 563 341 563 317.5 587.5 c 128,-1,8
 294 612 294 612 254 612 c 0,9,10
 219 612 219 612 194 596 c 128,-1,11
 169 580 169 580 138 537 c 1,12,-1
 117 550 l 1,13,14
 164 620 164 620 212 651.5 c 128,-1,15
 260 683 260 683 321 683 c 0,16,17
 385 683 385 683 427.5 644 c 128,-1,18
 470 605 470 605 470 547 c 0,19,20
 470 456 470 456 363 403 c 2,21,-1
 351 397 l 1,22,23
 394 365 394 365 411 332 c 128,-1,24
 428 299 428 299 428 250 c 0,25,26
 428 140 428 140 343.5 63.5 c 128,-1,27
 259 -13 259 -13 138 -13 c 0,28,29
 77 -13 77 -13 41 8.5 c 128,-1,30
 5 30 5 30 5 67 c 0,31,32
 5 92 5 92 21.5 107.5 c 128,-1,33
 38 123 38 123 65 123 c 0,34,35
 90 123 90 123 106.5 108 c 128,-1,36
 123 93 123 93 130.5 75 c 128,-1,37
 138 57 138 57 154.5 42 c 128,-1,38
 171 27 171 27 195 27 c 0,39,40
 241 27 241 27 273 74.5 c 128,-1,41
 305 122 305 122 305 189 c 0,0,1
EndSplineSet
EndChar

StartChar: four
Encoding: 52 52 23
Width: 500
GlyphClass: 2
Flags: W
LayerCount: 2
Fore
SplineSet
473 248 m 1,0,-1
 446 150 l 1,1,-1
 378 150 l 1,2,-1
 336 0 l 1,3,-1
 208 0 l 1,4,-1
 249 150 l 1,5,-1
 5 150 l 1,6,-1
 33 255 l 1,7,-1
 460 683 l 1,8,-1
 523 683 l 1,9,-1
 404 248 l 1,10,-1
 473 248 l 1,0,-1
73 248 m 1,11,-1
 276 248 l 1,12,-1
 355 528 l 1,13,-1
 73 248 l 1,11,-1
EndSplineSet
EndChar

StartChar: five
Encoding: 53 53 24
Width: 500
GlyphClass: 2
Flags: W
LayerCount: 2
Fore
SplineSet
327 189 m 0,0,1
 327 219 327 219 317 247 c 128,-1,2
 307 275 307 275 283 303.5 c 128,-1,3
 259 332 259 332 210.5 350.5 c 128,-1,4
 162 369 162 369 93 372 c 1,5,-1
 224 669 l 1,6,-1
 507 669 l 1,7,-1
 471 560 l 1,8,-1
 217 560 l 1,9,-1
 183 484 l 1,10,11
 252 470 252 470 281 460 c 128,-1,12
 310 450 310 450 336 433 c 0,13,14
 432 371 432 371 432 250 c 0,15,16
 432 139 432 139 347.5 63 c 128,-1,17
 263 -13 263 -13 140 -13 c 0,18,19
 81 -13 81 -13 45 9 c 128,-1,20
 9 31 9 31 9 66 c 0,21,22
 9 91 9 91 25.5 107 c 128,-1,23
 42 123 42 123 68 123 c 0,24,25
 92 123 92 123 109.5 108 c 128,-1,26
 127 93 127 93 136 75 c 128,-1,27
 145 57 145 57 159.5 42 c 128,-1,28
 174 27 174 27 193 27 c 0,29,30
 246 27 246 27 286.5 76 c 128,-1,31
 327 125 327 125 327 189 c 0,0,1
EndSplineSet
EndChar

StartChar: six
Encoding: 54 54 25
Width: 500
GlyphClass: 2
Flags: W
LayerCount: 2
Fore
SplineSet
508 679 m 1,0,-1
 514 655 l 1,1,2
 413 617 413 617 347.5 558.5 c 128,-1,3
 282 500 282 500 236 409 c 1,4,5
 275 422 275 422 298 422 c 0,6,7
 368 422 368 422 408 376.5 c 128,-1,8
 448 331 448 331 448 251 c 0,9,10
 448 140 448 140 376.5 62.5 c 128,-1,11
 305 -15 305 -15 202 -15 c 0,12,13
 120 -15 120 -15 74 41 c 128,-1,14
 28 97 28 97 28 195 c 0,15,16
 28 301 28 301 81 399.5 c 128,-1,17
 134 498 134 498 229 569 c 1,18,19
 290 613 290 613 348.5 636 c 128,-1,20
 407 659 407 659 508 679 c 1,0,-1
256 382 m 0,21,22
 232 382 232 382 221 371 c 128,-1,23
 210 360 210 360 194 320 c 0,24,25
 140 186 140 186 140 95 c 0,26,27
 140 17 140 17 195 17 c 0,28,29
 235 17 235 17 256 56 c 0,30,31
 281 103 281 103 302.5 185.5 c 128,-1,32
 324 268 324 268 324 315 c 0,33,34
 324 382 324 382 256 382 c 0,21,22
EndSplineSet
EndChar

StartChar: seven
Encoding: 55 55 26
Width: 500
GlyphClass: 2
Flags: W
LayerCount: 2
Fore
SplineSet
103 479 m 1,0,-1
 77 479 l 1,1,-1
 164 669 l 1,2,-1
 545 669 l 1,3,-1
 164 0 l 1,4,-1
 72 0 l 1,5,-1
 404 556 l 1,6,-1
 271 556 l 2,7,8
 193 556 193 556 162 542 c 128,-1,9
 131 528 131 528 103 479 c 1,0,-1
EndSplineSet
EndChar

StartChar: eight
Encoding: 56 56 27
Width: 500
GlyphClass: 2
Flags: W
LayerCount: 2
Fore
SplineSet
310 683 m 0,0,1
 382 683 382 683 434 643.5 c 128,-1,2
 486 604 486 604 486 540 c 0,3,4
 486 487 486 487 453 450.5 c 128,-1,5
 420 414 420 414 343 381 c 1,6,-1
 343 376 l 1,7,8
 429 282 429 282 429 193 c 128,-1,9
 429 104 429 104 366 45.5 c 128,-1,10
 303 -13 303 -13 207 -13 c 0,11,12
 121 -13 121 -13 67 33 c 128,-1,13
 13 79 13 79 13 153 c 0,14,15
 13 217 13 217 56.5 262 c 128,-1,16
 100 307 100 307 193 340 c 1,17,-1
 193 345 l 1,18,19
 151 389 151 389 135 422.5 c 128,-1,20
 119 456 119 456 119 499 c 0,21,22
 119 578 119 578 173 630.5 c 128,-1,23
 227 683 227 683 310 683 c 0,0,1
219 321 m 1,24,25
 203 310 203 310 194.5 304 c 128,-1,26
 186 298 186 298 167.5 279.5 c 128,-1,27
 149 261 149 261 138.5 244 c 128,-1,28
 128 227 128 227 119 199.5 c 128,-1,29
 110 172 110 172 110 141 c 0,30,31
 110 83 110 83 136.5 50 c 128,-1,32
 163 17 163 17 209 17 c 128,-1,33
 255 17 255 17 285.5 54 c 128,-1,34
 316 91 316 91 316 147 c 0,35,36
 316 186 316 186 299.5 215.5 c 128,-1,37
 283 245 283 245 219 321 c 1,24,25
320 403 m 1,38,39
 363 448 363 448 378 477 c 128,-1,40
 393 506 393 506 393 544 c 0,41,42
 393 592 393 592 371 621 c 128,-1,43
 349 650 349 650 312 650 c 0,44,45
 276 650 276 650 253 622.5 c 128,-1,46
 230 595 230 595 230 553 c 0,47,48
 230 516 230 516 249.5 483.5 c 128,-1,49
 269 451 269 451 320 403 c 1,38,39
EndSplineSet
EndChar

StartChar: nine
Encoding: 57 57 28
Width: 500
GlyphClass: 2
Flags: W
LayerCount: 2
Fore
SplineSet
311 683 m 0,0,1
 351 683 351 683 383 669 c 128,-1,2
 415 655 415 655 434 634 c 128,-1,3
 453 613 453 613 465.5 584.5 c 128,-1,4
 478 556 478 556 482.5 529.5 c 128,-1,5
 487 503 487 503 487 476 c 0,6,7
 487 370 487 370 433 269 c 128,-1,8
 379 168 379 168 285 99 c 0,9,10
 225 55 225 55 166 32 c 128,-1,11
 107 9 107 9 6 -10 c 1,12,-1
 0 15 l 1,13,14
 184 71 184 71 277 259 c 1,15,16
 246 245 246 245 216 245 c 0,17,18
 148 245 148 245 106.5 291 c 128,-1,19
 65 337 65 337 65 412 c 0,20,21
 65 526 65 526 136.5 604.5 c 128,-1,22
 208 683 208 683 311 683 c 0,0,1
326 651 m 0,23,24
 286 651 286 651 253 596.5 c 128,-1,25
 220 542 220 542 204.5 475 c 128,-1,26
 189 408 189 408 189 352 c 0,27,28
 189 288 189 288 255 288 c 0,29,30
 286 288 286 288 299 302.5 c 128,-1,31
 312 317 312 317 332 377 c 0,32,33
 375 506 375 506 375 582 c 0,34,35
 375 651 375 651 326 651 c 0,23,24
EndSplineSet
EndChar

StartChar: colon
Encoding: 58 58 29
Width: 250
GlyphClass: 2
Flags: W
LayerCount: 2
Fore
SplineSet
98 135 m 0,0,1
 128 135 128 135 149.5 113 c 128,-1,2
 171 91 171 91 171 61 c 0,3,4
 171 30 171 30 149.5 8.5 c 128,-1,5
 128 -13 128 -13 96 -13 c 0,6,7
 65 -13 65 -13 44 8.5 c 128,-1,8
 23 30 23 30 23 61 c 128,-1,9
 23 92 23 92 44.5 113.5 c 128,-1,10
 66 135 66 135 98 135 c 0,0,1
191 459 m 0,11,12
 221 459 221 459 242.5 437 c 128,-1,13
 264 415 264 415 264 385 c 0,14,15
 264 354 264 354 242.5 332.5 c 128,-1,16
 221 311 221 311 189 311 c 0,17,18
 158 311 158 311 137 332.5 c 128,-1,19
 116 354 116 354 116 385 c 128,-1,20
 116 416 116 416 137.5 437.5 c 128,-1,21
 159 459 159 459 191 459 c 0,11,12
EndSplineSet
EndChar

StartChar: semicolon
Encoding: 59 59 30
Width: 250
GlyphClass: 2
Flags: W
LayerCount: 2
Fore
SplineSet
93 -42 m 0,0,1
 93 -28 93 -28 82 -17.5 c 128,-1,2
 71 -7 71 -7 58 0 c 128,-1,3
 45 7 45 7 34 22.5 c 128,-1,4
 23 38 23 38 23 60 c 0,5,6
 23 92 23 92 43 112.5 c 128,-1,7
 63 133 63 133 94 133 c 0,8,9
 132 133 132 133 155.5 106 c 128,-1,10
 179 79 179 79 179 35 c 0,11,12
 179 -26 179 -26 127 -85.5 c 128,-1,13
 75 -145 75 -145 -12 -183 c 1,14,-1
 -25 -159 l 1,15,16
 93 -95 93 -95 93 -42 c 0,0,1
191 459 m 0,17,18
 221 459 221 459 242.5 437 c 128,-1,19
 264 415 264 415 264 385 c 0,20,21
 264 354 264 354 242.5 332.5 c 128,-1,22
 221 311 221 311 189 311 c 0,23,24
 158 311 158 311 137 332.5 c 128,-1,25
 116 354 116 354 116 385 c 128,-1,26
 116 416 116 416 137.5 437.5 c 128,-1,27
 159 459 159 459 191 459 c 0,17,18
EndSplineSet
EndChar

StartChar: less
Encoding: 60 60 31
Width: 570
GlyphClass: 2
Flags: W
LayerCount: 2
Fore
SplineSet
539 -12 m 1,0,-1
 31 211 l 1,1,-1
 31 295 l 1,2,-1
 539 518 l 1,3,-1
 539 422 l 1,4,-1
 154 253 l 1,5,-1
 539 84 l 1,6,-1
 539 -12 l 1,0,-1
EndSplineSet
EndChar

StartChar: equal
Encoding: 61 61 32
Width: 576
GlyphClass: 2
Flags: W
LayerCount: 2
Fore
SplineSet
567 399 m 1,0,-1
 567 311 l 1,1,-1
 63 311 l 1,2,-1
 63 399 l 1,3,-1
 567 399 l 1,0,-1
567 195 m 1,4,-1
 567 107 l 1,5,-1
 63 107 l 1,6,-1
 63 195 l 1,7,-1
 567 195 l 1,4,-1
EndSplineSet
EndChar

StartChar: greater
Encoding: 62 62 33
Width: 570
GlyphClass: 2
Flags: W
LayerCount: 2
Fore
SplineSet
61 -12 m 1,0,-1
 61 84 l 1,1,-1
 446 253 l 1,2,-1
 61 422 l 1,3,-1
 61 518 l 1,4,-1
 569 295 l 1,5,-1
 569 211 l 1,6,-1
 61 -12 l 1,0,-1
EndSplineSet
EndChar

StartChar: question
Encoding: 63 63 34
Width: 500
GlyphClass: 2
Flags: W
LayerCount: 2
Fore
SplineSet
212 615 m 0,0,1
 212 610 212 610 226.5 587.5 c 128,-1,2
 241 565 241 565 241 547 c 0,3,4
 241 523 241 523 223 505.5 c 128,-1,5
 205 488 205 488 180 488 c 0,6,7
 154 488 154 488 136.5 507.5 c 128,-1,8
 119 527 119 527 119 555 c 0,9,10
 119 611 119 611 168.5 647.5 c 128,-1,11
 218 684 218 684 294 684 c 0,12,13
 373 684 373 684 421.5 644 c 128,-1,14
 470 604 470 604 470 539 c 0,15,16
 470 492 470 492 440.5 452 c 128,-1,17
 411 412 411 412 344 369 c 2,18,-1
 278 326 l 2,19,20
 249 307 249 307 233 283.5 c 128,-1,21
 217 260 217 260 196 208 c 1,22,-1
 167 215 l 1,23,24
 173 291 173 291 238 374 c 1,25,-1
 279 425 l 2,26,27
 343 505 343 505 343 573 c 0,28,29
 343 610 343 610 324.5 631.5 c 128,-1,30
 306 653 306 653 274 653 c 0,31,32
 250 653 250 653 231 641 c 128,-1,33
 212 629 212 629 212 615 c 0,0,1
154 135 m 0,34,35
 184 135 184 135 205.5 113 c 128,-1,36
 227 91 227 91 227 61 c 0,37,38
 227 30 227 30 205.5 8.5 c 128,-1,39
 184 -13 184 -13 152 -13 c 0,40,41
 121 -13 121 -13 100 8.5 c 128,-1,42
 79 30 79 30 79 61 c 128,-1,43
 79 92 79 92 100.5 113.5 c 128,-1,44
 122 135 122 135 154 135 c 0,34,35
EndSplineSet
EndChar

StartChar: at
Encoding: 64 64 35
Width: 832
GlyphClass: 2
Flags: W
LayerCount: 2
Fore
SplineSet
528 458 m 0,0,1
 528 475 528 475 519 485 c 128,-1,2
 510 495 510 495 497 495 c 0,3,4
 474 495 474 495 443.5 451.5 c 128,-1,5
 413 408 413 408 392 350.5 c 128,-1,6
 371 293 371 293 371 254 c 0,7,8
 371 236 371 236 381 224 c 128,-1,9
 391 212 391 212 406 212 c 0,10,11
 438 212 438 212 467.5 263.5 c 128,-1,12
 497 315 497 315 512.5 371.5 c 128,-1,13
 528 428 528 428 528 458 c 0,0,1
564 223 m 0,14,15
 564 201 564 201 572.5 193 c 128,-1,16
 581 185 581 185 601 185 c 0,17,18
 650 185 650 185 687 245 c 128,-1,19
 724 305 724 305 724 385 c 0,20,21
 724 493 724 493 641 567.5 c 128,-1,22
 558 642 558 642 440 642 c 0,23,24
 316 642 316 642 240 555 c 128,-1,25
 164 468 164 468 164 325 c 0,26,27
 164 194 164 194 243 115.5 c 128,-1,28
 322 37 322 37 453 37 c 0,29,30
 508 37 508 37 550.5 45.5 c 128,-1,31
 593 54 593 54 651 80 c 1,32,-1
 665 41 l 1,33,34
 592 7 592 7 544.5 -6 c 128,-1,35
 497 -19 497 -19 441 -19 c 0,36,37
 281 -19 281 -19 171.5 82 c 128,-1,38
 62 183 62 183 62 330 c 0,39,40
 62 481 62 481 172 586 c 128,-1,41
 282 691 282 691 439 691 c 0,42,43
 582 691 582 691 679 604 c 128,-1,44
 776 517 776 517 776 390 c 0,45,46
 776 290 776 290 719.5 216.5 c 128,-1,47
 663 143 663 143 587 143 c 0,48,49
 476 143 476 143 476 208 c 0,50,51
 476 223 476 223 487 260 c 1,52,53
 454 204 454 204 424.5 180.5 c 128,-1,54
 395 157 395 157 359 157 c 0,55,56
 321 157 321 157 298 184.5 c 128,-1,57
 275 212 275 212 275 256 c 0,58,59
 275 348 275 348 345.5 437.5 c 128,-1,60
 416 527 416 527 488 527 c 0,61,62
 513 527 513 527 526.5 514 c 128,-1,63
 540 501 540 501 545 471 c 1,64,-1
 559 517 l 1,65,-1
 646 523 l 1,66,-1
 591 339 l 2,67,68
 564 249 564 249 564 223 c 0,14,15
EndSplineSet
EndChar

StartChar: A
Encoding: 65 65 36
Width: 696
GlyphClass: 2
Flags: W
AnchorPoint: "Anchor-4" 586 0 basechar 0
AnchorPoint: "Anchor-3" 305 0 basechar 0
AnchorPoint: "Anchor-2" 468 668 basechar 0
AnchorPoint: "Anchor-1" 350 222 basechar 0
LayerCount: 2
Fore
SplineSet
435 84 m 0,0,1
 435 86 435 86 420 208 c 1,2,-1
 205 208 l 1,3,-1
 146 106 l 2,4,5
 131 80 131 80 131 60 c 0,6,7
 131 25 131 25 196 25 c 1,8,-1
 196 0 l 1,9,-1
 0 0 l 1,10,-1
 0 25 l 1,11,12
 27 31 27 31 43.5 44.5 c 128,-1,13
 60 58 60 58 83 95 c 2,14,-1
 455 683 l 1,15,-1
 480 683 l 1,16,-1
 576 111 l 2,17,18
 586 54 586 54 598 41.5 c 128,-1,19
 610 29 610 29 660 25 c 1,20,-1
 660 0 l 1,21,-1
 356 0 l 1,22,-1
 356 25 l 1,23,24
 404 30 404 30 419.5 41.5 c 128,-1,25
 435 53 435 53 435 84 c 0,0,1
228 248 m 1,26,-1
 413 248 l 1,27,-1
 376 491 l 1,28,-1
 228 248 l 1,26,-1
EndSplineSet
EndChar

StartChar: B
Encoding: 66 66 37
Width: 640
GlyphClass: 2
Flags: W
AnchorPoint: "Anchor-3" 274 0 basechar 0
AnchorPoint: "Anchor-2" 429 670 basechar 0
AnchorPoint: "Anchor-1" 358 351 basechar 0
LayerCount: 2
Fore
SplineSet
213 603 m 0,0,1
 213 626 213 626 196 633.5 c 128,-1,2
 179 641 179 641 140 644 c 1,3,-1
 140 669 l 1,4,-1
 412 669 l 2,5,6
 648 669 648 669 648 523 c 0,7,8
 648 487 648 487 632 458 c 128,-1,9
 616 429 616 429 597.5 413 c 128,-1,10
 579 397 579 397 546 383 c 128,-1,11
 513 369 513 369 499 365 c 128,-1,12
 485 361 485 361 459 355 c 1,13,14
 535 330 535 330 565.5 297 c 128,-1,15
 596 264 596 264 596 206 c 0,16,17
 596 110 596 110 517 55 c 128,-1,18
 438 0 438 0 301 0 c 2,19,-1
 0 0 l 1,20,-1
 0 25 l 1,21,22
 37 30 37 30 53.5 44.5 c 128,-1,23
 70 59 70 59 80 97 c 2,24,-1
 202 546 l 2,25,26
 213 585 213 585 213 603 c 0,0,1
279 32 m 0,27,28
 352 32 352 32 397.5 88.5 c 128,-1,29
 443 145 443 145 443 229 c 0,30,31
 443 264 443 264 433 286 c 128,-1,32
 423 308 423 308 400 319 c 128,-1,33
 377 330 377 330 354.5 333.5 c 128,-1,34
 332 337 332 337 293 338 c 1,35,-1
 227 94 l 2,36,37
 222 72 222 72 222 65 c 0,38,39
 222 32 222 32 279 32 c 0,27,28
301 368 m 1,40,41
 351 370 351 370 384 377 c 128,-1,42
 417 384 417 384 445.5 401.5 c 128,-1,43
 474 419 474 419 487.5 452 c 128,-1,44
 501 485 501 485 501 536 c 0,45,46
 501 637 501 637 414 637 c 0,47,48
 390 637 390 637 379.5 628.5 c 128,-1,49
 369 620 369 620 362 593 c 2,50,-1
 301 368 l 1,40,41
EndSplineSet
EndChar

StartChar: C
Encoding: 67 67 38
Width: 620
GlyphClass: 2
Flags: W
AnchorPoint: "Anchor-3" 316 0 basechar 0
AnchorPoint: "Anchor-2" 448 670 basechar 0
AnchorPoint: "Anchor-1" 374 351 basechar 0
LayerCount: 2
Fore
SplineSet
449 685 m 0,0,1
 502 685 502 685 555.5 670.5 c 128,-1,2
 609 656 609 656 618 656 c 0,3,4
 638 656 638 656 656 685 c 1,5,-1
 686 685 l 1,6,-1
 635 451 l 1,7,-1
 603 457 l 1,8,9
 606 476 606 476 606 492 c 0,10,11
 606 565 606 565 571 607.5 c 128,-1,12
 536 650 536 650 475 650 c 0,13,14
 396 650 396 650 329.5 575 c 128,-1,15
 263 500 263 500 229 400 c 128,-1,16
 195 300 195 300 195 209 c 0,17,18
 195 127 195 127 235 81 c 128,-1,19
 275 35 275 35 345 35 c 0,20,21
 377 35 377 35 406.5 43.5 c 128,-1,22
 436 52 436 52 456 62.5 c 128,-1,23
 476 73 476 73 497 91.5 c 128,-1,24
 518 110 518 110 527 120 c 128,-1,25
 536 130 536 130 550 147 c 0,26,27
 553 151 553 151 555 153 c 1,28,-1
 585 131 l 1,29,30
 543 74 543 74 507 47 c 0,31,32
 421 -18 421 -18 313 -18 c 0,33,34
 191 -18 191 -18 116 53.5 c 128,-1,35
 41 125 41 125 41 241 c 0,36,37
 41 423 41 423 161.5 554 c 128,-1,38
 282 685 282 685 449 685 c 0,0,1
EndSplineSet
EndChar

StartChar: D
Encoding: 68 68 39
Width: 723
GlyphClass: 2
Flags: W
AnchorPoint: "Anchor-3" 268 0 basechar 0
AnchorPoint: "Anchor-2" 452 670 basechar 0
AnchorPoint: "Anchor-1" 379 351 basechar 0
LayerCount: 2
Fore
SplineSet
213 602 m 0,0,1
 213 625 213 625 199 631.5 c 128,-1,2
 185 638 185 638 140 644 c 1,3,-1
 140 669 l 1,4,-1
 430 669 l 2,5,6
 572 669 572 669 651.5 596.5 c 128,-1,7
 731 524 731 524 731 396 c 0,8,9
 731 226 731 226 604 113 c 128,-1,10
 477 0 477 0 286 0 c 2,11,-1
 0 0 l 1,12,-1
 0 25 l 1,13,14
 37 30 37 30 53.5 44.5 c 128,-1,15
 70 59 70 59 80 97 c 2,16,-1
 201 543 l 2,17,18
 213 591 213 591 213 602 c 0,0,1
364 600 m 2,19,-1
 235 122 l 2,20,21
 223 76 223 76 223 68 c 0,22,23
 223 34 223 34 277 34 c 0,24,25
 417 34 417 34 496 147 c 0,26,27
 537 205 537 205 560.5 288.5 c 128,-1,28
 584 372 584 372 584 457 c 0,29,30
 584 638 584 638 419 638 c 0,31,32
 374 638 374 638 364 600 c 2,19,-1
EndSplineSet
EndChar

StartChar: E
Encoding: 69 69 40
Width: 630
GlyphClass: 2
Flags: W
AnchorPoint: "Anchor-4" 514 0 basechar 0
AnchorPoint: "Anchor-3" 280 0 basechar 0
AnchorPoint: "Anchor-2" 429 670 basechar 0
AnchorPoint: "Anchor-1" 358 351 basechar 0
LayerCount: 2
Fore
SplineSet
283 32 m 0,0,1
 365 32 365 32 426 56 c 128,-1,2
 487 80 487 80 521.5 113.5 c 128,-1,3
 556 147 556 147 588 199 c 1,4,-1
 613 194 l 1,5,-1
 554 0 l 1,6,-1
 0 0 l 1,7,-1
 0 25 l 1,8,9
 39 31 39 31 54 44 c 128,-1,10
 69 57 69 57 80 97 c 2,11,-1
 203 546 l 2,12,13
 213 583 213 583 213 606 c 0,14,15
 213 619 213 619 204.5 626.5 c 128,-1,16
 196 634 196 634 185 636.5 c 128,-1,17
 174 639 174 639 147 643 c 0,18,19
 143 644 143 644 140 644 c 1,20,-1
 140 669 l 1,21,-1
 680 669 l 1,22,-1
 637 479 l 1,23,-1
 610 484 l 1,24,25
 610 522 610 522 604.5 546 c 128,-1,26
 599 570 599 570 581 593 c 128,-1,27
 563 616 563 616 525 626.5 c 128,-1,28
 487 637 487 637 426 637 c 0,29,30
 395 637 395 637 383 628 c 128,-1,31
 371 619 371 619 363 593 c 2,32,-1
 302 370 l 1,33,-1
 315 370 l 2,34,35
 378 370 378 370 410 378 c 128,-1,36
 442 386 442 386 462.5 407 c 128,-1,37
 483 428 483 428 507 476 c 1,38,-1
 535 472 l 1,39,-1
 461 199 l 1,40,-1
 433 204 l 1,41,42
 437 229 437 229 437 248 c 0,43,44
 437 300 437 300 407.5 318.5 c 128,-1,45
 378 337 378 337 293 338 c 1,46,-1
 237 129 l 2,47,48
 237 127 237 127 229.5 101.5 c 128,-1,49
 222 76 222 76 222 66 c 0,50,51
 222 32 222 32 283 32 c 0,0,1
EndSplineSet
EndChar

StartChar: F
Encoding: 70 70 41
Width: 609
GlyphClass: 2
Flags: W
AnchorPoint: "Anchor-3" 142 0 basechar 0
AnchorPoint: "Anchor-2" 429 670 basechar 0
AnchorPoint: "Anchor-1" 358 351 basechar 0
LayerCount: 2
Fore
SplineSet
603 484 m 1,0,1
 603 522 603 522 596.5 547.5 c 128,-1,2
 590 573 590 573 572 595 c 128,-1,3
 554 617 554 617 518 627 c 128,-1,4
 482 637 482 637 426 637 c 0,5,6
 396 637 396 637 383 628 c 128,-1,7
 370 619 370 619 363 593 c 2,8,-1
 302 370 l 1,9,10
 400 371 400 371 432.5 388 c 128,-1,11
 465 405 465 405 500 476 c 1,12,-1
 528 472 l 1,13,-1
 454 199 l 1,14,-1
 426 204 l 1,15,16
 430 229 430 229 430 248 c 0,17,18
 430 299 430 299 401.5 318 c 128,-1,19
 373 337 373 337 293 338 c 1,20,-1
 239 137 l 1,21,22
 224 92 224 92 224 69 c 128,-1,23
 224 46 224 46 238.5 37 c 128,-1,24
 253 28 253 28 295 25 c 1,25,-1
 295 0 l 1,26,-1
 0 0 l 1,27,-1
 0 25 l 1,28,29
 39 31 39 31 54 44 c 128,-1,30
 69 57 69 57 80 97 c 2,31,-1
 203 546 l 2,32,33
 213 583 213 583 213 606 c 0,34,35
 213 625 213 625 199.5 631.5 c 128,-1,36
 186 638 186 638 150 643 c 0,37,38
 143 644 143 644 140 644 c 1,39,-1
 140 669 l 1,40,-1
 673 669 l 1,41,-1
 630 479 l 1,42,-1
 603 484 l 1,0,1
EndSplineSet
EndChar

StartChar: G
Encoding: 71 71 42
Width: 706
GlyphClass: 2
Flags: W
AnchorPoint: "Anchor-3" 346 0 basechar 0
AnchorPoint: "Anchor-2" 466 670 basechar 0
AnchorPoint: "Anchor-1" 387 351 basechar 0
LayerCount: 2
Fore
SplineSet
516 268 m 0,0,1
 516 279 516 279 511.5 285.5 c 128,-1,2
 507 292 507 292 493.5 296 c 128,-1,3
 480 300 480 300 472 301 c 128,-1,4
 464 302 464 302 442 304 c 1,5,-1
 442 330 l 1,6,-1
 729 330 l 1,7,-1
 729 304 l 1,8,9
 689 301 689 301 676.5 288 c 128,-1,10
 664 275 664 275 650 222 c 2,11,-1
 602 41 l 1,12,-1
 574 28 l 2,13,14
 531 8 531 8 464 -5 c 128,-1,15
 397 -18 397 -18 340 -18 c 0,16,17
 209 -18 209 -18 126.5 57 c 128,-1,18
 44 132 44 132 44 251 c 0,19,20
 44 366 44 366 104 470 c 128,-1,21
 164 574 164 574 263 632 c 0,22,23
 355 685 355 685 471 685 c 0,24,25
 527 685 527 685 575.5 670 c 128,-1,26
 624 655 624 655 631 655 c 0,27,28
 658 655 658 655 673 685 c 1,29,-1
 704 685 l 1,30,-1
 653 464 l 1,31,-1
 624 468 l 1,32,33
 622 557 622 557 590.5 603 c 128,-1,34
 559 649 559 649 485 649 c 0,35,36
 420 649 420 649 364 605 c 128,-1,37
 308 561 308 561 273.5 493.5 c 128,-1,38
 239 426 239 426 219.5 350.5 c 128,-1,39
 200 275 200 275 200 208 c 0,40,41
 200 117 200 117 242 68.5 c 128,-1,42
 284 20 284 20 364 20 c 0,43,44
 393 20 393 20 420.5 28.5 c 128,-1,45
 448 37 448 37 458 50 c 0,46,47
 464 59 464 59 490 148.5 c 128,-1,48
 516 238 516 238 516 268 c 0,0,1
EndSplineSet
EndChar

StartChar: H
Encoding: 72 72 43
Width: 753
GlyphClass: 2
Flags: W
AnchorPoint: "Anchor-3" 327 0 basechar 0
AnchorPoint: "Anchor-2" 486 670 basechar 0
AnchorPoint: "Anchor-1" 406 351 basechar 0
LayerCount: 2
Fore
SplineSet
598 607 m 0,0,1
 598 626 598 626 585 631.5 c 128,-1,2
 572 637 572 637 525 644 c 1,3,-1
 525 669 l 1,4,-1
 823 669 l 1,5,-1
 823 644 l 1,6,7
 785 639 785 639 769.5 625.5 c 128,-1,8
 754 612 754 612 742 572 c 2,9,-1
 627 153 l 2,10,11
 608 85 608 85 608 66 c 0,12,13
 608 44 608 44 624 35.5 c 128,-1,14
 640 27 640 27 681 25 c 1,15,-1
 681 0 l 1,16,-1
 364 0 l 1,17,-1
 364 25 l 1,18,19
 414 28 414 28 434 42 c 128,-1,20
 454 56 454 56 465 97 c 2,21,-1
 529 329 l 1,22,-1
 290 329 l 1,23,-1
 240 148 l 2,24,25
 239 144 239 144 231 113.5 c 128,-1,26
 223 83 223 83 223 68 c 0,27,28
 223 44 223 44 236 36.5 c 128,-1,29
 249 29 249 29 296 25 c 1,30,-1
 296 0 l 1,31,-1
 0 0 l 1,32,-1
 0 25 l 1,33,34
 38 30 38 30 54 44 c 128,-1,35
 70 58 70 58 80 97 c 2,36,-1
 202 546 l 2,37,38
 213 587 213 587 213 604 c 0,39,40
 213 625 213 625 198.5 631.5 c 128,-1,41
 184 638 184 638 140 644 c 1,42,-1
 140 669 l 1,43,-1
 457 669 l 1,44,-1
 457 644 l 1,45,46
 408 643 408 643 387.5 628 c 128,-1,47
 367 613 367 613 356 572 c 2,48,-1
 302 373 l 1,49,-1
 541 373 l 1,50,-1
 588 546 l 2,51,52
 598 582 598 582 598 607 c 0,0,1
EndSplineSet
EndChar

StartChar: I
Encoding: 73 73 44
Width: 374
GlyphClass: 2
Flags: W
AnchorPoint: "Anchor-4" 210 0 basechar 0
AnchorPoint: "Anchor-3" 141 0 basechar 0
AnchorPoint: "Anchor-2" 313 670 basechar 0
AnchorPoint: "Anchor-1" 229 351 basechar 0
LayerCount: 2
Fore
SplineSet
213 607 m 0,0,1
 213 626 213 626 200 631.5 c 128,-1,2
 187 637 187 637 140 644 c 1,3,-1
 140 669 l 1,4,-1
 438 669 l 1,5,-1
 438 644 l 1,6,7
 399 639 399 639 382.5 625 c 128,-1,8
 366 611 366 611 356 572 c 2,9,-1
 242 152 l 2,10,11
 224 84 224 84 224 65 c 0,12,13
 224 44 224 44 239 35.5 c 128,-1,14
 254 27 254 27 296 25 c 1,15,-1
 296 0 l 1,16,-1
 0 0 l 1,17,-1
 0 25 l 1,18,19
 37 30 37 30 53.5 44 c 128,-1,20
 70 58 70 58 80 97 c 2,21,-1
 203 546 l 2,22,23
 213 582 213 582 213 607 c 0,0,1
EndSplineSet
EndChar

StartChar: J
Encoding: 74 74 45
Width: 500
GlyphClass: 2
Flags: W
AnchorPoint: "Anchor-3" 155 -98 basechar 0
AnchorPoint: "Anchor-2" 442 670 basechar 0
AnchorPoint: "Anchor-1" 359 351 basechar 0
LayerCount: 2
Fore
SplineSet
346 607 m 0,0,1
 346 623 346 623 331.5 630.5 c 128,-1,2
 317 638 317 638 273 644 c 1,3,-1
 273 669 l 1,4,-1
 570 669 l 1,5,-1
 570 644 l 1,6,7
 532 639 532 639 515.5 625 c 128,-1,8
 499 611 499 611 489 572 c 2,9,-1
 361 93 l 2,10,11
 335 -5 335 -5 284 -52 c 128,-1,12
 233 -99 233 -99 152 -99 c 0,13,14
 86 -99 86 -99 43 -70.5 c 128,-1,15
 0 -42 0 -42 0 2 c 0,16,17
 0 31 0 31 18.5 51.5 c 128,-1,18
 37 72 37 72 64 72 c 0,19,20
 90 72 90 72 108.5 53.5 c 128,-1,21
 127 35 127 35 127 9 c 0,22,23
 127 -8 127 -8 115.5 -22 c 128,-1,24
 104 -36 104 -36 104 -45 c 0,25,26
 104 -63 104 -63 131 -63 c 128,-1,27
 158 -63 158 -63 175 -30 c 128,-1,28
 192 3 192 3 221 114 c 2,29,-1
 335 546 l 2,30,31
 346 587 346 587 346 607 c 0,0,1
EndSplineSet
EndChar

StartChar: K
Encoding: 75 75 46
Width: 663
GlyphClass: 2
Flags: W
AnchorPoint: "Anchor-3" 310 0 basechar 0
AnchorPoint: "Anchor-2" 429 670 basechar 0
AnchorPoint: "Anchor-1" 350 351 basechar 0
LayerCount: 2
Fore
SplineSet
213 604 m 0,0,1
 213 625 213 625 198.5 631.5 c 128,-1,2
 184 638 184 638 140 644 c 1,3,-1
 140 669 l 1,4,-1
 450 669 l 1,5,-1
 450 644 l 1,6,7
 405 640 405 640 385.5 625.5 c 128,-1,8
 366 611 366 611 356 572 c 2,9,-1
 294 344 l 1,10,11
 448 476 448 476 508 535.5 c 128,-1,12
 568 595 568 595 568 617 c 0,13,14
 568 638 568 638 533 642 c 0,15,16
 530 642 530 642 512 644 c 1,17,-1
 512 669 l 1,18,-1
 723 669 l 1,19,-1
 723 644 l 1,20,21
 690 639 690 639 675.5 632 c 128,-1,22
 661 625 661 625 629 596 c 2,23,-1
 413 398 l 1,24,-1
 570 60 l 2,25,26
 578 42 578 42 591 35 c 128,-1,27
 604 28 604 28 633 25 c 1,28,-1
 633 0 l 1,29,-1
 353 0 l 1,30,-1
 353 25 l 1,31,32
 372 26 372 26 380 27.5 c 128,-1,33
 388 29 388 29 399 31.5 c 128,-1,34
 410 34 410 34 414 39 c 128,-1,35
 418 44 418 44 418 52 c 0,36,37
 418 66 418 66 405 95 c 2,38,-1
 292 337 l 1,39,-1
 225 88 l 2,40,41
 223 78 223 78 223 71 c 0,42,43
 223 46 223 46 236.5 37 c 128,-1,44
 250 28 250 28 289 25 c 1,45,-1
 289 0 l 1,46,-1
 0 0 l 1,47,-1
 0 25 l 1,48,49
 37 30 37 30 53 44 c 128,-1,50
 69 58 69 58 80 97 c 2,51,-1
 202 546 l 2,52,53
 213 587 213 587 213 604 c 0,0,1
EndSplineSet
EndChar

StartChar: L
Encoding: 76 76 47
Width: 609
GlyphClass: 2
Flags: W
AnchorPoint: "Anchor-3" 284 0 basechar 0
AnchorPoint: "Anchor-2" 479 670 basechar 0
AnchorPoint: "Anchor-1" 220 351 basechar 0
LayerCount: 2
Fore
SplineSet
213 607 m 0,0,1
 213 626 213 626 200 631.5 c 128,-1,2
 187 637 187 637 140 644 c 1,3,-1
 140 669 l 1,4,-1
 457 669 l 1,5,-1
 457 644 l 1,6,7
 407 641 407 641 387 627 c 128,-1,8
 367 613 367 613 356 572 c 2,9,-1
 227 94 l 2,10,11
 222 76 222 76 222 62 c 0,12,13
 222 32 222 32 286 32 c 0,14,15
 411 32 411 32 493 90 c 0,16,17
 522 111 522 111 542.5 134 c 128,-1,18
 563 157 563 157 588 199 c 1,19,-1
 612 194 l 1,20,-1
 553 0 l 1,21,-1
 0 0 l 1,22,-1
 0 25 l 1,23,24
 37 30 37 30 53.5 44.5 c 128,-1,25
 70 59 70 59 80 97 c 2,26,-1
 203 546 l 2,27,28
 213 582 213 582 213 607 c 0,0,1
EndSplineSet
EndChar

StartChar: M
Encoding: 77 77 48
Width: 876
GlyphClass: 2
Flags: W
AnchorPoint: "Anchor-3" 327 0 basechar 0
AnchorPoint: "Anchor-2" 554 670 basechar 0
AnchorPoint: "Anchor-1" 430 351 basechar 0
LayerCount: 2
Fore
SplineSet
946 669 m 1,0,-1
 946 644 l 1,1,2
 908 639 908 639 891.5 625 c 128,-1,3
 875 611 875 611 865 572 c 2,4,-1
 740 113 l 2,5,6
 732 84 732 84 732 68 c 0,7,8
 732 44 732 44 746 35.5 c 128,-1,9
 760 27 760 27 804 25 c 1,10,-1
 804 0 l 1,11,-1
 492 0 l 1,12,-1
 492 25 l 1,13,14
 541 28 541 28 561 42.5 c 128,-1,15
 581 57 581 57 592 97 c 2,16,-1
 717 561 l 1,17,-1
 342 -12 l 1,18,-1
 314 -12 l 1,19,-1
 247 547 l 1,20,-1
 146 178 l 2,21,22
 127 108 127 108 127 86 c 0,23,24
 127 55 127 55 143 43 c 128,-1,25
 159 31 159 31 207 25 c 1,26,-1
 207 0 l 1,27,-1
 0 0 l 1,28,-1
 0 25 l 1,29,30
 41 34 41 34 57 57.5 c 128,-1,31
 73 81 73 81 101 178 c 2,32,-1
 210 551 l 2,33,34
 221 590 221 590 221 609 c 0,35,36
 221 630 221 630 208.5 636 c 128,-1,37
 196 642 196 642 149 644 c 1,38,-1
 149 669 l 1,39,-1
 370 669 l 1,40,-1
 424 189 l 1,41,-1
 734 669 l 1,42,-1
 946 669 l 1,0,-1
EndSplineSet
EndChar

StartChar: N
Encoding: 78 78 49
Width: 705
GlyphClass: 2
Flags: W
AnchorPoint: "Anchor-3" 302 0 basechar 0
AnchorPoint: "Anchor-2" 486 670 basechar 0
AnchorPoint: "Anchor-1" 401 351 basechar 0
LayerCount: 2
Fore
SplineSet
333 669 m 1,0,-1
 548 204 l 1,1,-1
 628 491 l 2,2,3
 646 556 646 556 646 585 c 128,-1,4
 646 614 646 614 628 627 c 128,-1,5
 610 640 610 640 566 644 c 1,6,-1
 566 669 l 1,7,-1
 775 669 l 1,8,-1
 775 644 l 1,9,10
 731 634 731 634 715.5 611.5 c 128,-1,11
 700 589 700 589 673 491 c 2,12,-1
 530 -15 l 1,13,-1
 502 -15 l 1,14,-1
 245 534 l 1,15,-1
 146 178 l 2,16,17
 128 111 128 111 128 84 c 0,18,19
 128 55 128 55 146 42 c 128,-1,20
 164 29 164 29 208 25 c 1,21,-1
 208 0 l 1,22,-1
 0 0 l 1,23,-1
 0 25 l 1,24,25
 41 33 41 33 57 56.5 c 128,-1,26
 73 80 73 80 101 178 c 2,27,-1
 221 589 l 1,28,29
 207 622 207 622 193 631 c 128,-1,30
 179 640 179 640 138 644 c 1,31,-1
 138 669 l 1,32,-1
 333 669 l 1,0,-1
EndSplineSet
EndChar

StartChar: O
Encoding: 79 79 50
Width: 676
GlyphClass: 2
Flags: W
AnchorPoint: "Anchor-4" 311 0 basechar 0
AnchorPoint: "Anchor-3" 278 0 basechar 0
AnchorPoint: "Anchor-2" 456 670 basechar 0
AnchorPoint: "Anchor-1" 371 351 basechar 0
LayerCount: 2
Fore
SplineSet
36 221 m 0,0,1
 36 293 36 293 68 374 c 128,-1,2
 100 455 100 455 154.5 524.5 c 128,-1,3
 209 594 209 594 289.5 639.5 c 128,-1,4
 370 685 370 685 458 685 c 0,5,6
 562 685 562 685 631 619.5 c 128,-1,7
 700 554 700 554 700 454 c 0,8,9
 700 377 700 377 668.5 294 c 128,-1,10
 637 211 637 211 583 141.5 c 128,-1,11
 529 72 529 72 446.5 27 c 128,-1,12
 364 -18 364 -18 272 -18 c 0,13,14
 166 -18 166 -18 101 48 c 128,-1,15
 36 114 36 114 36 221 c 0,0,1
454 651 m 0,16,17
 360 651 360 651 286 520 c 0,18,19
 245 448 245 448 212.5 331 c 128,-1,20
 180 214 180 214 180 137 c 0,21,22
 180 81 180 81 207.5 48.5 c 128,-1,23
 235 16 235 16 282 16 c 0,24,25
 360 16 360 16 427 113 c 0,26,27
 477 187 477 187 516.5 314 c 128,-1,28
 556 441 556 441 556 531 c 0,29,30
 556 585 556 585 528 618 c 128,-1,31
 500 651 500 651 454 651 c 0,16,17
EndSplineSet
EndChar

StartChar: P
Encoding: 80 80 51
Width: 600
GlyphClass: 2
Flags: W
AnchorPoint: "Anchor-3" 137 0 basechar 0
AnchorPoint: "Anchor-2" 433 670 basechar 0
AnchorPoint: "Anchor-1" 358 351 basechar 0
LayerCount: 2
Fore
SplineSet
213 606 m 0,0,1
 213 625 213 625 199.5 631.5 c 128,-1,2
 186 638 186 638 150 643 c 0,3,4
 143 644 143 644 140 644 c 1,5,-1
 140 669 l 1,6,-1
 427 669 l 2,7,8
 531 669 531 669 585.5 629.5 c 128,-1,9
 640 590 640 590 640 514 c 0,10,11
 640 424 640 424 566 370.5 c 128,-1,12
 492 317 492 317 367 317 c 0,13,14
 331 317 331 317 286 322 c 1,15,-1
 232 123 l 2,16,17
 222 86 222 86 222 64 c 0,18,19
 222 44 222 44 237 35.5 c 128,-1,20
 252 27 252 27 294 25 c 1,21,-1
 294 0 l 1,22,-1
 0 0 l 1,23,-1
 0 25 l 1,24,25
 40 31 40 31 54.5 44 c 128,-1,26
 69 57 69 57 80 97 c 2,27,-1
 203 546 l 2,28,29
 213 583 213 583 213 606 c 0,0,1
410 637 m 0,30,31
 401 637 401 637 394.5 636 c 128,-1,32
 388 635 388 635 383 631.5 c 128,-1,33
 378 628 378 628 375 626.5 c 128,-1,34
 372 625 372 625 369 618.5 c 128,-1,35
 366 612 366 612 365.5 610.5 c 128,-1,36
 365 609 365 609 362.5 601.5 c 128,-1,37
 360 594 360 594 360 593 c 2,38,-1
 296 354 l 1,39,40
 330 352 330 352 338 352 c 0,41,42
 390 352 390 352 420.5 371 c 128,-1,43
 451 390 451 390 471 434 c 0,44,45
 494 485 494 485 494 546 c 0,46,47
 494 589 494 589 472 613 c 128,-1,48
 450 637 450 637 410 637 c 0,30,31
EndSplineSet
EndChar

StartChar: Q
Encoding: 81 81 52
Width: 677
GlyphClass: 2
Flags: W
AnchorPoint: "Anchor-2" 452 670 basechar 0
AnchorPoint: "Anchor-1" 363 351 basechar 0
LayerCount: 2
Fore
SplineSet
402 -208 m 0,0,1
 349 -208 349 -208 273.5 -184.5 c 128,-1,2
 198 -161 198 -161 162 -161 c 0,3,4
 121 -161 121 -161 48 -189 c 1,5,-1
 34 -165 l 1,6,-1
 190 -35 l 2,7,8
 206 -21 206 -21 209 -16 c 1,9,10
 205 -11 205 -11 168.5 2.5 c 128,-1,11
 132 16 132 16 103 44 c 0,12,13
 33 109 33 109 33 211 c 0,14,15
 33 330 33 330 93 440.5 c 128,-1,16
 153 551 153 551 251 618 c 128,-1,17
 349 685 349 685 455 685 c 0,18,19
 560 685 560 685 628.5 619 c 128,-1,20
 697 553 697 553 697 452 c 0,21,22
 697 352 697 352 650 253 c 128,-1,23
 603 154 603 154 520 80 c 0,24,25
 462 28 462 28 409 8.5 c 128,-1,26
 356 -11 356 -11 258 -17 c 1,27,28
 212 -61 212 -61 212 -64 c 0,29,30
 212 -68 212 -68 235.5 -70.5 c 128,-1,31
 259 -73 259 -73 297 -77.5 c 128,-1,32
 335 -82 335 -82 360 -90 c 2,33,-1
 402 -103 l 2,34,35
 451 -118 451 -118 485 -118 c 0,36,37
 530 -118 530 -118 563 -101 c 128,-1,38
 596 -84 596 -84 640 -40 c 1,39,-1
 661 -59 l 1,40,41
 600 -141 600 -141 542 -174.5 c 128,-1,42
 484 -208 484 -208 402 -208 c 0,0,1
451 651 m 0,43,44
 357 651 357 651 283 520 c 0,45,46
 242 447 242 447 209.5 330 c 128,-1,47
 177 213 177 213 177 136 c 0,48,49
 177 81 177 81 204.5 49 c 128,-1,50
 232 17 232 17 279 17 c 0,51,52
 357 17 357 17 424 114 c 0,53,54
 474 188 474 188 513.5 314.5 c 128,-1,55
 553 441 553 441 553 531 c 0,56,57
 553 585 553 585 525 618 c 128,-1,58
 497 651 497 651 451 651 c 0,43,44
EndSplineSet
EndChar

StartChar: R
Encoding: 82 82 53
Width: 667
GlyphClass: 2
Flags: W
AnchorPoint: "Anchor-3" 283 0 basechar 0
AnchorPoint: "Anchor-2" 429 670 basechar 0
AnchorPoint: "Anchor-1" 358 351 basechar 0
LayerCount: 2
Fore
SplineSet
213 607 m 0,0,1
 213 626 213 626 200 631.5 c 128,-1,2
 187 637 187 637 140 644 c 1,3,-1
 140 669 l 1,4,-1
 416 669 l 2,5,6
 652 669 652 669 652 526 c 0,7,8
 652 505 652 505 646 484 c 128,-1,9
 640 463 640 463 622.5 433.5 c 128,-1,10
 605 404 605 404 563.5 379.5 c 128,-1,11
 522 355 522 355 460 343 c 1,12,-1
 543 97 l 2,13,14
 558 53 558 53 573 41 c 128,-1,15
 588 29 588 29 631 25 c 1,16,-1
 631 0 l 1,17,-1
 429 0 l 1,18,-1
 322 331 l 1,19,-1
 293 331 l 1,20,-1
 238 138 l 2,21,22
 224 90 224 90 224 67 c 0,23,24
 224 45 224 45 238 36.5 c 128,-1,25
 252 28 252 28 296 25 c 1,26,-1
 296 0 l 1,27,-1
 0 0 l 1,28,-1
 0 25 l 1,29,30
 37 30 37 30 53.5 44 c 128,-1,31
 70 58 70 58 80 97 c 2,32,-1
 203 546 l 2,33,34
 213 580 213 580 213 607 c 0,0,1
362 593 m 2,35,-1
 302 363 l 1,36,37
 393 364 393 364 429 388 c 1,38,39
 461 408 461 408 481 450.5 c 128,-1,40
 501 493 501 493 501 542 c 0,41,42
 501 587 501 587 477.5 612 c 128,-1,43
 454 637 454 637 411 637 c 0,44,45
 388 637 388 637 378.5 628.5 c 128,-1,46
 369 620 369 620 362 593 c 2,35,-1
EndSplineSet
EndChar

StartChar: S
Encoding: 83 83 54
Width: 506
GlyphClass: 2
Flags: W
AnchorPoint: "Anchor-3" 231 0 basechar 0
AnchorPoint: "Anchor-2" 343 670 basechar 0
AnchorPoint: "Anchor-1" 287 351 basechar 0
LayerCount: 2
Fore
SplineSet
237 -18 m 0,0,1
 188 -18 188 -18 133.5 -0.5 c 128,-1,2
 79 17 79 17 68 17 c 0,3,4
 54 17 54 17 46.5 10.5 c 128,-1,5
 39 4 39 4 30 -18 c 1,6,-1
 0 -18 l 1,7,-1
 36 206 l 1,8,-1
 65 204 l 1,9,10
 77 16 77 16 219 16 c 0,11,12
 275 16 275 16 310 52.5 c 128,-1,13
 345 89 345 89 345 142 c 0,14,15
 345 177 345 177 320 210.5 c 128,-1,16
 295 244 295 244 259 273.5 c 128,-1,17
 223 303 223 303 186.5 333.5 c 128,-1,18
 150 364 150 364 125 405 c 128,-1,19
 100 446 100 446 100 491 c 0,20,21
 100 574 100 574 158 629.5 c 128,-1,22
 216 685 216 685 301 685 c 0,23,24
 335 685 335 685 387 670 c 128,-1,25
 439 655 439 655 450 655 c 0,26,27
 481 655 481 655 494 681 c 1,28,-1
 524 681 l 1,29,-1
 484 480 l 1,30,-1
 457 484 l 1,31,32
 447 572 447 572 416 611 c 128,-1,33
 385 650 385 650 325 650 c 0,34,35
 277 650 277 650 249 621.5 c 128,-1,36
 221 593 221 593 221 545 c 0,37,38
 221 511 221 511 236 488.5 c 128,-1,39
 251 466 251 466 298 431 c 0,40,41
 390 361 390 361 428 305 c 128,-1,42
 466 249 466 249 466 185 c 0,43,44
 466 92 466 92 404 37 c 128,-1,45
 342 -18 342 -18 237 -18 c 0,0,1
EndSplineSet
EndChar

StartChar: T
Encoding: 84 84 55
Width: 593
GlyphClass: 2
Flags: W
AnchorPoint: "Anchor-3" 248 0 basechar 0
AnchorPoint: "Anchor-2" 427 670 basechar 0
AnchorPoint: "Anchor-1" 343 351 basechar 0
LayerCount: 2
Fore
SplineSet
689 669 m 1,0,-1
 653 477 l 1,1,-1
 626 479 l 1,2,3
 622 562 622 562 590.5 597.5 c 128,-1,4
 559 633 559 633 488 634 c 1,5,-1
 348 128 l 2,6,7
 337 87 337 87 337 66 c 0,8,9
 337 42 337 42 352 34.5 c 128,-1,10
 367 27 367 27 420 25 c 1,11,-1
 420 0 l 1,12,-1
 89 0 l 1,13,-1
 89 25 l 1,14,-1
 103 25 l 2,15,16
 141 25 141 25 162 42 c 128,-1,17
 183 59 183 59 194 97 c 2,18,-1
 342 634 l 1,19,20
 265 632 265 632 214.5 599 c 128,-1,21
 164 566 164 566 125 491 c 1,22,-1
 100 498 l 1,23,-1
 138 669 l 1,24,-1
 689 669 l 1,0,-1
EndSplineSet
EndChar

StartChar: U
Encoding: 85 85 56
Width: 714
GlyphClass: 2
Flags: W
AnchorPoint: "Anchor-4" 376 0 basechar 0
AnchorPoint: "Anchor-3" 336 0 basechar 0
AnchorPoint: "Anchor-2" 485 670 basechar 0
AnchorPoint: "Anchor-1" 414 351 basechar 0
LayerCount: 2
Fore
SplineSet
784 669 m 1,0,-1
 784 644 l 1,1,2
 742 636 742 636 726 612.5 c 128,-1,3
 710 589 710 589 682 491 c 2,4,-1
 616 263 l 2,5,6
 615 260 615 260 608 233 c 128,-1,7
 601 206 601 206 597 194.5 c 128,-1,8
 593 183 593 183 583 155 c 128,-1,9
 573 127 573 127 562.5 112 c 128,-1,10
 552 97 552 97 536 73.5 c 128,-1,11
 520 50 520 50 500.5 36.5 c 128,-1,12
 481 23 481 23 456 9 c 128,-1,13
 431 -5 431 -5 399 -11.5 c 128,-1,14
 367 -18 367 -18 330 -18 c 0,15,16
 232 -18 232 -18 169.5 28.5 c 128,-1,17
 107 75 107 75 107 148 c 0,18,19
 107 203 107 203 140 323 c 2,20,-1
 196 529 l 2,21,22
 211 584 211 584 211 605 c 0,23,24
 211 621 211 621 202 628.5 c 128,-1,25
 193 636 193 636 169 640 c 0,26,27
 166 640 166 640 138 644 c 1,28,-1
 138 669 l 1,29,-1
 449 669 l 1,30,-1
 449 644 l 1,31,32
 402 642 402 642 384.5 628.5 c 128,-1,33
 367 615 367 615 355 572 c 2,34,-1
 273 272 l 2,35,36
 245 170 245 170 245 139 c 0,37,38
 245 92 245 92 277.5 65 c 128,-1,39
 310 38 310 38 367 38 c 0,40,41
 449 38 449 38 500 98 c 1,42,43
 542 150 542 150 579 282 c 2,44,-1
 637 491 l 2,45,46
 656 562 656 562 656 588 c 128,-1,47
 656 614 656 614 637.5 627 c 128,-1,48
 619 640 619 640 576 644 c 1,49,-1
 576 669 l 1,50,-1
 784 669 l 1,0,-1
EndSplineSet
EndChar

StartChar: V
Encoding: 86 86 57
Width: 703
GlyphClass: 2
Flags: W
AnchorPoint: "Anchor-3" 311 0 basechar 0
AnchorPoint: "Anchor-2" 484 670 basechar 0
AnchorPoint: "Anchor-1" 418 351 basechar 0
LayerCount: 2
Fore
SplineSet
778 669 m 1,0,-1
 778 644 l 1,1,2
 736 630 736 630 719 604 c 2,3,-1
 326 -18 l 1,4,-1
 294 -18 l 1,5,-1
 218 491 l 2,6,7
 202 598 202 598 188.5 621 c 128,-1,8
 175 644 175 644 128 644 c 1,9,-1
 128 669 l 1,10,-1
 426 669 l 1,11,-1
 426 644 l 1,12,13
 376 639 376 639 363 631.5 c 128,-1,14
 350 624 350 624 350 599 c 0,15,16
 350 589 350 589 351 583 c 2,17,-1
 402 182 l 1,18,-1
 592 484 l 2,19,20
 651 576 651 576 651 611 c 0,21,22
 651 638 651 638 611 642 c 0,23,24
 608 642 608 642 586 644 c 1,25,-1
 586 669 l 1,26,-1
 778 669 l 1,0,-1
EndSplineSet
EndChar

StartChar: W
Encoding: 87 87 58
Width: 928
GlyphClass: 2
Flags: W
AnchorPoint: "Anchor-3" 465 0 basechar 0
AnchorPoint: "Anchor-2" 588 670 basechar 0
AnchorPoint: "Anchor-1" 522 351 basechar 0
LayerCount: 2
Fore
SplineSet
1003 669 m 1,0,-1
 1003 645 l 1,1,2
 971 640 971 640 955 626.5 c 128,-1,3
 939 613 939 613 919 572 c 2,4,-1
 633 -18 l 1,5,-1
 604 -18 l 1,6,-1
 545 471 l 1,7,-1
 312 -18 l 1,8,-1
 283 -18 l 1,9,-1
 205 561 l 2,10,11
 198 614 198 614 187.5 625.5 c 128,-1,12
 177 637 177 637 128 645 c 1,13,-1
 128 669 l 1,14,-1
 405 669 l 1,15,-1
 405 644 l 1,16,17
 369 639 369 639 356.5 628.5 c 128,-1,18
 344 618 344 618 344 591 c 0,19,20
 344 580 344 580 345 575 c 2,21,-1
 384 226 l 1,22,-1
 534 537 l 1,23,24
 533 601 533 601 520.5 620 c 128,-1,25
 508 639 508 639 463 645 c 1,26,-1
 463 669 l 1,27,-1
 732 669 l 1,28,-1
 732 644 l 1,29,30
 692 640 692 640 680.5 629.5 c 128,-1,31
 669 619 669 619 669 586 c 0,32,33
 669 572 669 572 675 521 c 2,34,-1
 708 226 l 1,35,-1
 864 553 l 2,36,37
 879 586 879 586 879 599 c 0,38,39
 879 626 879 626 868.5 633.5 c 128,-1,40
 858 641 858 641 816 644 c 1,41,-1
 816 669 l 1,42,-1
 1003 669 l 1,0,-1
EndSplineSet
EndChar

StartChar: X
Encoding: 88 88 59
Width: 699
GlyphClass: 2
Flags: W
AnchorPoint: "Anchor-3" 289 0 basechar 0
AnchorPoint: "Anchor-2" 445 670 basechar 0
AnchorPoint: "Anchor-1" 358 351 basechar 0
LayerCount: 2
Fore
SplineSet
610 25 m 1,0,-1
 610 0 l 1,1,-1
 302 0 l 1,2,-1
 302 25 l 1,3,4
 342 29 342 29 356 36.5 c 128,-1,5
 370 44 370 44 370 63 c 0,6,7
 370 81 370 81 359 119 c 128,-1,8
 348 157 348 157 332.5 204 c 128,-1,9
 317 251 317 251 313 264 c 1,10,-1
 179 116 l 2,11,12
 149 83 149 83 149 65 c 0,13,14
 149 31 149 31 214 25 c 1,15,-1
 214 0 l 1,16,-1
 0 0 l 1,17,-1
 0 25 l 1,18,19
 32 31 32 31 72.5 68 c 128,-1,20
 113 105 113 105 231 235 c 1,21,-1
 299 309 l 1,22,-1
 215 581 l 2,23,24
 204 616 204 616 186.5 627.5 c 128,-1,25
 169 639 169 639 124 644 c 1,26,-1
 124 669 l 1,27,-1
 429 669 l 1,28,-1
 429 644 l 1,29,30
 408 641 408 641 399 641 c 1,31,32
 374 638 374 638 364.5 630 c 128,-1,33
 355 622 355 622 355 605 c 0,34,35
 355 593 355 593 365 556.5 c 128,-1,36
 375 520 375 520 384.5 490 c 128,-1,37
 394 460 394 460 395 458 c 2,38,-1
 406 421 l 1,39,-1
 500 520 l 2,40,41
 570 594 570 594 570 618 c 0,42,43
 570 639 570 639 537 642 c 0,44,45
 535 642 535 642 515 644 c 1,46,-1
 515 669 l 1,47,-1
 718 669 l 1,48,-1
 718 644 l 1,49,50
 690 640 690 640 670.5 628 c 128,-1,51
 651 616 651 616 619 583 c 2,52,-1
 420 378 l 1,53,-1
 494 141 l 2,54,55
 516 71 516 71 536 51 c 128,-1,56
 556 31 556 31 610 25 c 1,0,-1
EndSplineSet
EndChar

StartChar: Y
Encoding: 89 89 60
Width: 639
GlyphClass: 2
Flags: W
AnchorPoint: "Anchor-4" 374 0 basechar 0
AnchorPoint: "Anchor-3" 293 0 basechar 0
AnchorPoint: "Anchor-2" 448 670 basechar 0
AnchorPoint: "Anchor-1" 370 351 basechar 0
LayerCount: 2
Fore
SplineSet
289 313 m 1,0,-1
 201 581 l 2,1,2
 188 621 188 621 177.5 630 c 128,-1,3
 167 639 167 639 128 644 c 1,4,-1
 128 669 l 1,5,-1
 411 669 l 1,6,-1
 411 644 l 1,7,8
 370 643 370 643 355.5 635.5 c 128,-1,9
 341 628 341 628 341 607 c 0,10,11
 341 598 341 598 343 588.5 c 128,-1,12
 345 579 345 579 351 558 c 128,-1,13
 357 537 357 537 364 516.5 c 128,-1,14
 371 496 371 496 387 447.5 c 128,-1,15
 403 399 403 399 418 352 c 1,16,-1
 547 538 l 2,17,18
 573 576 573 576 573 598 c 0,19,20
 573 624 573 624 559.5 633 c 128,-1,21
 546 642 546 642 506 644 c 1,22,-1
 506 669 l 1,23,-1
 714 669 l 1,24,-1
 714 644 l 1,25,26
 685 638 685 638 666 624 c 128,-1,27
 647 610 647 610 623 575 c 2,28,-1
 433 308 l 1,29,-1
 381 117 l 2,30,31
 373 86 373 86 373 72 c 0,32,33
 373 44 373 44 387 35.5 c 128,-1,34
 401 27 401 27 450 25 c 1,35,-1
 450 0 l 1,36,-1
 128 0 l 1,37,-1
 128 25 l 1,38,39
 180 29 180 29 198.5 41.5 c 128,-1,40
 217 54 217 54 229 97 c 2,41,-1
 289 313 l 1,0,-1
EndSplineSet
EndChar

StartChar: Z
Encoding: 90 90 61
Width: 562
GlyphClass: 2
Flags: W
AnchorPoint: "Anchor-3" 249 0 basechar 0
AnchorPoint: "Anchor-2" 379 670 basechar 0
AnchorPoint: "Anchor-1" 314 351 basechar 0
LayerCount: 2
Fore
SplineSet
237 35 m 2,0,1
 353 35 353 35 418 73 c 128,-1,2
 483 111 483 111 538 199 c 1,3,-1
 565 194 l 1,4,-1
 506 0 l 1,5,-1
 0 0 l 1,6,-1
 0 29 l 1,7,-1
 434 634 l 1,8,-1
 356 634 l 2,9,10
 274 634 274 634 218.5 602 c 128,-1,11
 163 570 163 570 104 487 c 1,12,-1
 76 491 l 1,13,-1
 133 669 l 1,14,-1
 601 669 l 1,15,-1
 601 640 l 1,16,-1
 167 35 l 1,17,-1
 237 35 l 2,0,1
EndSplineSet
EndChar

StartChar: bracketleft
Encoding: 91 91 62
Width: 333
GlyphClass: 2
Flags: W
LayerCount: 2
Fore
SplineSet
355 639 m 1,0,-1
 286 639 l 2,1,2
 259 639 259 639 252 630 c 128,-1,3
 245 621 245 621 234 576 c 2,4,-1
 76 -100 l 2,5,6
 75 -102 75 -102 75 -104 c 0,7,8
 75 -112 75 -112 84.5 -118 c 128,-1,9
 94 -124 94 -124 111 -124 c 2,10,-1
 189 -124 l 1,11,-1
 182 -159 l 1,12,-1
 -37 -159 l 1,13,-1
 162 674 l 1,14,-1
 362 674 l 1,15,-1
 355 639 l 1,0,-1
EndSplineSet
EndChar

StartChar: backslash
Encoding: 92 92 63
Width: 400
GlyphClass: 2
Flags: W
LayerCount: 2
Fore
SplineSet
117 685 m 1,0,-1
 202 685 l 1,1,-1
 397 -18 l 1,2,-1
 313 -18 l 1,3,-1
 117 685 l 1,0,-1
EndSplineSet
EndChar

StartChar: bracketright
Encoding: 93 93 64
Width: 333
GlyphClass: 2
Flags: W
LayerCount: 2
Fore
SplineSet
-49 -122 m 1,0,-1
 19 -122 l 2,1,2
 46 -122 46 -122 53 -113.5 c 128,-1,3
 60 -105 60 -105 71 -61 c 2,4,-1
 229 616 l 1,5,-1
 229 619 l 2,6,7
 229 627 229 627 219 633 c 128,-1,8
 209 639 209 639 194 639 c 2,9,-1
 116 639 l 1,10,-1
 123 674 l 1,11,-1
 343 674 l 1,12,-1
 143 -157 l 1,13,-1
 -56 -157 l 1,14,-1
 -49 -122 l 1,0,-1
EndSplineSet
EndChar

StartChar: asciicircum
Encoding: 94 94 65
Width: 570
GlyphClass: 2
Flags: W
LayerCount: 2
Fore
SplineSet
156 304 m 1,0,-1
 67 304 l 1,1,-1
 245 669 l 1,2,-1
 325 669 l 1,3,-1
 503 304 l 1,4,-1
 414 304 l 1,5,-1
 285 576 l 1,6,-1
 156 304 l 1,0,-1
EndSplineSet
EndChar

StartChar: underscore
Encoding: 95 95 66
Width: 500
GlyphClass: 2
Flags: W
LayerCount: 2
Fore
SplineSet
500 -155 m 1,0,-1
 0 -155 l 1,1,-1
 0 -75 l 1,2,-1
 500 -75 l 1,3,-1
 500 -155 l 1,0,-1
EndSplineSet
EndChar

StartChar: grave
Encoding: 96 96 67
Width: 333
GlyphClass: 2
Flags: W
LayerCount: 2
Fore
SplineSet
297 516 m 1,0,-1
 252 516 l 1,1,-1
 119 605 l 2,2,3
 85 628 85 628 85 652 c 0,4,5
 85 670 85 670 98.5 683.5 c 128,-1,6
 112 697 112 697 130 697 c 0,7,8
 160 697 160 697 186 663 c 2,9,-1
 297 516 l 1,0,-1
EndSplineSet
EndChar

StartChar: a
Encoding: 97 97 68
Width: 509
GlyphClass: 2
Flags: W
AnchorPoint: "Anchor-4" 322 0 basechar 0
AnchorPoint: "Anchor-3" 146 0 basechar 0
AnchorPoint: "Anchor-2" 295 449 basechar 0
AnchorPoint: "Anchor-1" 223 237 basechar 0
AnchorPoint: "Anchor-0" 370 462 basechar 0
LayerCount: 2
Fore
SplineSet
338 373 m 0,0,1
 338 394 338 394 326.5 407 c 128,-1,2
 315 420 315 420 299 420 c 0,3,4
 269 420 269 420 230 364.5 c 128,-1,5
 191 309 191 309 164 235.5 c 128,-1,6
 137 162 137 162 137 112 c 0,7,8
 137 89 137 89 150 73.5 c 128,-1,9
 163 58 163 58 182 58 c 0,10,11
 222 58 222 58 260.5 124 c 128,-1,12
 299 190 299 190 318.5 262 c 128,-1,13
 338 334 338 334 338 373 c 0,0,1
469 127 m 1,14,-1
 490 112 l 1,15,16
 407 -14 407 -14 339 -14 c 0,17,18
 311 -14 311 -14 291.5 5 c 128,-1,19
 272 24 272 24 272 52 c 0,20,21
 272 69 272 69 286 119 c 1,22,23
 243 48 243 48 205.5 17.5 c 128,-1,24
 168 -13 168 -13 122 -13 c 0,25,26
 73 -13 73 -13 43.5 22 c 128,-1,27
 14 57 14 57 14 114 c 0,28,29
 14 190 14 190 56 272 c 128,-1,30
 98 354 98 354 162.5 408 c 128,-1,31
 227 462 227 462 287 462 c 0,32,33
 319 462 319 462 336.5 445 c 128,-1,34
 354 428 354 428 361 390 c 1,35,-1
 379 449 l 1,36,-1
 490 456 l 1,37,-1
 419 220 l 2,38,39
 385 105 385 105 385 72 c 0,40,41
 385 57 385 57 397 57 c 128,-1,42
 409 57 409 57 423.5 71 c 128,-1,43
 438 85 438 85 469 127 c 1,14,-1
EndSplineSet
EndChar

StartChar: b
Encoding: 98 98 69
Width: 481
GlyphClass: 2
Flags: W
AnchorPoint: "Anchor-3" 170 0 basechar 0
AnchorPoint: "Anchor-2" 412 669 basechar 0
AnchorPoint: "Anchor-1" 264 237 basechar 0
AnchorPoint: "Anchor-0" 350 462 basechar 0
LayerCount: 2
Fore
SplineSet
115 642 m 1,0,-1
 115 669 l 1,1,2
 233 682 233 682 323 699 c 1,3,-1
 233 371 l 1,4,5
 271 421 271 421 302 441.5 c 128,-1,6
 333 462 333 462 371 462 c 0,7,8
 420 462 420 462 451.5 427.5 c 128,-1,9
 483 393 483 393 483 338 c 0,10,11
 483 204 483 204 384 95.5 c 128,-1,12
 285 -13 285 -13 163 -13 c 0,13,14
 114 -13 114 -13 69.5 6.5 c 128,-1,15
 25 26 25 26 25 47 c 0,16,17
 25 57 25 57 45 128 c 2,18,-1
 139 455 l 2,19,20
 178 592 178 592 178 612 c 0,21,22
 178 629 178 629 165 635.5 c 128,-1,23
 152 642 152 642 115 642 c 1,0,-1
179 20 m 0,24,25
 225 20 225 20 267.5 73.5 c 128,-1,26
 310 127 310 127 334 197.5 c 128,-1,27
 358 268 358 268 358 325 c 0,28,29
 358 394 358 394 314 394 c 0,30,31
 280 394 280 394 247 346 c 128,-1,32
 214 298 214 298 193.5 235 c 128,-1,33
 173 172 173 172 160.5 118.5 c 128,-1,34
 148 65 148 65 148 47 c 0,35,36
 148 36 148 36 157 28 c 128,-1,37
 166 20 166 20 179 20 c 0,24,25
EndSplineSet
EndChar

StartChar: c
Encoding: 99 99 70
Width: 428
GlyphClass: 2
Flags: W
AnchorPoint: "Anchor-3" 162 0 basechar 0
AnchorPoint: "Anchor-2" 299 449 basechar 0
AnchorPoint: "Anchor-1" 218 237 basechar 0
AnchorPoint: "Anchor-0" 310 462 basechar 0
LayerCount: 2
Fore
SplineSet
300 429 m 0,0,1
 265 429 265 429 235.5 393 c 128,-1,2
 206 357 206 357 188.5 307 c 128,-1,3
 171 257 171 257 161.5 211.5 c 128,-1,4
 152 166 152 166 152 141 c 0,5,6
 152 101 152 101 172.5 76 c 128,-1,7
 193 51 193 51 225 51 c 128,-1,8
 257 51 257 51 284 71 c 128,-1,9
 311 91 311 91 347 141 c 1,10,-1
 375 123 l 1,11,12
 331 60 331 60 301 35 c 0,13,14
 245 -13 245 -13 177 -13 c 128,-1,15
 109 -13 109 -13 66.5 29 c 128,-1,16
 24 71 24 71 24 138 c 0,17,18
 24 258 24 258 113.5 360 c 128,-1,19
 203 462 203 462 309 462 c 0,20,21
 358 462 358 462 389.5 437 c 128,-1,22
 421 412 421 412 421 372 c 0,23,24
 421 341 421 341 403.5 321.5 c 128,-1,25
 386 302 386 302 359 302 c 0,26,27
 334 302 334 302 317.5 317 c 128,-1,28
 301 332 301 332 301 354 c 0,29,30
 301 369 301 369 311.5 388.5 c 128,-1,31
 322 408 322 408 322 412 c 0,32,33
 322 429 322 429 300 429 c 0,0,1
EndSplineSet
EndChar

StartChar: d
Encoding: 100 100 71
Width: 510
GlyphClass: 2
Flags: W
AnchorPoint: "Anchor-3" 161 0 basechar 0
AnchorPoint: "Anchor-2" 320 669 basechar 0
AnchorPoint: "Anchor-1" 249 237 basechar 0
AnchorPoint: "Anchor-0" 535 462 basechar 0
LayerCount: 2
Fore
SplineSet
468 131 m 1,0,-1
 490 115 l 1,1,2
 449 49 449 49 413.5 19 c 128,-1,3
 378 -11 378 -11 341 -11 c 0,4,5
 313 -11 313 -11 297 5.5 c 128,-1,6
 281 22 281 22 281 51 c 0,7,8
 281 67 281 67 292 118 c 1,9,10
 249 47 249 47 211 17 c 128,-1,11
 173 -13 173 -13 126 -13 c 0,12,13
 80 -13 80 -13 50 22.5 c 128,-1,14
 20 58 20 58 20 112 c 0,15,16
 20 188 20 188 62 270.5 c 128,-1,17
 104 353 104 353 168.5 407.5 c 128,-1,18
 233 462 233 462 292 462 c 0,19,20
 331 462 331 462 364 429 c 1,21,-1
 383 497 l 2,22,23
 411 597 411 597 411 615 c 0,24,25
 411 643 411 643 370 643 c 2,26,-1
 349 643 l 1,27,-1
 349 670 l 1,28,29
 478 680 478 680 558 699 c 1,30,-1
 447 294 l 2,31,32
 390 87 390 87 390 71 c 0,33,34
 390 67 390 67 393.5 63 c 128,-1,35
 397 59 397 59 401 59 c 0,36,37
 425 59 425 59 468 131 c 1,0,-1
349 370 m 0,38,39
 349 392 349 392 338 406 c 128,-1,40
 327 420 327 420 309 420 c 0,41,42
 270 420 270 420 229.5 358 c 128,-1,43
 189 296 189 296 166.5 225.5 c 128,-1,44
 144 155 144 155 144 117 c 0,45,46
 144 92 144 92 155.5 75.5 c 128,-1,47
 167 59 167 59 185 59 c 0,48,49
 225 59 225 59 265 127.5 c 128,-1,50
 305 196 305 196 327 268 c 128,-1,51
 349 340 349 340 349 370 c 0,38,39
EndSplineSet
EndChar

StartChar: e
Encoding: 101 101 72
Width: 417
GlyphClass: 2
Flags: W
AnchorPoint: "Anchor-4" 199 0 basechar 0
AnchorPoint: "Anchor-3" 176 0 basechar 0
AnchorPoint: "Anchor-2" 329 449 basechar 0
AnchorPoint: "Anchor-1" 227 237 basechar 0
AnchorPoint: "Anchor-0" 300 462 basechar 0
LayerCount: 2
Fore
SplineSet
336 142 m 1,0,-1
 365 125 l 1,1,2
 320 51 320 51 276 19 c 128,-1,3
 232 -13 232 -13 175 -13 c 0,4,5
 110 -13 110 -13 67 29 c 128,-1,6
 24 71 24 71 24 134 c 0,7,8
 24 258 24 258 114 360 c 128,-1,9
 204 462 204 462 312 462 c 0,10,11
 358 462 358 462 387.5 437.5 c 128,-1,12
 417 413 417 413 417 375 c 0,13,14
 417 354 417 354 408 331.5 c 128,-1,15
 399 309 399 309 374.5 279.5 c 128,-1,16
 350 250 350 250 295 223.5 c 128,-1,17
 240 197 240 197 160 182 c 1,18,19
 154 152 154 152 154 133 c 0,20,21
 154 51 154 51 219 51 c 0,22,23
 250 51 250 51 275.5 70.5 c 128,-1,24
 301 90 301 90 336 142 c 1,0,-1
167 214 m 1,25,26
 239 240 239 240 282 280.5 c 128,-1,27
 325 321 325 321 325 395 c 0,28,29
 325 429 325 429 297 429 c 0,30,31
 223 429 223 429 167 214 c 1,25,26
EndSplineSet
EndChar

StartChar: f
Encoding: 102 102 73
Width: 485
GlyphClass: 2
Flags: W
AnchorPoint: "Anchor-3" 111 -200 basechar 0
AnchorPoint: "Anchor-2" 420 669 basechar 0
AnchorPoint: "Anchor-1" 212 237 basechar 0
AnchorPoint: "Anchor-0" 508 462 basechar 0
LayerCount: 2
Fore
SplineSet
420 614 m 0,0,1
 420 627 420 627 428 640.5 c 128,-1,2
 436 654 436 654 436 656 c 0,3,4
 436 669 436 669 419 669 c 0,5,6
 366 669 366 669 328 520 c 2,7,-1
 310 449 l 1,8,-1
 402 449 l 1,9,-1
 393 407 l 1,10,-1
 303 407 l 1,11,12
 241 120 241 120 217 40 c 0,13,14
 164 -137 164 -137 85 -184 c 0,15,16
 49 -205 49 -205 4 -205 c 128,-1,17
 -41 -205 -41 -205 -68 -183.5 c 128,-1,18
 -95 -162 -95 -162 -95 -126 c 0,19,20
 -95 -104 -95 -104 -79.5 -88 c 128,-1,21
 -64 -72 -64 -72 -43 -72 c 0,22,23
 -24 -72 -24 -72 -9 -87 c 128,-1,24
 6 -102 6 -102 6 -120 c 0,25,26
 6 -134 6 -134 -2 -147 c 128,-1,27
 -10 -160 -10 -160 -10 -163 c 0,28,29
 -10 -174 -10 -174 8 -174 c 0,30,31
 44 -174 44 -174 62.5 -120.5 c 128,-1,32
 81 -67 81 -67 130 156 c 0,33,34
 163 307 163 307 186 407 c 1,35,-1
 113 407 l 1,36,-1
 122 449 l 1,37,-1
 195 449 l 1,38,39
 210 503 210 503 227 542 c 128,-1,40
 244 581 244 581 270 619.5 c 128,-1,41
 296 658 296 658 334 678 c 128,-1,42
 372 698 372 698 421 698 c 0,43,44
 466 698 466 698 493 676.5 c 128,-1,45
 520 655 520 655 520 618 c 0,46,47
 520 595 520 595 505.5 580 c 128,-1,48
 491 565 491 565 469 565 c 0,49,50
 449 565 449 565 434.5 579.5 c 128,-1,51
 420 594 420 594 420 614 c 0,0,1
EndSplineSet
EndChar

StartChar: g
Encoding: 103 103 74
Width: 490
GlyphClass: 2
Flags: W
AnchorPoint: "Anchor-3" 167 -200 basechar 0
AnchorPoint: "Anchor-2" 291 449 basechar 0
AnchorPoint: "Anchor-1" 238 237 basechar 0
AnchorPoint: "Anchor-0" 371 462 basechar 0
LayerCount: 2
Fore
SplineSet
-22 -97 m 0,0,1
 -22 -85 -22 -85 -19 -74.5 c 128,-1,2
 -16 -64 -16 -64 -11.5 -56 c 128,-1,3
 -7 -48 -7 -48 1 -40.5 c 128,-1,4
 9 -33 9 -33 15.5 -27.5 c 128,-1,5
 22 -22 22 -22 33 -17 c 128,-1,6
 44 -12 44 -12 50.5 -9.5 c 128,-1,7
 57 -7 57 -7 69 -3.5 c 128,-1,8
 81 0 81 0 85 1 c 128,-1,9
 89 2 89 2 100 4 c 2,10,-1
 111 7 l 1,11,12
 49 28 49 28 49 73 c 0,13,14
 49 100 49 100 66.5 117.5 c 128,-1,15
 84 135 84 135 145 170 c 1,16,17
 65 204 65 204 65 280 c 128,-1,18
 65 356 65 356 130 409 c 128,-1,19
 195 462 195 462 287 462 c 0,20,21
 352 462 352 462 397 429 c 1,22,-1
 508 429 l 1,23,-1
 508 373 l 1,24,-1
 441 373 l 1,25,26
 447 354 447 354 447 331 c 0,27,28
 447 279 447 279 421 241 c 128,-1,29
 395 203 395 203 356 185.5 c 128,-1,30
 317 168 317 168 285.5 160.5 c 128,-1,31
 254 153 254 153 231 153 c 0,32,33
 214 153 214 153 200.5 157 c 128,-1,34
 187 161 187 161 180 161 c 0,35,36
 170 161 170 161 161 149 c 128,-1,37
 152 137 152 137 152 125 c 0,38,39
 152 101 152 101 203 87 c 2,40,-1
 256 72 l 2,41,42
 338 49 338 49 371.5 20.5 c 128,-1,43
 405 -8 405 -8 405 -53 c 0,44,45
 405 -119 405 -119 338 -161 c 128,-1,46
 271 -203 271 -203 166 -203 c 0,47,48
 80 -203 80 -203 29 -174.5 c 128,-1,49
 -22 -146 -22 -146 -22 -97 c 0,0,1
144 -6 m 0,50,51
 129 -6 129 -6 97 -32.5 c 128,-1,52
 65 -59 65 -59 65 -91 c 0,53,54
 65 -125 65 -125 96 -147 c 128,-1,55
 127 -169 127 -169 176 -169 c 0,56,57
 233 -169 233 -169 264.5 -150.5 c 128,-1,58
 296 -132 296 -132 296 -100 c 0,59,60
 296 -62 296 -62 255 -43 c 0,61,62
 239 -36 239 -36 195 -21 c 128,-1,63
 151 -6 151 -6 144 -6 c 0,50,51
224 184 m 0,64,65
 269 184 269 184 299.5 249.5 c 128,-1,66
 330 315 330 315 330 372 c 0,67,68
 330 398 330 398 317 414.5 c 128,-1,69
 304 431 304 431 285 431 c 0,70,71
 241 431 241 431 211 365.5 c 128,-1,72
 181 300 181 300 181 243 c 0,73,74
 181 184 181 184 224 184 c 0,64,65
EndSplineSet
EndChar

StartChar: h
Encoding: 104 104 75
Width: 546
GlyphClass: 2
Flags: W
AnchorPoint: "Anchor-3" 214 0 basechar 0
AnchorPoint: "Anchor-2" 406 669 basechar 0
AnchorPoint: "Anchor-1" 241 237 basechar 0
AnchorPoint: "Anchor-0" 430 462 basechar 0
LayerCount: 2
Fore
SplineSet
220 283 m 1,0,1
 252 328 252 328 271 353 c 128,-1,2
 290 378 290 378 318 407 c 128,-1,3
 346 436 346 436 373.5 449 c 128,-1,4
 401 462 401 462 432 462 c 0,5,6
 467 462 467 462 487.5 442 c 128,-1,7
 508 422 508 422 508 387 c 0,8,9
 508 356 508 356 478 265 c 2,10,-1
 420 87 l 2,11,12
 417 78 417 78 417 75 c 0,13,14
 417 70 417 70 423 64.5 c 128,-1,15
 429 59 429 59 434 59 c 0,16,17
 451 59 451 59 509 142 c 1,18,-1
 531 127 l 1,19,20
 481 50 481 50 445.5 20.5 c 128,-1,21
 410 -9 410 -9 364 -9 c 0,22,23
 335 -9 335 -9 316.5 7 c 128,-1,24
 298 23 298 23 298 49 c 0,25,26
 298 83 298 83 311 130.5 c 128,-1,27
 324 178 324 178 357 275 c 0,28,29
 366 300 366 300 370 313 c 0,30,31
 386 357 386 357 386 369 c 0,32,33
 386 377 386 377 379.5 383.5 c 128,-1,34
 373 390 373 390 364 390 c 0,35,36
 325 390 325 390 263 301 c 0,37,38
 225 246 225 246 202 189 c 128,-1,39
 179 132 179 132 141 0 c 1,40,-1
 20 0 l 1,41,-1
 174 567 l 2,42,43
 182 597 182 597 182 610 c 0,44,45
 182 628 182 628 175 636 c 128,-1,46
 168 644 168 644 149 644 c 0,47,48
 135 644 135 644 119 642 c 1,49,-1
 119 669 l 1,50,51
 216 677 216 677 327 699 c 1,52,-1
 220 283 l 1,0,1
EndSplineSet
EndChar

StartChar: i
Encoding: 105 105 76
Width: 292
GlyphClass: 2
Flags: W
AnchorPoint: "Anchor-4" 127 0 basechar 0
AnchorPoint: "Anchor-3" 109 0 basechar 0
AnchorPoint: "Anchor-2" 232 669 basechar 0
AnchorPoint: "Anchor-1" 143 237 basechar 0
AnchorPoint: "Anchor-0" 310 672 basechar 0
LayerCount: 2
Fore
SplineSet
254 141 m 1,0,-1
 276 127 l 1,1,2
 223 48 223 48 188.5 19.5 c 128,-1,3
 154 -9 154 -9 109 -9 c 0,4,5
 78 -9 78 -9 59 8.5 c 128,-1,6
 40 26 40 26 40 54 c 0,7,8
 40 78 40 78 53 123 c 2,9,-1
 111 338 l 1,10,11
 118 368 118 368 118 378 c 0,12,13
 118 394 118 394 104.5 400.5 c 128,-1,14
 91 407 91 407 59 407 c 1,15,-1
 59 434 l 1,16,17
 175 443 175 443 261 462 c 1,18,-1
 170 128 l 2,19,20
 161 92 161 92 161 76 c 0,21,22
 161 70 161 70 165.5 65.5 c 128,-1,23
 170 61 170 61 176 61 c 0,24,25
 200 61 200 61 240 121 c 1,26,-1
 254 141 l 1,0,-1
232 685 m 0,27,28
 260 685 260 685 280.5 665 c 128,-1,29
 301 645 301 645 301 617 c 128,-1,30
 301 589 301 589 281 569.5 c 128,-1,31
 261 550 261 550 232 550 c 0,32,33
 204 550 204 550 185 570 c 128,-1,34
 166 590 166 590 166 619 c 0,35,36
 166 645 166 645 186 665 c 128,-1,37
 206 685 206 685 232 685 c 0,27,28
EndSplineSet
EndChar

StartChar: j
Encoding: 106 106 77
Width: 333
GlyphClass: 2
Flags: W
AnchorPoint: "Anchor-3" 121 -201 basechar 0
AnchorPoint: "Anchor-2" 326 669 basechar 0
AnchorPoint: "Anchor-1" 241 237 basechar 0
AnchorPoint: "Anchor-0" 383 672 basechar 0
LayerCount: 2
Fore
SplineSet
23 -126 m 0,0,1
 23 -139 23 -139 15.5 -150 c 128,-1,2
 8 -161 8 -161 8 -164 c 0,3,4
 8 -168 8 -168 16 -172 c 128,-1,5
 24 -176 24 -176 32 -176 c 0,6,7
 53 -176 53 -176 68.5 -148 c 128,-1,8
 84 -120 84 -120 103 -45 c 2,9,-1
 195 310 l 2,10,11
 207 360 207 360 207 376 c 0,12,13
 207 395 207 395 195 401 c 128,-1,14
 183 407 183 407 145 407 c 1,15,-1
 145 434 l 1,16,17
 281 446 281 446 353 462 c 1,18,-1
 239 24 l 2,19,20
 179 -207 179 -207 30 -207 c 0,21,22
 -17 -207 -17 -207 -46 -185.5 c 128,-1,23
 -75 -164 -75 -164 -75 -130 c 0,24,25
 -75 -108 -75 -108 -60.5 -92.5 c 128,-1,26
 -46 -77 -46 -77 -26 -77 c 128,-1,27
 -6 -77 -6 -77 8.5 -91.5 c 128,-1,28
 23 -106 23 -106 23 -126 c 0,0,1
324 685 m 0,29,30
 352 685 352 685 372.5 665 c 128,-1,31
 393 645 393 645 393 617 c 128,-1,32
 393 589 393 589 373 569.5 c 128,-1,33
 353 550 353 550 324 550 c 0,34,35
 296 550 296 550 277 570 c 128,-1,36
 258 590 258 590 258 619 c 0,37,38
 258 645 258 645 278 665 c 128,-1,39
 298 685 298 685 324 685 c 0,29,30
EndSplineSet
EndChar

StartChar: k
Encoding: 107 107 78
Width: 509
GlyphClass: 2
Flags: W
AnchorPoint: "Anchor-3" 220 0 basechar 0
AnchorPoint: "Anchor-2" 397 669 basechar 0
AnchorPoint: "Anchor-1" 251 237 basechar 0
AnchorPoint: "Anchor-0" 402 462 basechar 0
LayerCount: 2
Fore
SplineSet
192 188 m 1,0,-1
 142 0 l 1,1,-1
 20 0 l 1,2,-1
 176 567 l 2,3,4
 184 597 184 597 184 609 c 0,5,6
 184 643 184 643 142 643 c 0,7,8
 129 643 129 643 121 642 c 1,9,-1
 121 669 l 1,10,11
 218 679 218 679 329 699 c 1,12,-1
 206 239 l 1,13,14
 301 314 301 314 335.5 348 c 128,-1,15
 370 382 370 382 370 401 c 0,16,17
 370 413 370 413 359 417.5 c 128,-1,18
 348 422 348 422 319 424 c 1,19,-1
 319 449 l 1,20,-1
 526 449 l 1,21,-1
 526 424 l 1,22,23
 492 420 492 420 467 406 c 128,-1,24
 442 392 442 392 391 348 c 2,25,-1
 328 293 l 1,26,27
 356 147 356 147 370.5 105 c 128,-1,28
 385 63 385 63 406 63 c 0,29,30
 420 63 420 63 434 77.5 c 128,-1,31
 448 92 448 92 468 127 c 1,32,-1
 490 116 l 1,33,34
 452 48 452 48 421.5 20 c 128,-1,35
 391 -8 391 -8 354 -8 c 0,36,37
 307 -8 307 -8 280.5 40 c 128,-1,38
 254 88 254 88 231 215 c 1,39,-1
 192 188 l 1,0,-1
EndSplineSet
EndChar

StartChar: l
Encoding: 108 108 79
Width: 294
GlyphClass: 2
Flags: W
AnchorPoint: "Anchor-3" 108 0 basechar 0
AnchorPoint: "Anchor-2" 271 669 basechar 0
AnchorPoint: "Anchor-1" 146 237 basechar 0
AnchorPoint: "Anchor-0" 314 462 basechar 0
LayerCount: 2
Fore
SplineSet
256 141 m 1,0,-1
 278 127 l 1,1,2
 226 48 226 48 190.5 19.5 c 128,-1,3
 155 -9 155 -9 109 -9 c 0,4,5
 79 -9 79 -9 60.5 7.5 c 128,-1,6
 42 24 42 24 42 51 c 0,7,8
 42 86 42 86 76 209 c 2,9,-1
 150 473 l 1,10,11
 184 587 184 587 184 615 c 0,12,13
 184 644 184 644 150 644 c 0,14,15
 139 644 139 644 121 642 c 1,16,-1
 121 669 l 1,17,18
 229 679 229 679 330 699 c 1,19,-1
 185 176 l 2,20,21
 163 94 163 94 163 76 c 0,22,23
 163 70 163 70 167.5 65.5 c 128,-1,24
 172 61 172 61 178 61 c 0,25,26
 202 61 202 61 256 141 c 1,0,-1
EndSplineSet
EndChar

StartChar: m
Encoding: 109 109 80
Width: 763
GlyphClass: 2
Flags: W
AnchorPoint: "Anchor-3" 311 0 basechar 0
AnchorPoint: "Anchor-2" 435 449 basechar 0
AnchorPoint: "Anchor-1" 390 237 basechar 0
AnchorPoint: "Anchor-0" 620 462 basechar 0
LayerCount: 2
Fore
SplineSet
655 59 m 0,0,1
 676 59 676 59 724 135 c 1,2,-1
 746 122 l 1,3,4
 702 48 702 48 667 19.5 c 128,-1,5
 632 -9 632 -9 586 -9 c 0,6,7
 519 -9 519 -9 519 54 c 0,8,9
 519 104 519 104 555 207 c 2,10,-1
 600 338 l 2,11,12
 607 361 607 361 607 368 c 0,13,14
 607 376 607 376 600 382.5 c 128,-1,15
 593 389 593 389 584 389 c 0,16,17
 538 389 538 389 472 273 c 0,18,19
 445 227 445 227 430.5 187 c 128,-1,20
 416 147 416 147 371 0 c 1,21,-1
 251 0 l 1,22,-1
 316 207 l 1,23,24
 361 346 361 346 361 366 c 0,25,26
 361 376 361 376 355.5 382.5 c 128,-1,27
 350 389 350 389 342 389 c 0,28,29
 332 389 332 389 313.5 375.5 c 128,-1,30
 295 362 295 362 278 343 c 1,31,32
 236 292 236 292 203 216.5 c 128,-1,33
 170 141 170 141 131 0 c 1,34,-1
 10 0 l 1,35,-1
 77 238 l 2,36,37
 112 361 112 361 112 381 c 0,38,39
 112 407 112 407 66 407 c 2,40,-1
 58 407 l 1,41,-1
 58 434 l 1,42,43
 185 444 185 444 258 461 c 1,44,-1
 194 262 l 1,45,46
 225 310 225 310 244 336.5 c 128,-1,47
 263 363 263 363 292.5 397 c 128,-1,48
 322 431 322 431 351.5 446.5 c 128,-1,49
 381 462 381 462 412 462 c 128,-1,50
 443 462 443 462 461 444 c 128,-1,51
 479 426 479 426 479 394 c 0,52,53
 479 358 479 358 453 290 c 1,54,55
 516 389 516 389 558 425.5 c 128,-1,56
 600 462 600 462 651 462 c 0,57,58
 684 462 684 462 706 441.5 c 128,-1,59
 728 421 728 421 728 391 c 0,60,61
 728 350 728 350 705 284 c 2,62,-1
 660 151 l 2,63,64
 639 89 639 89 639 77 c 0,65,66
 639 76 639 76 639 75 c 128,-1,67
 639 74 639 74 639 73 c 0,68,69
 639 68 639 68 643.5 63.5 c 128,-1,70
 648 59 648 59 655 59 c 0,0,1
EndSplineSet
EndChar

StartChar: n
Encoding: 110 110 81
Width: 526
GlyphClass: 2
Flags: W
AnchorPoint: "Anchor-3" 203 0 basechar 0
AnchorPoint: "Anchor-2" 334 449 basechar 0
AnchorPoint: "Anchor-1" 268 237 basechar 0
AnchorPoint: "Anchor-0" 410 462 basechar 0
LayerCount: 2
Fore
SplineSet
194 263 m 1,0,1
 272 378 272 378 315 420 c 128,-1,2
 358 462 358 462 417 462 c 0,3,4
 452 462 452 462 471 442.5 c 128,-1,5
 490 423 490 423 490 387 c 0,6,7
 490 352 490 352 464 272 c 2,8,-1
 428 163 l 2,9,10
 403 88 403 88 403 76 c 0,11,12
 403 59 403 59 417 59 c 0,13,14
 430 59 430 59 443.5 74 c 128,-1,15
 457 89 457 89 487 135 c 1,16,-1
 509 122 l 1,17,18
 466 49 466 49 430 20 c 128,-1,19
 394 -9 394 -9 350 -9 c 0,20,21
 319 -9 319 -9 300.5 7 c 128,-1,22
 282 23 282 23 282 51 c 0,23,24
 282 98 282 98 310 182 c 2,25,-1
 365 348 l 2,26,27
 370 365 370 365 370 369 c 0,28,29
 370 377 370 377 362 383.5 c 128,-1,30
 354 390 354 390 345 390 c 0,31,32
 331 390 331 390 311 375.5 c 128,-1,33
 291 361 291 361 276 341 c 0,34,35
 230 281 230 281 198.5 206 c 128,-1,36
 167 131 167 131 131 0 c 1,37,-1
 10 0 l 1,38,-1
 66 204 l 1,39,40
 112 366 112 366 112 382 c 0,41,42
 112 396 112 396 101 401 c 128,-1,43
 90 406 90 406 58 407 c 1,44,-1
 58 434 l 1,45,46
 150 437 150 437 258 461 c 1,47,-1
 194 263 l 1,0,1
EndSplineSet
EndChar

StartChar: o
Encoding: 111 111 82
Width: 474
GlyphClass: 2
Flags: W
AnchorPoint: "Anchor-4" 217 0 basechar 0
AnchorPoint: "Anchor-3" 188 0 basechar 0
AnchorPoint: "Anchor-2" 311 449 basechar 0
AnchorPoint: "Anchor-1" 250 237 basechar 0
AnchorPoint: "Anchor-0" 360 462 basechar 0
LayerCount: 2
Fore
SplineSet
312 462 m 0,0,1
 380 462 380 462 424.5 419.5 c 128,-1,2
 469 377 469 377 469 311 c 0,3,4
 469 184 469 184 382.5 85.5 c 128,-1,5
 296 -13 296 -13 184 -13 c 0,6,7
 115 -13 115 -13 70 29 c 128,-1,8
 25 71 25 71 25 135 c 0,9,10
 25 261 25 261 113.5 361.5 c 128,-1,11
 202 462 202 462 312 462 c 0,0,1
193 16 m 0,12,13
 230 16 230 16 262 62 c 128,-1,14
 294 108 294 108 312 171.5 c 128,-1,15
 330 235 330 235 340 290.5 c 128,-1,16
 350 346 350 346 350 375 c 0,17,18
 350 402 350 402 337.5 417.5 c 128,-1,19
 325 433 325 433 303 433 c 0,20,21
 259 433 259 433 221 368.5 c 128,-1,22
 183 304 183 304 163.5 223.5 c 128,-1,23
 144 143 144 143 144 78 c 0,24,25
 144 50 144 50 157 33 c 128,-1,26
 170 16 170 16 193 16 c 0,12,13
EndSplineSet
EndChar

StartChar: p
Encoding: 112 112 83
Width: 482
GlyphClass: 2
Flags: W
AnchorPoint: "Anchor-3" 176 -201 basechar 0
AnchorPoint: "Anchor-2" 336 449 basechar 0
AnchorPoint: "Anchor-1" 274 237 basechar 0
AnchorPoint: "Anchor-0" 350 462 basechar 0
LayerCount: 2
Fore
SplineSet
62 407 m 1,0,-1
 62 434 l 1,1,2
 117 440 117 440 255 462 c 1,3,-1
 217 347 l 1,4,5
 261 409 261 409 297.5 435.5 c 128,-1,6
 334 462 334 462 377 462 c 0,7,8
 427 462 427 462 456 429 c 128,-1,9
 485 396 485 396 485 341 c 0,10,11
 485 211 485 211 397 99 c 128,-1,12
 309 -13 309 -13 208 -13 c 0,13,14
 183 -13 183 -13 140 9 c 1,15,-1
 128 -32 l 1,16,17
 103 -126 103 -126 103 -145 c 0,18,19
 103 -163 103 -163 117 -170 c 128,-1,20
 131 -177 131 -177 168 -178 c 1,21,-1
 168 -205 l 1,22,-1
 -81 -205 l 1,23,-1
 -81 -178 l 1,24,-1
 -75 -178 l 2,25,26
 -44 -178 -44 -178 -31 -164 c 128,-1,27
 -18 -150 -18 -150 -6 -104 c 2,28,-1
 94 284 l 2,29,30
 116 367 116 367 116 382 c 0,31,32
 116 396 116 396 106 400.5 c 128,-1,33
 96 405 96 405 62 407 c 1,0,-1
360 340 m 0,34,35
 360 363 360 363 348.5 377 c 128,-1,36
 337 391 337 391 318 391 c 0,37,38
 305 391 305 391 292.5 386 c 128,-1,39
 280 381 280 381 270 370.5 c 128,-1,40
 260 360 260 360 251 349.5 c 128,-1,41
 242 339 242 339 234 322 c 128,-1,42
 226 305 226 305 220 293.5 c 128,-1,43
 214 282 214 282 208 263.5 c 128,-1,44
 202 245 202 245 199 236.5 c 128,-1,45
 196 228 196 228 191.5 212 c 128,-1,46
 187 196 187 196 187 195 c 0,47,48
 152 77 152 77 152 58 c 0,49,50
 152 43 152 43 163.5 32.5 c 128,-1,51
 175 22 175 22 191 22 c 0,52,53
 227 22 227 22 260 62.5 c 128,-1,54
 293 103 293 103 314 157.5 c 128,-1,55
 335 212 335 212 347.5 263 c 128,-1,56
 360 314 360 314 360 340 c 0,34,35
EndSplineSet
EndChar

StartChar: q
Encoding: 113 113 84
Width: 496
GlyphClass: 2
Flags: W
AnchorPoint: "Anchor-3" 86 -201 basechar 0
AnchorPoint: "Anchor-2" 302 449 basechar 0
AnchorPoint: "Anchor-1" 238 237 basechar 0
AnchorPoint: "Anchor-0" 378 462 basechar 0
LayerCount: 2
Fore
SplineSet
295 462 m 0,0,1
 316 462 316 462 329.5 456.5 c 128,-1,2
 343 451 343 451 350 438.5 c 128,-1,3
 357 426 357 426 360 416.5 c 128,-1,4
 363 407 363 407 366 390 c 1,5,-1
 381 449 l 1,6,-1
 490 449 l 1,7,8
 427 216 427 216 405 145 c 0,9,10
 325 -122 325 -122 325 -150 c 128,-1,11
 325 -178 325 -178 376 -178 c 2,12,-1
 390 -178 l 1,13,-1
 390 -205 l 1,14,-1
 123 -205 l 1,15,-1
 123 -178 l 1,16,17
 170 -176 170 -176 186 -165 c 128,-1,18
 202 -154 202 -154 213 -115 c 2,19,-1
 276 98 l 1,20,21
 237 37 237 37 203 12 c 128,-1,22
 169 -13 169 -13 124 -13 c 0,23,24
 76 -13 76 -13 48 22 c 128,-1,25
 20 57 20 57 20 117 c 0,26,27
 20 190 20 190 60 270.5 c 128,-1,28
 100 351 100 351 165.5 406.5 c 128,-1,29
 231 462 231 462 295 462 c 0,0,1
344 371 m 0,30,31
 344 396 344 396 332.5 407.5 c 128,-1,32
 321 419 321 419 306 419 c 0,33,34
 273 419 273 419 234.5 365 c 128,-1,35
 196 311 196 311 170.5 239 c 128,-1,36
 145 167 145 167 145 116 c 0,37,38
 145 59 145 59 184 59 c 0,39,40
 227 59 227 59 266.5 126 c 128,-1,41
 306 193 306 193 325 264 c 128,-1,42
 344 335 344 335 344 371 c 0,30,31
EndSplineSet
EndChar

StartChar: r
Encoding: 114 114 85
Width: 400
GlyphClass: 2
Flags: W
AnchorPoint: "Anchor-3" 77 0 basechar 0
AnchorPoint: "Anchor-2" 269 449 basechar 0
AnchorPoint: "Anchor-1" 151 237 basechar 0
AnchorPoint: "Anchor-0" 290 462 basechar 0
LayerCount: 2
Fore
SplineSet
361 323 m 0,0,1
 341 323 341 323 322.5 342 c 128,-1,2
 304 361 304 361 301 361 c 0,3,4
 279 361 279 361 241 293.5 c 128,-1,5
 203 226 203 226 164 104 c 0,6,7
 160 89 160 89 131 0 c 1,8,-1
 10 0 l 1,9,10
 112 344 112 344 112 382 c 0,11,12
 112 396 112 396 102 400.5 c 128,-1,13
 92 405 92 405 58 407 c 1,14,-1
 58 434 l 1,15,16
 189 445 189 445 258 462 c 1,17,-1
 192 253 l 1,18,19
 251 372 251 372 288 417 c 128,-1,20
 325 462 325 462 363 462 c 0,21,22
 389 462 389 462 404.5 444 c 128,-1,23
 420 426 420 426 420 396 c 0,24,25
 420 364 420 364 403 343.5 c 128,-1,26
 386 323 386 323 361 323 c 0,0,1
EndSplineSet
EndChar

StartChar: s
Encoding: 115 115 86
Width: 356
GlyphClass: 2
Flags: W
AnchorPoint: "Anchor-3" 151 0 basechar 0
AnchorPoint: "Anchor-2" 224 449 basechar 0
AnchorPoint: "Anchor-1" 175 237 basechar 0
AnchorPoint: "Anchor-0" 230 462 basechar 0
LayerCount: 2
Fore
SplineSet
200 462 m 0,0,1
 222 462 222 462 253.5 451 c 128,-1,2
 285 440 285 440 294 440 c 0,3,4
 305 440 305 440 310 443.5 c 128,-1,5
 315 447 315 447 323 461 c 1,6,-1
 352 461 l 1,7,-1
 329 308 l 1,8,-1
 302 310 l 1,9,10
 290 372 290 372 269 400.5 c 128,-1,11
 248 429 248 429 214 429 c 0,12,13
 190 429 190 429 175.5 414.5 c 128,-1,14
 161 400 161 400 161 376 c 0,15,16
 161 355 161 355 182.5 323.5 c 128,-1,17
 204 292 204 292 229.5 263 c 128,-1,18
 255 234 255 234 276.5 194 c 128,-1,19
 298 154 298 154 298 119 c 0,20,21
 298 63 298 63 255.5 25 c 128,-1,22
 213 -13 213 -13 150 -13 c 0,23,24
 124 -13 124 -13 93.5 -3 c 128,-1,25
 63 7 63 7 56 7 c 0,26,27
 34 7 34 7 27 -13 c 1,28,-1
 0 -13 l 1,29,-1
 22 153 l 1,30,-1
 49 150 l 1,31,32
 70 17 70 17 145 17 c 0,33,34
 169 17 169 17 185.5 32.5 c 128,-1,35
 202 48 202 48 202 71 c 0,36,37
 202 95 202 95 181 127 c 128,-1,38
 160 159 160 159 134 187.5 c 128,-1,39
 108 216 108 216 87 256.5 c 128,-1,40
 66 297 66 297 66 336 c 0,41,42
 66 393 66 393 102.5 427.5 c 128,-1,43
 139 462 139 462 200 462 c 0,0,1
EndSplineSet
Substitution2: "'hist' Historical Forms in Latin lookup 7 subtable" longs
EndChar

StartChar: t
Encoding: 116 116 87
Width: 286
GlyphClass: 2
Flags: W
AnchorPoint: "Anchor-3" 102 0 basechar 0
AnchorPoint: "Anchor-2" 274 593 basechar 0
AnchorPoint: "Anchor-1" 164 237 basechar 0
AnchorPoint: "Anchor-0" 321 462 basechar 0
LayerCount: 2
Fore
SplineSet
324 449 m 1,0,-1
 324 407 l 1,1,-1
 241 407 l 1,2,-1
 208 289 l 2,3,4
 154 96 154 96 154 76 c 0,5,6
 154 71 154 71 159 66 c 128,-1,7
 164 61 164 61 170 61 c 0,8,9
 195 61 195 61 246 141 c 1,10,-1
 268 127 l 1,11,12
 218 50 218 50 182.5 20.5 c 128,-1,13
 147 -9 147 -9 102 -9 c 0,14,15
 70 -9 70 -9 51 9 c 128,-1,16
 32 27 32 27 32 56 c 0,17,18
 32 87 32 87 56 169 c 2,19,-1
 124 407 l 1,20,-1
 73 407 l 1,21,-1
 73 442 l 1,22,23
 132 465 132 465 174 499 c 128,-1,24
 216 533 216 533 256 594 c 1,25,-1
 291 594 l 1,26,-1
 252 449 l 1,27,-1
 324 449 l 1,0,-1
EndSplineSet
EndChar

StartChar: u
Encoding: 117 117 88
Width: 530
GlyphClass: 2
Flags: W
AnchorPoint: "Anchor-4" 358 0 basechar 0
AnchorPoint: "Anchor-3" 181 0 basechar 0
AnchorPoint: "Anchor-2" 319 449 basechar 0
AnchorPoint: "Anchor-1" 260 237 basechar 0
AnchorPoint: "Anchor-0" 410 462 basechar 0
LayerCount: 2
Fore
SplineSet
491 133 m 1,0,-1
 512 120 l 1,1,2
 437 -9 437 -9 351 -9 c 0,3,4
 286 -9 286 -9 286 51 c 0,5,6
 286 88 286 88 310 161 c 1,7,8
 233 53 233 53 196.5 22 c 128,-1,9
 160 -9 160 -9 110 -9 c 0,10,11
 35 -9 35 -9 35 65 c 0,12,13
 35 101 35 101 56 173 c 2,14,-1
 96 306 l 2,15,16
 110 351 110 351 110 379 c 0,17,18
 110 394 110 394 99 399.5 c 128,-1,19
 88 405 88 405 54 407 c 1,20,-1
 54 434 l 1,21,22
 114 436 114 436 263 462 c 1,23,-1
 169 154 l 2,24,25
 154 104 154 104 154 88 c 0,26,27
 154 63 154 63 175 63 c 0,28,29
 203 63 203 63 248 118 c 0,30,31
 291 172 291 172 319.5 238.5 c 128,-1,32
 348 305 348 305 390 449 c 1,33,-1
 508 449 l 1,34,-1
 430 181 l 2,35,36
 405 95 405 95 405 80 c 2,37,38
 405 80 405 80 405 78.5 c 128,-1,39
 405 77 405 77 405 76 c 0,40,41
 405 59 405 59 419 59 c 0,42,43
 442 59 442 59 491 133 c 1,0,-1
EndSplineSet
EndChar

StartChar: v
Encoding: 118 118 89
Width: 439
GlyphClass: 2
Flags: W
AnchorPoint: "Anchor-3" 141 0 basechar 0
AnchorPoint: "Anchor-2" 311 449 basechar 0
AnchorPoint: "Anchor-1" 261 237 basechar 0
AnchorPoint: "Anchor-0" 310 462 basechar 0
LayerCount: 2
Fore
SplineSet
128 164 m 0,0,1
 128 235 128 235 124 282.5 c 128,-1,2
 120 330 120 330 115 354.5 c 128,-1,3
 110 379 110 379 98.5 391 c 128,-1,4
 87 403 87 403 79 405 c 128,-1,5
 71 407 71 407 54 407 c 1,6,-1
 54 434 l 1,7,8
 153 448 153 448 209 462 c 1,9,10
 225 401 225 401 231 337 c 128,-1,11
 237 273 237 273 240 128 c 1,12,13
 314 212 314 212 340 251 c 128,-1,14
 366 290 366 290 366 316 c 0,15,16
 366 327 366 327 344 355.5 c 128,-1,17
 322 384 322 384 322 404 c 0,18,19
 322 427 322 427 339 444.5 c 128,-1,20
 356 462 356 462 378 462 c 0,21,22
 401 462 401 462 420 441.5 c 128,-1,23
 439 421 439 421 439 395 c 0,24,25
 439 328 439 328 372 231.5 c 128,-1,26
 305 135 305 135 149 -13 c 1,27,-1
 123 -13 l 1,28,-1
 127 123 l 2,29,30
 128 144 128 144 128 164 c 0,0,1
EndSplineSet
EndChar

StartChar: w
Encoding: 119 119 90
Width: 652
GlyphClass: 2
Flags: W
AnchorPoint: "Anchor-3" 263 0 basechar 0
AnchorPoint: "Anchor-2" 407 449 basechar 0
AnchorPoint: "Anchor-1" 338 237 basechar 0
AnchorPoint: "Anchor-0" 540 462 basechar 0
LayerCount: 2
Fore
SplineSet
576 311 m 0,0,1
 576 324 576 324 555.5 354 c 128,-1,2
 535 384 535 384 535 402 c 0,3,4
 535 426 535 426 552 444 c 128,-1,5
 569 462 569 462 591 462 c 0,6,7
 615 462 615 462 633.5 443.5 c 128,-1,8
 652 425 652 425 652 400 c 0,9,10
 652 275 652 275 380 -13 c 1,11,-1
 353 -13 l 1,12,-1
 330 272 l 1,13,-1
 311 237 l 1,14,15
 227 87 227 87 217 73 c 2,16,-1
 160 -13 l 1,17,-1
 133 -13 l 1,18,19
 133 8 133 8 133.5 25.5 c 128,-1,20
 134 43 134 43 134.5 51 c 128,-1,21
 135 59 135 59 135 66 c 0,22,23
 135 75 135 75 133 150 c 0,24,25
 128 370 128 370 96 399 c 0,26,27
 87 407 87 407 54 407 c 1,28,-1
 54 434 l 1,29,30
 173 454 173 454 209 462 c 1,31,32
 238 354 238 354 242 187 c 1,33,-1
 398 462 l 1,34,-1
 425 462 l 1,35,-1
 457 130 l 1,36,37
 576 270 576 270 576 311 c 0,0,1
EndSplineSet
EndChar

StartChar: x
Encoding: 120 120 91
Width: 476
GlyphClass: 2
Flags: W
AnchorPoint: "Anchor-3" 181 0 basechar 0
AnchorPoint: "Anchor-2" 321 449 basechar 0
AnchorPoint: "Anchor-1" 246 237 basechar 0
AnchorPoint: "Anchor-0" 360 462 basechar 0
LayerCount: 2
Fore
SplineSet
429 348 m 0,0,1
 418 348 418 348 398 358 c 128,-1,2
 378 368 378 368 372 368 c 0,3,4
 358 368 358 368 343 355.5 c 128,-1,5
 328 343 328 343 318 330 c 128,-1,6
 308 317 308 317 295.5 297 c 128,-1,7
 283 277 283 277 280 273 c 1,8,-1
 312 117 l 2,9,10
 323 64 323 64 349 64 c 0,11,12
 362 64 362 64 374.5 74.5 c 128,-1,13
 387 85 387 85 416 123 c 1,14,-1
 437 109 l 1,15,16
 391 43 391 43 356.5 15 c 128,-1,17
 322 -13 322 -13 286 -13 c 0,18,19
 246 -13 246 -13 225.5 24.5 c 128,-1,20
 205 62 205 62 189 142 c 1,21,-1
 165 103 l 1,22,23
 122 31 122 31 97 9 c 128,-1,24
 72 -13 72 -13 34 -13 c 0,25,26
 6 -13 6 -13 -12 3.5 c 128,-1,27
 -30 20 -30 20 -30 46 c 0,28,29
 -30 69 -30 69 -14 85.5 c 128,-1,30
 2 102 2 102 25 102 c 0,31,32
 40 102 40 102 60 91.5 c 128,-1,33
 80 81 80 81 86 81 c 0,34,35
 99 81 99 81 109 89.5 c 128,-1,36
 119 98 119 98 134 122 c 2,37,-1
 178 192 l 1,38,-1
 148 346 l 2,39,40
 140 383 140 383 128 398 c 128,-1,41
 116 413 116 413 92 413 c 0,42,43
 78 413 78 413 57 411 c 1,44,-1
 57 438 l 1,45,-1
 224 462 l 1,46,47
 247 428 247 428 269 324 c 1,48,49
 329 407 329 407 360.5 434.5 c 128,-1,50
 392 462 392 462 427 462 c 0,51,52
 450 462 450 462 467.5 443.5 c 128,-1,53
 485 425 485 425 485 400 c 0,54,55
 485 379 485 379 468.5 363.5 c 128,-1,56
 452 348 452 348 429 348 c 0,0,1
EndSplineSet
EndChar

StartChar: y
Encoding: 121 121 92
Width: 433
GlyphClass: 2
Flags: W
AnchorPoint: "Anchor-4" 304 0 basechar 0 {150-150 9} {}
AnchorPoint: "Anchor-3" 325 0 basechar 0
AnchorPoint: "Anchor-2" 296 449 basechar 0
AnchorPoint: "Anchor-1" 249 237 basechar 0
AnchorPoint: "Anchor-0" 300 462 basechar 0
LayerCount: 2
Fore
SplineSet
91 -125 m 0,0,1
 118 -125 118 -125 150.5 -83 c 128,-1,2
 183 -41 183 -41 183 -4 c 0,3,4
 183 51 183 51 147 221 c 128,-1,5
 111 391 111 391 85 406 c 0,6,7
 76 411 76 411 55 411 c 1,8,-1
 55 438 l 1,9,10
 139 446 139 446 204 462 c 1,11,12
 241 365 241 365 270 185 c 2,13,-1
 282 110 l 1,14,15
 334 210 334 210 351.5 251.5 c 128,-1,16
 369 293 369 293 369 315 c 0,17,18
 369 327 369 327 360.5 337 c 128,-1,19
 352 347 352 347 341.5 352.5 c 128,-1,20
 331 358 331 358 322.5 371.5 c 128,-1,21
 314 385 314 385 314 404 c 0,22,23
 314 427 314 427 331 444.5 c 128,-1,24
 348 462 348 462 371 462 c 0,25,26
 396 462 396 462 414.5 443 c 128,-1,27
 433 424 433 424 433 398 c 0,28,29
 433 352 433 352 392.5 253 c 128,-1,30
 352 154 352 154 292.5 51.5 c 128,-1,31
 233 -51 233 -51 154 -128 c 128,-1,32
 75 -205 75 -205 9 -205 c 0,33,34
 -17 -205 -17 -205 -35 -187.5 c 128,-1,35
 -53 -170 -53 -170 -53 -145 c 0,36,37
 -53 -123 -53 -123 -38 -106.5 c 128,-1,38
 -23 -90 -23 -90 -3 -90 c 0,39,40
 19 -90 19 -90 51 -107.5 c 128,-1,41
 83 -125 83 -125 91 -125 c 0,0,1
EndSplineSet
EndChar

StartChar: z
Encoding: 122 122 93
Width: 410
GlyphClass: 2
Flags: W
AnchorPoint: "Anchor-3" 191 0 basechar 0
AnchorPoint: "Anchor-2" 258 449 basechar 0
AnchorPoint: "Anchor-1" 218 237 basechar 0
AnchorPoint: "Anchor-0" 270 462 basechar 0
LayerCount: 2
Fore
SplineSet
77 5 m 0,0,1
 63 5 63 5 25 -23 c 1,2,-1
 0 -1 l 1,3,-1
 292 353 l 1,4,-1
 147 353 l 2,5,6
 124 353 124 353 110.5 339.5 c 128,-1,7
 97 326 97 326 84 292 c 1,8,-1
 56 295 l 1,9,-1
 99 449 l 1,10,-1
 411 449 l 1,11,-1
 411 439 l 1,12,-1
 130 104 l 1,13,14
 171 86 171 86 197.5 58 c 128,-1,15
 224 30 224 30 232.5 7.5 c 128,-1,16
 241 -15 241 -15 253.5 -32 c 128,-1,17
 266 -49 266 -49 284 -49 c 0,18,19
 293 -49 293 -49 299.5 -44.5 c 128,-1,20
 306 -40 306 -40 306 -33 c 0,21,22
 306 -29 306 -29 296 -14 c 128,-1,23
 286 1 286 1 286 13 c 0,24,25
 286 34 286 34 301 49.5 c 128,-1,26
 316 65 316 65 336 65 c 0,27,28
 357 65 357 65 373 49.5 c 128,-1,29
 389 34 389 34 389 13 c 0,30,31
 389 -25 389 -25 358 -51.5 c 128,-1,32
 327 -78 327 -78 281 -78 c 0,33,34
 243 -78 243 -78 202 -57 c 128,-1,35
 161 -36 161 -36 128 -15.5 c 128,-1,36
 95 5 95 5 77 5 c 0,0,1
EndSplineSet
EndChar

StartChar: braceleft
Encoding: 123 123 94
Width: 348
GlyphClass: 2
Flags: W
LayerCount: 2
Fore
SplineSet
28 -96 m 0,0,1
 28 -56 28 -56 58.5 48 c 128,-1,2
 89 152 89 152 89 179 c 0,3,4
 89 205 89 205 70 221 c 128,-1,5
 51 237 51 237 5 249 c 1,6,7
 72 263 72 263 100 287 c 128,-1,8
 128 311 128 311 142 365 c 2,9,-1
 188 544 l 2,10,11
 209 626 209 626 262.5 656 c 128,-1,12
 316 686 316 686 436 686 c 1,13,-1
 433 674 l 1,14,15
 372 663 372 663 341 635 c 128,-1,16
 310 607 310 607 295 550 c 2,17,-1
 250 379 l 2,18,19
 233 315 233 315 202.5 289 c 128,-1,20
 172 263 172 263 99 249 c 1,21,22
 155 234 155 234 173 219 c 128,-1,23
 191 204 191 204 191 173 c 0,24,25
 191 145 191 145 161.5 40.5 c 128,-1,26
 132 -64 132 -64 132 -97 c 0,27,28
 132 -131 132 -131 150.5 -149 c 128,-1,29
 169 -167 169 -167 213 -175 c 1,30,-1
 210 -187 l 1,31,32
 114 -185 114 -185 71 -167.5 c 128,-1,33
 28 -150 28 -150 28 -96 c 0,0,1
EndSplineSet
EndChar

StartChar: bar
Encoding: 124 124 95
Width: 270
GlyphClass: 2
Flags: W
LayerCount: 2
Fore
SplineSet
116 -18 m 1,0,-1
 116 685 l 1,1,-1
 204 685 l 1,2,-1
 204 -18 l 1,3,-1
 116 -18 l 1,0,-1
EndSplineSet
EndChar

StartChar: braceright
Encoding: 125 125 96
Width: 348
GlyphClass: 2
Flags: W
LayerCount: 2
Fore
SplineSet
279 598 m 0,0,1
 279 556 279 556 248.5 452 c 128,-1,2
 218 348 218 348 218 320 c 0,3,4
 218 294 218 294 237 278 c 128,-1,5
 256 262 256 262 302 250 c 1,6,7
 235 235 235 235 207 211.5 c 128,-1,8
 179 188 179 188 165 134 c 2,9,-1
 119 -45 l 1,10,11
 96 -127 96 -127 43 -157 c 128,-1,12
 -10 -187 -10 -187 -129 -187 c 1,13,-1
 -126 -175 l 1,14,15
 -65 -164 -65 -164 -34 -136 c 128,-1,16
 -3 -108 -3 -108 12 -51 c 2,17,-1
 57 120 l 2,18,19
 74 184 74 184 104.5 210 c 128,-1,20
 135 236 135 236 208 250 c 1,21,22
 152 265 152 265 134 280 c 128,-1,23
 116 295 116 295 116 326 c 0,24,25
 116 355 116 355 145.5 461 c 128,-1,26
 175 567 175 567 175 597 c 0,27,28
 175 630 175 630 156 648 c 128,-1,29
 137 666 137 666 94 674 c 1,30,-1
 97 686 l 1,31,32
 189 684 189 684 234 667 c 128,-1,33
 279 650 279 650 279 598 c 0,0,1
EndSplineSet
EndChar

StartChar: asciitilde
Encoding: 126 126 97
Width: 570
GlyphClass: 2
Flags: W
LayerCount: 2
Fore
SplineSet
175 331 m 0,0,1
 218 331 218 331 295.5 297 c 128,-1,2
 373 263 373 263 393 263 c 0,3,4
 426 263 426 263 461 308 c 1,5,-1
 516 260 l 1,6,7
 481 213 481 213 454 194 c 128,-1,8
 427 175 427 175 393 175 c 0,9,10
 350 175 350 175 286 209 c 128,-1,11
 222 243 222 243 176 243 c 0,12,13
 154 243 154 243 139.5 234 c 128,-1,14
 125 225 125 225 107 201 c 1,15,-1
 54 247 l 1,16,17
 102 331 102 331 175 331 c 0,0,1
EndSplineSet
EndChar

StartChar: cent
Encoding: 162 162 100
Width: 410
GlyphClass: 2
Flags: W
LayerCount: 2
Fore
SplineSet
402 576 m 1,0,-1
 357 449 l 1,1,2
 410 420 410 420 410 370 c 0,3,4
 410 341 410 341 391.5 321.5 c 128,-1,5
 373 302 373 302 345 302 c 0,6,7
 326 302 326 302 310 313 c 1,8,-1
 218 52 l 1,9,10
 277 55 277 55 336 141 c 1,11,-1
 363 123 l 1,12,13
 316 55 316 55 281 27.5 c 128,-1,14
 246 0 246 0 196 -10 c 1,15,-1
 149 -143 l 1,16,-1
 115 -143 l 1,17,-1
 161 -13 l 1,18,19
 90 -8 90 -8 51.5 31.5 c 128,-1,20
 13 71 13 71 13 138 c 0,21,22
 13 259 13 259 102.5 360.5 c 128,-1,23
 192 462 192 462 298 462 c 0,24,25
 308 462 308 462 326 459 c 1,26,-1
 367 576 l 1,27,-1
 402 576 l 1,0,-1
288 429 m 0,28,29
 255 429 255 429 226 394 c 128,-1,30
 197 359 197 359 179 311 c 128,-1,31
 161 263 161 263 150.5 218 c 128,-1,32
 140 173 140 173 140 147 c 0,33,34
 140 82 140 82 185 57 c 1,35,-1
 310 413 l 1,36,-1
 310 416 l 2,37,38
 310 429 310 429 288 429 c 0,28,29
EndSplineSet
EndChar

StartChar: sterling
Encoding: 163 163 101
Width: 522
GlyphClass: 2
Flags: W
LayerCount: 2
Fore
SplineSet
436 575 m 0,0,1
 436 587 436 587 439.5 605.5 c 128,-1,2
 443 624 443 624 443 628 c 0,3,4
 443 637 443 637 436 643 c 128,-1,5
 429 649 429 649 419 649 c 0,6,7
 374 649 374 649 359 572 c 2,8,-1
 320 370 l 1,9,-1
 434 370 l 1,10,-1
 424 310 l 1,11,-1
 309 310 l 1,12,13
 287 210 287 210 245 141 c 1,14,-1
 234 124 l 1,15,16
 317 92 317 92 359 92 c 0,17,18
 395 92 395 92 413.5 105 c 128,-1,19
 432 118 432 118 449 155 c 1,20,-1
 474 155 l 1,21,22
 439 -12 439 -12 323 -12 c 0,23,24
 266 -12 266 -12 196 49 c 1,25,26
 158 -11 158 -11 98 -11 c 0,27,28
 58 -11 58 -11 33 13 c 128,-1,29
 8 37 8 37 8 75 c 0,30,31
 8 114 8 114 34.5 138 c 128,-1,32
 61 162 61 162 104 162 c 0,33,34
 133 162 133 162 165 148 c 1,35,36
 167 168 167 168 184 310 c 1,37,-1
 75 310 l 1,38,-1
 85 370 l 1,39,-1
 190 370 l 1,40,41
 254 683 254 683 441 683 c 0,42,43
 488 683 488 683 519 657 c 128,-1,44
 550 631 550 631 550 592 c 0,45,46
 550 564 550 564 532.5 544 c 128,-1,47
 515 524 515 524 489 524 c 0,48,49
 466 524 466 524 451 538.5 c 128,-1,50
 436 553 436 553 436 575 c 0,0,1
153 90 m 1,51,52
 122 120 122 120 89 120 c 0,53,54
 66 120 66 120 52 106.5 c 128,-1,55
 38 93 38 93 38 70 c 128,-1,56
 38 47 38 47 53.5 33 c 128,-1,57
 69 19 69 19 94 19 c 0,58,59
 137 19 137 19 153 90 c 1,51,52
EndSplineSet
EndChar

StartChar: currency
Encoding: 164 164 102
Width: 560
GlyphClass: 2
Flags: W
LayerCount: 2
Fore
SplineSet
74 92 m 1,0,-1
 172 190 l 1,1,2
 135 244 135 244 135 310 c 128,-1,3
 135 376 135 376 172 432 c 1,4,-1
 74 530 l 1,5,-1
 132 586 l 1,6,-1
 228 490 l 1,7,8
 284 525 284 525 350 525 c 128,-1,9
 416 525 416 525 472 490 c 1,10,-1
 568 586 l 1,11,-1
 626 530 l 1,12,-1
 528 432 l 1,13,14
 565 373 565 373 565 310 c 0,15,16
 565 241 565 241 528 190 c 1,17,-1
 626 92 l 1,18,-1
 568 34 l 1,19,-1
 472 132 l 1,20,21
 414 95 414 95 350 95 c 128,-1,22
 286 95 286 95 228 132 c 1,23,-1
 132 34 l 1,24,-1
 74 92 l 1,0,-1
350 443 m 128,-1,26
 297 443 297 443 260 404.5 c 128,-1,27
 223 366 223 366 223 310 c 128,-1,28
 223 254 223 254 260 215.5 c 128,-1,29
 297 177 297 177 350 177 c 0,30,31
 402 177 402 177 439.5 216 c 128,-1,32
 477 255 477 255 477 308 c 0,33,34
 477 364 477 364 440 403.5 c 128,-1,25
 403 443 403 443 350 443 c 128,-1,26
EndSplineSet
EndChar

StartChar: yen
Encoding: 165 165 103
Width: 645
GlyphClass: 2
Flags: W
LayerCount: 2
Fore
SplineSet
596 342 m 1,0,-1
 583 292 l 1,1,-1
 433 292 l 1,2,-1
 412 214 l 1,3,-1
 564 214 l 1,4,-1
 550 164 l 1,5,-1
 398 164 l 1,6,-1
 395 153 l 2,7,8
 379 96 379 96 379 68 c 0,9,10
 379 44 379 44 394.5 35.5 c 128,-1,11
 410 27 410 27 460 25 c 1,12,-1
 460 0 l 1,13,-1
 138 0 l 1,14,-1
 138 25 l 1,15,16
 196 29 196 29 215.5 41.5 c 128,-1,17
 235 54 235 54 247 97 c 2,18,-1
 266 164 l 1,19,-1
 125 164 l 1,20,-1
 139 214 l 1,21,-1
 280 214 l 1,22,-1
 302 292 l 1,23,-1
 160 292 l 1,24,-1
 174 342 l 1,25,-1
 299 342 l 1,26,-1
 220 581 l 1,27,28
 205 619 205 619 192 629.5 c 128,-1,29
 179 640 179 640 138 644 c 1,30,-1
 138 669 l 1,31,-1
 418 669 l 1,32,-1
 418 644 l 1,33,34
 375 642 375 642 359 635.5 c 128,-1,35
 343 629 343 629 343 612 c 0,36,37
 343 598 343 598 349 580 c 2,38,-1
 429 344 l 1,39,-1
 564 538 l 2,40,41
 590 576 590 576 590 598 c 0,42,43
 590 624 590 624 576 633 c 128,-1,44
 562 642 562 642 520 644 c 1,45,-1
 520 669 l 1,46,-1
 720 669 l 1,47,-1
 720 644 l 1,48,49
 690 638 690 638 670.5 624 c 128,-1,50
 651 610 651 610 627 575 c 2,51,-1
 461 342 l 1,52,-1
 596 342 l 1,0,-1
EndSplineSet
EndChar

StartChar: brokenbar
Encoding: 166 166 104
Width: 220
GlyphClass: 2
Flags: W
LayerCount: 2
Fore
SplineSet
66 -18 m 1,0,-1
 66 241 l 1,1,-1
 154 241 l 1,2,-1
 154 -18 l 1,3,-1
 66 -18 l 1,0,-1
66 426 m 1,4,-1
 66 685 l 1,5,-1
 154 685 l 1,6,-1
 154 426 l 1,7,-1
 66 426 l 1,4,-1
EndSplineSet
EndChar

StartChar: section
Encoding: 167 167 105
Width: 500
GlyphClass: 2
Flags: W
LayerCount: 2
Fore
SplineSet
346 580 m 0,0,1
 346 598 346 598 364 614.5 c 128,-1,2
 382 631 382 631 382 635 c 0,3,4
 382 646 382 646 364 654.5 c 128,-1,5
 346 663 346 663 323 663 c 0,6,7
 286 663 286 663 262 642.5 c 128,-1,8
 238 622 238 622 238 590 c 0,9,10
 238 547 238 547 306 467 c 2,11,-1
 375 386 l 2,12,13
 435 315 435 315 435 243 c 0,14,15
 435 193 435 193 400.5 157 c 128,-1,16
 366 121 366 121 318 121 c 0,17,18
 304 121 304 121 288 125 c 1,19,-1
 286 121 l 1,20,21
 345 47 345 47 345 -9 c 128,-1,22
 345 -65 345 -65 297.5 -104 c 128,-1,23
 250 -143 250 -143 181 -143 c 0,24,25
 120 -143 120 -143 78 -112.5 c 128,-1,26
 36 -82 36 -82 36 -38 c 0,27,28
 36 -12 36 -12 52.5 5 c 128,-1,29
 69 22 69 22 94 22 c 0,30,31
 118 22 118 22 134 8 c 128,-1,32
 150 -6 150 -6 150 -28 c 0,33,34
 150 -46 150 -46 141 -58.5 c 128,-1,35
 132 -71 132 -71 123.5 -78 c 128,-1,36
 115 -85 115 -85 115 -91 c 0,37,38
 115 -102 115 -102 135.5 -111 c 128,-1,39
 156 -120 156 -120 182 -120 c 0,40,41
 219 -120 219 -120 243.5 -98.5 c 128,-1,42
 268 -77 268 -77 268 -44 c 0,43,44
 268 -19 268 -19 253 5.5 c 128,-1,45
 238 30 238 30 185 95 c 2,46,-1
 119 175 l 2,47,48
 68 236 68 236 68 299 c 0,49,50
 68 351 68 351 98.5 388 c 128,-1,51
 129 425 129 425 172 425 c 0,52,53
 197 425 197 425 221 419 c 1,54,-1
 223 422 l 1,55,56
 168 483 168 483 168 551 c 0,57,58
 168 610 168 610 211.5 647.5 c 128,-1,59
 255 685 255 685 323 685 c 0,60,61
 382 685 382 685 420.5 657.5 c 128,-1,62
 459 630 459 630 459 587 c 0,63,64
 459 561 459 561 442.5 543.5 c 128,-1,65
 426 526 426 526 401 526 c 0,66,67
 379 526 379 526 362.5 542 c 128,-1,68
 346 558 346 558 346 580 c 0,0,1
139 342 m 0,69,70
 139 302 139 302 198 225 c 128,-1,71
 257 148 257 148 305 148 c 0,72,73
 328 148 328 148 346 165.5 c 128,-1,74
 364 183 364 183 364 206 c 0,75,76
 364 256 364 256 301.5 328 c 128,-1,77
 239 400 239 400 195 400 c 0,78,79
 172 400 172 400 155.5 383 c 128,-1,80
 139 366 139 366 139 342 c 0,69,70
EndSplineSet
EndChar

StartChar: copyright
Encoding: 169 169 107
Width: 747
GlyphClass: 2
Flags: W
LayerCount: 2
Fore
SplineSet
405 538 m 0,0,1
 445 538 445 538 486 526.5 c 128,-1,2
 527 515 527 515 527 499 c 2,3,-1
 527 428 l 1,4,-1
 510 428 l 1,5,6
 490 518 490 518 400 518 c 0,7,8
 336 518 336 518 300.5 472 c 128,-1,9
 265 426 265 426 265 342 c 0,10,11
 265 256 265 256 301 209.5 c 128,-1,12
 337 163 337 163 403 163 c 0,13,14
 446 163 446 163 475 183.5 c 128,-1,15
 504 204 504 204 526 250 c 1,16,-1
 544 250 l 1,17,-1
 527 178 l 2,18,19
 525 167 525 167 515 164 c 1,20,21
 459 140 459 140 396 140 c 0,22,23
 295 140 295 140 237.5 192 c 128,-1,24
 180 244 180 244 180 335 c 0,25,26
 180 427 180 427 241.5 482.5 c 128,-1,27
 303 538 303 538 405 538 c 0,0,1
374 685 m 128,-1,29
 518 685 518 685 618 583 c 128,-1,30
 718 481 718 481 718 334 c 0,31,32
 718 184 718 184 618 83 c 128,-1,33
 518 -18 518 -18 369 -18 c 0,34,35
 229 -18 229 -18 129.5 84.5 c 128,-1,36
 30 187 30 187 30 332 c 0,37,38
 30 480 30 480 130 582.5 c 128,-1,28
 230 685 230 685 374 685 c 128,-1,29
374 639 m 128,-1,40
 258 639 258 639 174.5 549 c 128,-1,41
 91 459 91 459 91 333 c 0,42,43
 91 209 91 209 174 118.5 c 128,-1,44
 257 28 257 28 370 28 c 0,45,46
 490 28 490 28 573.5 117 c 128,-1,47
 657 206 657 206 657 334 c 0,48,49
 657 458 657 458 573.5 548.5 c 128,-1,39
 490 639 490 639 374 639 c 128,-1,40
EndSplineSet
EndChar

StartChar: ordfeminine
Encoding: 170 170 108
Width: 266
GlyphClass: 2
Flags: W
LayerCount: 2
Fore
SplineSet
321 342 m 1,0,-1
 307 256 l 1,1,-1
 61 256 l 1,2,-1
 76 342 l 1,3,-1
 321 342 l 1,0,-1
327 442 m 0,4,5
 330 442 330 442 336 446 c 128,-1,6
 342 450 342 450 348 456 c 128,-1,7
 354 462 354 462 359.5 468 c 128,-1,8
 365 474 365 474 369 479 c 2,9,-1
 373 484 l 1,10,-1
 386 475 l 1,11,12
 332 399 332 399 289 399 c 0,13,14
 272 399 272 399 258.5 410.5 c 128,-1,15
 245 422 245 422 245 437 c 0,16,17
 245 451 245 451 256 488 c 1,18,19
 228 439 228 439 203.5 419.5 c 128,-1,20
 179 400 179 400 146 400 c 0,21,22
 115 400 115 400 95.5 421 c 128,-1,23
 76 442 76 442 76 476 c 0,24,25
 76 548 76 548 135 616.5 c 128,-1,26
 194 685 194 685 256 685 c 0,27,28
 293 685 293 685 303 640 c 1,29,-1
 314 676 l 1,30,-1
 390 680 l 1,31,-1
 344 540 l 2,32,33
 322 475 322 475 322 451 c 0,34,35
 322 442 322 442 327 442 c 0,4,5
278 630 m 0,36,37
 278 646 278 646 270.5 652 c 128,-1,38
 263 658 263 658 256 658 c 0,39,40
 230 658 230 658 192 589.5 c 128,-1,41
 154 521 154 521 154 473 c 0,42,43
 154 462 154 462 161 453.5 c 128,-1,44
 168 445 168 445 178 445 c 0,45,46
 215 445 215 445 246.5 517 c 128,-1,47
 278 589 278 589 278 630 c 0,36,37
EndSplineSet
EndChar

StartChar: guillemotleft
Encoding: 171 171 109
Width: 500
GlyphClass: 2
Flags: W
LayerCount: 2
Fore
SplineSet
195 32 m 0,0,1
 193 32 193 32 190.5 34 c 128,-1,2
 188 36 188 36 182 41.5 c 128,-1,3
 176 47 176 47 168.5 55 c 128,-1,4
 161 63 161 63 146 78.5 c 128,-1,5
 131 94 131 94 114.5 111.5 c 128,-1,6
 98 129 98 129 70.5 157.5 c 128,-1,7
 43 186 43 186 12 217 c 1,8,-1
 12 226 l 1,9,-1
 182 350 l 2,10,11
 206 367 206 367 226 385 c 128,-1,12
 246 403 246 403 254.5 409 c 128,-1,13
 263 415 263 415 270 415 c 0,14,15
 275 415 275 415 279 411.5 c 128,-1,16
 283 408 283 408 283 403 c 0,17,18
 283 373 283 373 182 269 c 1,19,-1
 137 220 l 1,20,-1
 177 137 l 2,21,22
 210 70 210 70 210 47 c 0,23,24
 210 41 210 41 205.5 36.5 c 128,-1,25
 201 32 201 32 195 32 c 0,0,1
380 32 m 0,26,27
 378 32 378 32 375.5 34 c 128,-1,28
 373 36 373 36 367 41.5 c 128,-1,29
 361 47 361 47 353.5 55 c 128,-1,30
 346 63 346 63 331 78.5 c 128,-1,31
 316 94 316 94 299.5 111.5 c 128,-1,32
 283 129 283 129 255.5 157.5 c 128,-1,33
 228 186 228 186 197 217 c 1,34,-1
 197 226 l 1,35,-1
 367 350 l 2,36,37
 391 367 391 367 411 385 c 128,-1,38
 431 403 431 403 439.5 409 c 128,-1,39
 448 415 448 415 455 415 c 0,40,41
 460 415 460 415 464 411.5 c 128,-1,42
 468 408 468 408 468 403 c 0,43,44
 468 373 468 373 367 269 c 1,45,-1
 322 220 l 1,46,-1
 362 137 l 2,47,48
 395 70 395 70 395 47 c 0,49,50
 395 41 395 41 390.5 36.5 c 128,-1,51
 386 32 386 32 380 32 c 0,26,27
EndSplineSet
EndChar

StartChar: logicalnot
Encoding: 172 172 110
Width: 606
GlyphClass: 2
Flags: W
LayerCount: 2
Fore
SplineSet
467 108 m 1,0,-1
 467 311 l 1,1,-1
 51 311 l 1,2,-1
 51 399 l 1,3,-1
 555 399 l 1,4,-1
 555 108 l 1,5,-1
 467 108 l 1,0,-1
EndSplineSet
EndChar

StartChar: registered
Encoding: 174 174 112
Width: 747
GlyphClass: 2
Flags: W
LayerCount: 2
Fore
SplineSet
492 151 m 2,0,1
 483 151 483 151 474 158 c 128,-1,2
 465 165 465 165 454.5 180.5 c 128,-1,3
 444 196 444 196 434 213.5 c 128,-1,4
 424 231 424 231 406.5 261 c 128,-1,5
 389 291 389 291 372 317 c 1,6,-1
 328 317 l 1,7,-1
 328 215 l 2,8,9
 328 183 328 183 334 177 c 128,-1,10
 340 171 340 171 376 167 c 1,11,-1
 376 151 l 1,12,-1
 210 151 l 1,13,-1
 210 167 l 1,14,15
 245 171 245 171 251 177 c 128,-1,16
 257 183 257 183 257 215 c 2,17,-1
 257 464 l 2,18,19
 257 496 257 496 251 501.5 c 128,-1,20
 245 507 245 507 210 511 c 1,21,-1
 210 527 l 1,22,-1
 393 527 l 2,23,24
 447 527 447 527 478.5 501.5 c 128,-1,25
 510 476 510 476 510 432 c 0,26,27
 510 358 510 358 429 328 c 1,28,-1
 488 246 l 2,29,30
 533 185 533 185 562 162 c 1,31,-1
 562 151 l 1,32,-1
 492 151 l 2,0,1
328 506 m 1,33,-1
 328 337 l 1,34,-1
 369 337 l 2,35,36
 401 337 401 337 419 361 c 128,-1,37
 437 385 437 385 437 428 c 0,38,39
 437 506 437 506 368 506 c 2,40,-1
 328 506 l 1,33,-1
374 685 m 128,-1,42
 518 685 518 685 618 583 c 128,-1,43
 718 481 718 481 718 334 c 0,44,45
 718 184 718 184 618 83 c 128,-1,46
 518 -18 518 -18 369 -18 c 0,47,48
 229 -18 229 -18 129.5 84.5 c 128,-1,49
 30 187 30 187 30 332 c 0,50,51
 30 480 30 480 130 582.5 c 128,-1,41
 230 685 230 685 374 685 c 128,-1,42
374 639 m 128,-1,53
 258 639 258 639 174.5 549 c 128,-1,54
 91 459 91 459 91 333 c 0,55,56
 91 209 91 209 174 118.5 c 128,-1,57
 257 28 257 28 370 28 c 0,58,59
 490 28 490 28 573.5 117 c 128,-1,60
 657 206 657 206 657 334 c 0,61,62
 657 458 657 458 573.5 548.5 c 128,-1,52
 490 639 490 639 374 639 c 128,-1,53
EndSplineSet
EndChar

StartChar: macron
Encoding: 175 175 113
Width: 333
GlyphClass: 2
Flags: W
LayerCount: 2
Fore
SplineSet
393 623 m 1,0,-1
 377 553 l 1,1,-1
 51 553 l 1,2,-1
 68 623 l 1,3,-1
 393 623 l 1,0,-1
EndSplineSet
EndChar

StartChar: degree
Encoding: 176 176 114
Width: 400
GlyphClass: 2
Flags: W
LayerCount: 2
Fore
SplineSet
315 683 m 128,-1,1
 375 683 375 683 416.5 641.5 c 128,-1,2
 458 600 458 600 458 540 c 0,3,4
 458 479 458 479 416.5 438 c 128,-1,5
 375 397 375 397 313 397 c 0,6,7
 255 397 255 397 213.5 439 c 128,-1,8
 172 481 172 481 172 540 c 0,9,10
 172 600 172 600 213.5 641.5 c 128,-1,0
 255 683 255 683 315 683 c 128,-1,1
315 647 m 0,11,12
 273 647 273 647 243 615.5 c 128,-1,13
 213 584 213 584 213 540 c 128,-1,14
 213 496 213 496 243 464.5 c 128,-1,15
 273 433 273 433 314 433 c 0,16,17
 357 433 357 433 387 464.5 c 128,-1,18
 417 496 417 496 417 540 c 0,19,20
 417 583 417 583 386.5 615 c 128,-1,21
 356 647 356 647 315 647 c 0,11,12
EndSplineSet
EndChar

StartChar: plusminus
Encoding: 177 177 115
Width: 570
GlyphClass: 2
Flags: W
LayerCount: 2
Fore
SplineSet
241 359 m 1,0,-1
 241 568 l 1,1,-1
 329 568 l 1,2,-1
 329 359 l 1,3,-1
 537 359 l 1,4,-1
 537 271 l 1,5,-1
 329 271 l 1,6,-1
 329 128 l 1,7,-1
 241 128 l 1,8,-1
 241 271 l 1,9,-1
 33 271 l 1,10,-1
 33 359 l 1,11,-1
 241 359 l 1,0,-1
33 0 m 1,12,-1
 33 88 l 1,13,-1
 537 88 l 1,14,-1
 537 0 l 1,15,-1
 33 0 l 1,12,-1
EndSplineSet
EndChar

StartChar: twosuperior
Encoding: 178 178 116
Width: 300
GlyphClass: 2
Flags: W
LayerCount: 2
Fore
SplineSet
138 406 m 1,0,1
 281 542 281 542 316 585 c 1,2,3
 356 636 356 636 356 672 c 0,4,5
 356 703 356 703 340 720.5 c 128,-1,6
 324 738 324 738 297 738 c 0,7,8
 258 738 258 738 215 690 c 1,9,-1
 197 701 l 1,10,11
 250 799 250 799 341 799 c 0,12,13
 386 799 386 799 417.5 770 c 128,-1,14
 449 741 449 741 449 700 c 0,15,16
 449 664 449 664 428 632 c 128,-1,17
 407 600 407 600 357 560 c 2,18,-1
 232 459 l 1,19,-1
 321 459 l 2,20,21
 358 459 358 459 375 467.5 c 128,-1,22
 392 476 392 476 411 504 c 1,23,-1
 427 504 l 1,24,-1
 376 390 l 1,25,-1
 138 390 l 1,26,-1
 138 406 l 1,0,1
EndSplineSet
EndChar

StartChar: threesuperior
Encoding: 179 179 117
Width: 300
GlyphClass: 2
Flags: W
LayerCount: 2
Fore
SplineSet
170 476 m 0,0,1
 194 476 194 476 213.5 447 c 128,-1,2
 233 418 233 418 256 418 c 0,3,4
 285 418 285 418 305.5 444.5 c 128,-1,5
 326 471 326 471 326 510 c 0,6,7
 326 597 326 597 226 601 c 1,8,-1
 228 615 l 1,9,10
 349 637 349 637 349 700 c 0,11,12
 349 724 349 724 334 738 c 128,-1,13
 319 752 319 752 294 752 c 0,14,15
 256 752 256 752 219 710 c 1,16,-1
 205 723 l 1,17,18
 262 803 262 803 338 803 c 0,19,20
 380 803 380 803 408.5 779.5 c 128,-1,21
 437 756 437 756 437 722 c 0,22,23
 437 693 437 693 422 676 c 128,-1,24
 407 659 407 659 358 631 c 1,25,26
 387 611 387 611 398.5 591.5 c 128,-1,27
 410 572 410 572 410 543 c 0,28,29
 410 478 410 478 353.5 431.5 c 128,-1,30
 297 385 297 385 218 385 c 0,31,32
 178 385 178 385 155.5 398.5 c 128,-1,33
 133 412 133 412 133 435 c 0,34,35
 133 453 133 453 143.5 464.5 c 128,-1,36
 154 476 154 476 170 476 c 0,0,1
EndSplineSet
EndChar

StartChar: acute
Encoding: 180 180 118
Width: 333
GlyphClass: 2
Flags: W
LayerCount: 2
Fore
SplineSet
188 516 m 1,0,-1
 139 516 l 1,1,-1
 261 647 l 2,2,3
 307 697 307 697 331 697 c 0,4,5
 350 697 350 697 364.5 683 c 128,-1,6
 379 669 379 669 379 650 c 0,7,8
 379 636 379 636 370.5 626 c 128,-1,9
 362 616 362 616 340 603 c 2,10,-1
 188 516 l 1,0,-1
EndSplineSet
EndChar

StartChar: micro
Encoding: 181 181 119
Width: 576
GlyphClass: 2
Flags: W
LayerCount: 2
Fore
SplineSet
89 -108 m 1,0,1
 89 -161 89 -161 65 -184 c 128,-1,2
 41 -207 41 -207 10 -207 c 0,3,4
 -40 -207 -40 -207 -40 -146 c 0,5,6
 -40 -127 -40 -127 -35.5 -108.5 c 128,-1,7
 -31 -90 -31 -90 -24 -73 c 128,-1,8
 -17 -56 -17 -56 0 -14 c 128,-1,9
 17 28 17 28 34 74 c 1,10,-1
 145 449 l 1,11,-1
 280 449 l 1,12,-1
 187 137 l 2,13,14
 180 112 180 112 180 95 c 0,15,16
 180 70 180 70 199 70 c 0,17,18
 230 70 230 70 277 137 c 128,-1,19
 324 204 324 204 350 285 c 2,20,-1
 401 449 l 1,21,-1
 536 449 l 1,22,-1
 432 113 l 2,23,24
 427 96 427 96 427 86 c 0,25,26
 427 72 427 72 439 72 c 0,27,28
 460 72 460 72 502 134 c 1,29,-1
 523 118 l 1,30,31
 498 84 498 84 484.5 67.5 c 128,-1,32
 471 51 471 51 448.5 28.5 c 128,-1,33
 426 6 426 6 403.5 -3.5 c 128,-1,34
 381 -13 381 -13 356 -13 c 0,35,36
 329 -13 329 -13 311 5 c 128,-1,37
 293 23 293 23 293 50 c 0,38,39
 293 72 293 72 304 118 c 1,40,41
 264 51 264 51 236.5 25.5 c 128,-1,42
 209 0 209 0 174 0 c 0,43,44
 145 0 145 0 112 24 c 1,45,46
 91 -42 91 -42 89 -108 c 1,0,1
EndSplineSet
EndChar

StartChar: paragraph
Encoding: 182 182 120
Width: 500
GlyphClass: 2
Flags: W
LayerCount: 2
Fore
SplineSet
201 258 m 1,0,1
 132 260 132 260 94 289.5 c 128,-1,2
 56 319 56 319 56 388 c 0,3,4
 56 445 56 445 78 506.5 c 128,-1,5
 100 568 100 568 132 603 c 0,6,7
 194 669 194 669 327 669 c 2,8,-1
 622 669 l 1,9,-1
 616 644 l 1,10,11
 555 639 555 639 542 630.5 c 128,-1,12
 529 622 529 622 518 581 c 2,13,-1
 349 -68 l 1,14,15
 333 -140 333 -140 333 -142 c 0,16,17
 333 -160 333 -160 383 -166 c 0,18,19
 386 -166 386 -166 406 -168 c 1,20,-1
 399 -193 l 1,21,-1
 228 -193 l 1,22,-1
 445 644 l 1,23,-1
 390 644 l 1,24,-1
 173 -193 l 1,25,-1
 3 -193 l 1,26,-1
 10 -168 l 1,27,28
 71 -163 71 -163 84.5 -151.5 c 128,-1,29
 98 -140 98 -140 112 -84 c 0,30,31
 115 -74 115 -74 116 -68 c 2,32,-1
 201 258 l 1,0,1
207 283 m 1,33,-1
 301 644 l 1,34,35
 253 632 253 632 229 615.5 c 128,-1,36
 205 599 205 599 183 564 c 0,37,38
 162 529 162 529 148.5 481.5 c 128,-1,39
 135 434 135 434 135 394 c 0,40,41
 135 313 135 313 207 283 c 1,33,-1
EndSplineSet
EndChar

StartChar: middot
Encoding: 183 183 121
Width: 250
GlyphClass: 2
Flags: W
LayerCount: 2
Fore
SplineSet
193 305 m 0,0,1
 223 305 223 305 244.5 283 c 128,-1,2
 266 261 266 261 266 231 c 0,3,4
 266 200 266 200 244.5 178.5 c 128,-1,5
 223 157 223 157 191 157 c 0,6,7
 160 157 160 157 139 178 c 128,-1,8
 118 199 118 199 118 230 c 0,9,10
 118 262 118 262 139.5 283.5 c 128,-1,11
 161 305 161 305 193 305 c 0,0,1
EndSplineSet
EndChar

StartChar: cedilla
Encoding: 184 184 122
Width: 333
GlyphClass: 2
Flags: W
LayerCount: 2
Fore
SplineSet
-25 -92 m 1,0,-1
 41 5 l 1,1,-1
 85 5 l 1,2,-1
 40 -62 l 1,3,4
 55 -59 55 -59 66 -59 c 0,5,6
 105 -59 105 -59 130.5 -79.5 c 128,-1,7
 156 -100 156 -100 156 -131 c 0,8,9
 156 -168 156 -168 120.5 -193 c 128,-1,10
 85 -218 85 -218 32 -218 c 0,11,12
 -19 -218 -19 -218 -80 -193 c 1,13,-1
 -58 -160 l 1,14,15
 -21 -177 -21 -177 9 -177 c 0,16,17
 35 -177 35 -177 50 -166 c 128,-1,18
 65 -155 65 -155 65 -136 c 0,19,20
 65 -119 65 -119 52.5 -109.5 c 128,-1,21
 40 -100 40 -100 18 -100 c 0,22,23
 4 -100 4 -100 -12 -104 c 1,24,-1
 -25 -92 l 1,0,-1
EndSplineSet
EndChar

StartChar: onesuperior
Encoding: 185 185 123
Width: 272
GlyphClass: 2
Flags: W
LayerCount: 2
Fore
SplineSet
278 728 m 0,0,1
 278 734 278 734 272 742 c 128,-1,2
 266 750 266 750 252 750 c 0,3,4
 250 750 250 750 220 748 c 2,5,-1
 209 747 l 1,6,-1
 211 768 l 1,7,8
 314 784 314 784 388 799 c 1,9,-1
 288 469 l 2,10,11
 282 451 282 451 282 435 c 128,-1,12
 282 419 282 419 293 414 c 128,-1,13
 304 409 304 409 341 409 c 1,14,-1
 341 390 l 1,15,-1
 117 390 l 1,16,-1
 117 409 l 1,17,18
 136 409 136 409 149.5 412.5 c 128,-1,19
 163 416 163 416 171 420 c 128,-1,20
 179 424 179 424 186 437.5 c 128,-1,21
 193 451 193 451 196 459.5 c 128,-1,22
 199 468 199 468 206 491.5 c 128,-1,23
 213 515 213 515 218 530 c 0,24,25
 278 708 278 708 278 728 c 0,0,1
EndSplineSet
EndChar

StartChar: ordmasculine
Encoding: 186 186 124
Width: 300
GlyphClass: 2
Flags: W
LayerCount: 2
Fore
SplineSet
317 342 m 1,0,-1
 303 256 l 1,1,-1
 57 256 l 1,2,-1
 72 342 l 1,3,-1
 317 342 l 1,0,-1
377 592 m 0,4,5
 377 526 377 526 323 463 c 128,-1,6
 269 400 269 400 192 400 c 0,7,8
 146 400 146 400 116 425.5 c 128,-1,9
 86 451 86 451 86 489 c 0,10,11
 86 564 86 564 144 624.5 c 128,-1,12
 202 685 202 685 273 685 c 0,13,14
 319 685 319 685 348 659 c 128,-1,15
 377 633 377 633 377 592 c 0,4,5
296 630 m 0,16,17
 296 665 296 665 269 665 c 0,18,19
 239 665 239 665 214.5 622 c 128,-1,20
 190 579 190 579 178.5 531.5 c 128,-1,21
 167 484 167 484 167 455 c 0,22,23
 167 420 167 420 195 420 c 0,24,25
 224 420 224 420 249 464.5 c 128,-1,26
 274 509 274 509 285 556.5 c 128,-1,27
 296 604 296 604 296 630 c 0,16,17
EndSplineSet
EndChar

StartChar: guillemotright
Encoding: 187 187 125
Width: 500
GlyphClass: 2
Flags: W
LayerCount: 2
Fore
SplineSet
285 415 m 0,0,1
 289 415 289 415 298.5 405 c 128,-1,2
 308 395 308 395 356.5 344.5 c 128,-1,3
 405 294 405 294 468 230 c 1,4,-1
 468 221 l 1,5,-1
 298 97 l 2,6,7
 276 81 276 81 256 63.5 c 128,-1,8
 236 46 236 46 227 39 c 128,-1,9
 218 32 218 32 210 32 c 0,10,11
 205 32 205 32 201 35.5 c 128,-1,12
 197 39 197 39 197 44 c 0,13,14
 197 74 197 74 298 178 c 1,15,-1
 343 227 l 1,16,-1
 303 310 l 2,17,18
 270 379 270 379 270 400 c 0,19,20
 270 406 270 406 274.5 410.5 c 128,-1,21
 279 415 279 415 285 415 c 0,0,1
100 415 m 0,22,23
 104 415 104 415 113.5 405 c 128,-1,24
 123 395 123 395 171.5 344.5 c 128,-1,25
 220 294 220 294 283 230 c 1,26,-1
 283 221 l 1,27,-1
 113 97 l 2,28,29
 91 81 91 81 71 63.5 c 128,-1,30
 51 46 51 46 42 39 c 128,-1,31
 33 32 33 32 25 32 c 0,32,33
 20 32 20 32 16 35.5 c 128,-1,34
 12 39 12 39 12 44 c 0,35,36
 12 74 12 74 113 178 c 1,37,-1
 158 227 l 1,38,-1
 118 310 l 2,39,40
 85 379 85 379 85 400 c 0,41,42
 85 406 85 406 89.5 410.5 c 128,-1,43
 94 415 94 415 100 415 c 0,22,23
EndSplineSet
EndChar

StartChar: onequarter
Encoding: 188 188 126
Width: 750
GlyphClass: 3
Flags: W
LayerCount: 2
Fore
SplineSet
718 149 m 1,0,-1
 701 88 l 1,1,-1
 657 88 l 1,2,-1
 629 0 l 1,3,-1
 543 0 l 1,4,-1
 570 88 l 1,5,-1
 411 88 l 1,6,-1
 427 155 l 1,7,-1
 705 410 l 1,8,-1
 751 410 l 1,9,-1
 673 149 l 1,10,-1
 718 149 l 1,0,-1
455 149 m 1,11,-1
 587 149 l 1,12,-1
 639 319 l 1,13,-1
 455 149 l 1,11,-1
659 683 m 1,14,-1
 224 -14 l 1,15,-1
 166 -14 l 1,16,-1
 601 683 l 1,17,-1
 659 683 l 1,14,-1
37 274 m 1,18,-1
 37 293 l 1,19,20
 56 293 56 293 69.5 296.5 c 128,-1,21
 83 300 83 300 91 304 c 128,-1,22
 99 308 99 308 106 321.5 c 128,-1,23
 113 335 113 335 116 343.5 c 128,-1,24
 119 352 119 352 126 375.5 c 128,-1,25
 133 399 133 399 138 414 c 0,26,27
 198 588 198 588 198 613 c 0,28,29
 198 621 198 621 190 627.5 c 128,-1,30
 182 634 182 634 172 634 c 0,31,32
 168 634 168 634 140 632 c 2,33,-1
 129 631 l 1,34,-1
 131 652 l 1,35,36
 234 668 234 668 308 683 c 1,37,-1
 208 353 l 2,38,39
 202 335 202 335 202 319 c 128,-1,40
 202 303 202 303 213 298 c 128,-1,41
 224 293 224 293 261 293 c 1,42,-1
 261 274 l 1,43,-1
 37 274 l 1,18,-1
EndSplineSet
Ligature2: "'frac' Diagonal Fractions lookup 8 subtable" one slash four
EndChar

StartChar: onehalf
Encoding: 189 189 127
Width: 750
GlyphClass: 3
Flags: W
LayerCount: 2
Fore
SplineSet
664 683 m 1,0,-1
 229 -14 l 1,1,-1
 171 -14 l 1,2,-1
 606 683 l 1,3,-1
 664 683 l 1,0,-1
462 16 m 1,4,5
 605 152 605 152 640 195 c 1,6,7
 680 246 680 246 680 282 c 0,8,9
 680 313 680 313 664 330.5 c 128,-1,10
 648 348 648 348 621 348 c 0,11,12
 582 348 582 348 539 300 c 1,13,-1
 521 311 l 1,14,15
 574 409 574 409 665 409 c 0,16,17
 710 409 710 409 741.5 380 c 128,-1,18
 773 351 773 351 773 310 c 0,19,20
 773 274 773 274 752 242 c 128,-1,21
 731 210 731 210 681 170 c 2,22,-1
 556 69 l 1,23,-1
 645 69 l 2,24,25
 682 69 682 69 699 77.5 c 128,-1,26
 716 86 716 86 735 114 c 1,27,-1
 751 114 l 1,28,-1
 700 0 l 1,29,-1
 462 0 l 1,30,-1
 462 16 l 1,4,5
41 274 m 1,31,-1
 41 293 l 1,32,33
 60 293 60 293 73.5 296.5 c 128,-1,34
 87 300 87 300 95 304 c 128,-1,35
 103 308 103 308 110 321.5 c 128,-1,36
 117 335 117 335 120 343.5 c 128,-1,37
 123 352 123 352 130 375.5 c 128,-1,38
 137 399 137 399 142 414 c 0,39,40
 202 588 202 588 202 613 c 0,41,42
 202 621 202 621 194 627.5 c 128,-1,43
 186 634 186 634 176 634 c 0,44,45
 172 634 172 634 144 632 c 2,46,-1
 133 631 l 1,47,-1
 135 652 l 1,48,49
 238 668 238 668 312 683 c 1,50,-1
 212 353 l 2,51,52
 206 335 206 335 206 319 c 128,-1,53
 206 303 206 303 217 298 c 128,-1,54
 228 293 228 293 265 293 c 1,55,-1
 265 274 l 1,56,-1
 41 274 l 1,31,-1
EndSplineSet
Ligature2: "'frac' Diagonal Fractions lookup 8 subtable" one slash two
EndChar

StartChar: threequarters
Encoding: 190 190 128
Width: 750
GlyphClass: 3
Flags: W
LayerCount: 2
Fore
SplineSet
734 149 m 1,0,-1
 717 88 l 1,1,-1
 673 88 l 1,2,-1
 645 0 l 1,3,-1
 559 0 l 1,4,-1
 586 88 l 1,5,-1
 427 88 l 1,6,-1
 443 155 l 1,7,-1
 721 410 l 1,8,-1
 767 410 l 1,9,-1
 689 149 l 1,10,-1
 734 149 l 1,0,-1
471 149 m 1,11,-1
 603 149 l 1,12,-1
 655 319 l 1,13,-1
 471 149 l 1,11,-1
675 683 m 1,14,-1
 240 -14 l 1,15,-1
 182 -14 l 1,16,-1
 617 683 l 1,17,-1
 675 683 l 1,14,-1
85 356 m 0,18,19
 105 356 105 356 116.5 341.5 c 128,-1,20
 128 327 128 327 139.5 312.5 c 128,-1,21
 151 298 151 298 170 298 c 0,22,23
 200 298 200 298 220.5 324.5 c 128,-1,24
 241 351 241 351 241 389 c 0,25,26
 241 477 241 477 141 481 c 1,27,-1
 143 495 l 1,28,29
 264 517 264 517 264 580 c 0,30,31
 264 604 264 604 249 618 c 128,-1,32
 234 632 234 632 209 632 c 0,33,34
 171 632 171 632 134 590 c 1,35,-1
 120 603 l 1,36,37
 177 683 177 683 253 683 c 0,38,39
 295 683 295 683 323.5 659.5 c 128,-1,40
 352 636 352 636 352 602 c 0,41,42
 352 573 352 573 337 556.5 c 128,-1,43
 322 540 322 540 273 511 c 1,44,45
 302 491 302 491 313.5 471.5 c 128,-1,46
 325 452 325 452 325 423 c 0,47,48
 325 358 325 358 269 311.5 c 128,-1,49
 213 265 213 265 134 265 c 0,50,51
 94 265 94 265 71 278.5 c 128,-1,52
 48 292 48 292 48 315 c 0,53,54
 48 333 48 333 58.5 344.5 c 128,-1,55
 69 356 69 356 85 356 c 0,18,19
EndSplineSet
Ligature2: "'frac' Diagonal Fractions lookup 8 subtable" three slash four
EndChar

StartChar: AE
Encoding: 198 198 136
Width: 911
GlyphClass: 2
Flags: W
LayerCount: 2
Fore
SplineSet
607 32 m 0,0,1
 656 32 656 32 696 41.5 c 128,-1,2
 736 51 736 51 762.5 64.5 c 128,-1,3
 789 78 789 78 814 102.5 c 128,-1,4
 839 127 839 127 853.5 147 c 128,-1,5
 868 167 868 167 888 199 c 1,6,-1
 914 196 l 1,7,-1
 855 0 l 1,8,-1
 328 0 l 1,9,-1
 328 25 l 1,10,11
 367 31 367 31 381 43.5 c 128,-1,12
 395 56 395 56 406 96 c 2,13,-1
 452 255 l 1,14,-1
 260 255 l 1,15,-1
 146 98 l 2,16,17
 131 76 131 76 131 59 c 0,18,19
 131 43 131 43 145 35.5 c 128,-1,20
 159 28 159 28 195 25 c 1,21,-1
 195 0 l 1,22,-1
 0 0 l 1,23,-1
 0 25 l 1,24,25
 8 27 8 27 11 27 c 128,-1,26
 14 27 14 27 19.5 29 c 128,-1,27
 25 31 25 31 26.5 32 c 128,-1,28
 28 33 28 33 33 36.5 c 128,-1,29
 38 40 38 40 39.5 42.5 c 128,-1,30
 41 45 41 45 47.5 52 c 128,-1,31
 54 59 54 59 58 64 c 128,-1,32
 62 69 62 69 71 80.5 c 128,-1,33
 80 92 80 92 88 102 c 2,34,-1
 454 574 l 2,35,36
 474 601 474 601 474 618 c 0,37,38
 474 632 474 632 457.5 637.5 c 128,-1,39
 441 643 441 643 393 646 c 1,40,-1
 393 669 l 1,41,-1
 982 669 l 1,42,-1
 937 479 l 1,43,-1
 913 484 l 1,44,-1
 911 524 l 2,45,46
 905 637 905 637 749 637 c 0,47,48
 717 637 717 637 706 631 c 128,-1,49
 695 625 695 625 690 605 c 2,50,-1
 625 370 l 1,51,-1
 644 370 l 2,52,53
 720 370 720 370 754.5 390.5 c 128,-1,54
 789 411 789 411 819 476 c 1,55,-1
 845 472 l 1,56,-1
 772 199 l 1,57,-1
 747 204 l 1,58,-1
 748 215 l 2,59,60
 750 229 750 229 750 251 c 0,61,62
 750 300 750 300 725 316.5 c 128,-1,63
 700 333 700 333 617 338 c 1,64,-1
 554 97 l 2,65,66
 549 79 549 79 549 69 c 0,67,68
 549 32 549 32 607 32 c 0,0,1
289 294 m 1,69,-1
 462 294 l 1,70,-1
 554 627 l 1,71,-1
 542 627 l 1,72,-1
 289 294 l 1,69,-1
EndSplineSet
EndChar

StartChar: Ccedilla
Encoding: 199 199 137
Width: 620
GlyphClass: 2
Flags: W
LayerCount: 2
Fore
SplineSet
585 131 m 1,0,1
 476 -18 476 -18 313 -18 c 0,2,3
 283 -18 283 -18 250 -12 c 1,4,-1
 216 -62 l 1,5,6
 231 -59 231 -59 242 -59 c 0,7,8
 281 -59 281 -59 306.5 -79.5 c 128,-1,9
 332 -100 332 -100 332 -131 c 0,10,11
 332 -168 332 -168 296.5 -193 c 128,-1,12
 261 -218 261 -218 208 -218 c 0,13,14
 156 -218 156 -218 96 -193 c 1,15,-1
 118 -160 l 1,16,17
 155 -177 155 -177 185 -177 c 0,18,19
 211 -177 211 -177 226 -166 c 128,-1,20
 241 -155 241 -155 241 -136 c 0,21,22
 241 -119 241 -119 228.5 -109.5 c 128,-1,23
 216 -100 216 -100 194 -100 c 0,24,25
 180 -100 180 -100 164 -104 c 1,26,-1
 151 -92 l 1,27,-1
 212 -2 l 1,28,29
 130 25 130 25 85.5 88.5 c 128,-1,30
 41 152 41 152 41 241 c 0,31,32
 41 423 41 423 161.5 554 c 128,-1,33
 282 685 282 685 449 685 c 0,34,35
 502 685 502 685 555.5 670.5 c 128,-1,36
 609 656 609 656 618 656 c 0,37,38
 638 656 638 656 656 685 c 1,39,-1
 686 685 l 1,40,-1
 635 451 l 1,41,-1
 603 457 l 1,42,43
 606 476 606 476 606 492 c 0,44,45
 606 565 606 565 571 607.5 c 128,-1,46
 536 650 536 650 475 650 c 0,47,48
 396 650 396 650 329.5 575 c 128,-1,49
 263 500 263 500 229 400 c 128,-1,50
 195 300 195 300 195 209 c 0,51,52
 195 127 195 127 235 81 c 128,-1,53
 275 35 275 35 345 35 c 0,54,55
 377 35 377 35 406.5 43.5 c 128,-1,56
 436 52 436 52 456 62.5 c 128,-1,57
 476 73 476 73 497 91.5 c 128,-1,58
 518 110 518 110 527 120 c 128,-1,59
 536 130 536 130 550 147 c 0,60,61
 553 151 553 151 555 153 c 1,62,-1
 585 131 l 1,0,1
EndSplineSet
EndChar

StartChar: Eth
Encoding: 208 208 146
Width: 723
GlyphClass: 2
Flags: W
LayerCount: 2
Fore
SplineSet
213 602 m 0,0,1
 213 625 213 625 199 631.5 c 128,-1,2
 185 638 185 638 140 644 c 1,3,-1
 140 669 l 1,4,-1
 430 669 l 2,5,6
 572 669 572 669 651.5 596.5 c 128,-1,7
 731 524 731 524 731 396 c 0,8,9
 731 226 731 226 604 113 c 128,-1,10
 477 0 477 0 286 0 c 2,11,-1
 0 0 l 1,12,-1
 0 25 l 1,13,14
 37 30 37 30 53.5 44.5 c 128,-1,15
 70 59 70 59 80 97 c 2,16,-1
 143 329 l 1,17,-1
 41 329 l 1,18,-1
 53 373 l 1,19,-1
 155 373 l 1,20,-1
 201 543 l 2,21,22
 213 590 213 590 213 602 c 0,0,1
303 373 m 1,23,-1
 425 373 l 1,24,-1
 413 329 l 1,25,-1
 291 329 l 1,26,-1
 236 126 l 2,27,28
 235 124 235 124 235 122 c 0,29,30
 223 87 223 87 223 68 c 0,31,32
 223 34 223 34 277 34 c 0,33,34
 417 34 417 34 496 147 c 0,35,36
 537 205 537 205 560.5 288.5 c 128,-1,37
 584 372 584 372 584 457 c 0,38,39
 584 638 584 638 419 638 c 0,40,41
 374 638 374 638 364 600 c 2,42,-1
 303 373 l 1,23,-1
EndSplineSet
EndChar

StartChar: multiply
Encoding: 215 215 153
Width: 570
GlyphClass: 2
Flags: W
LayerCount: 2
Fore
SplineSet
223 253 m 1,0,-1
 48 428 l 1,1,-1
 110 490 l 1,2,-1
 285 314 l 1,3,-1
 460 490 l 1,4,-1
 522 428 l 1,5,-1
 346 253 l 1,6,-1
 522 78 l 1,7,-1
 460 16 l 1,8,-1
 285 192 l 1,9,-1
 110 16 l 1,10,-1
 48 78 l 1,11,-1
 223 253 l 1,0,-1
EndSplineSet
EndChar

StartChar: Oslash
Encoding: 216 216 154
Width: 676
GlyphClass: 2
Flags: W
LayerCount: 2
Fore
SplineSet
153 11 m 1,0,1
 36 80 36 80 36 212 c 0,2,3
 36 330 36 330 96 440 c 128,-1,4
 156 550 156 550 254.5 617.5 c 128,-1,5
 353 685 353 685 458 685 c 0,6,7
 498 685 498 685 540 672 c 1,8,-1
 593 764 l 1,9,-1
 642 764 l 1,10,-1
 579 656 l 1,11,12
 700 584 700 584 700 453 c 0,13,14
 700 376 700 376 668 293.5 c 128,-1,15
 636 211 636 211 581.5 141.5 c 128,-1,16
 527 72 527 72 445.5 27 c 128,-1,17
 364 -18 364 -18 275 -18 c 0,18,19
 232 -18 232 -18 192 -5 c 1,20,-1
 122 -125 l 1,21,-1
 74 -125 l 1,22,-1
 153 11 l 1,0,1
191 77 m 1,23,-1
 515 630 l 1,24,25
 488 651 488 651 452 651 c 0,26,27
 360 651 360 651 287 521 c 0,28,29
 244 444 244 444 212 331 c 128,-1,30
 180 218 180 218 180 141 c 0,31,32
 180 108 180 108 191 77 c 1,23,-1
282 16 m 0,33,34
 334 16 334 16 380.5 59 c 128,-1,35
 427 102 427 102 458 165.5 c 128,-1,36
 489 229 489 229 512 301.5 c 128,-1,37
 535 374 535 374 545.5 433 c 128,-1,38
 556 492 556 492 556 526 c 0,39,40
 556 559 556 559 542 593 c 1,41,-1
 217 38 l 1,42,43
 244 16 244 16 282 16 c 0,33,34
EndSplineSet
EndChar

StartChar: Thorn
Encoding: 222 222 160
Width: 597
GlyphClass: 2
Flags: W
LayerCount: 2
Fore
SplineSet
140 644 m 1,0,-1
 140 669 l 1,1,-1
 434 669 l 1,2,-1
 434 644 l 1,3,4
 394 639 394 639 380.5 627 c 128,-1,5
 367 615 367 615 352 572 c 2,6,-1
 339 534 l 1,7,-1
 387 534 l 2,8,9
 491 534 491 534 546 494.5 c 128,-1,10
 601 455 601 455 601 379 c 0,11,12
 601 289 601 289 526.5 235.5 c 128,-1,13
 452 182 452 182 327 182 c 0,14,15
 291 182 291 182 246 187 c 1,16,-1
 232 123 l 2,17,18
 222 79 222 79 222 64 c 0,19,20
 222 44 222 44 237 35.5 c 128,-1,21
 252 27 252 27 294 25 c 1,22,-1
 294 0 l 1,23,-1
 0 0 l 1,24,-1
 0 25 l 1,25,26
 39 31 39 31 54 44 c 128,-1,27
 69 57 69 57 80 97 c 2,28,-1
 203 546 l 2,29,30
 213 583 213 583 213 607 c 0,31,32
 213 635 213 635 171 640 c 0,33,34
 168 640 168 640 140 644 c 1,0,-1
371 502 m 0,35,36
 345 502 345 502 336 492 c 128,-1,37
 327 482 327 482 321 463 c 0,38,39
 321 460 321 460 320 458 c 2,40,-1
 256 219 l 1,41,42
 294 217 294 217 298 217 c 0,43,44
 351 217 351 217 381.5 236 c 128,-1,45
 412 255 412 255 432 299 c 0,46,47
 455 350 455 350 455 411 c 0,48,49
 455 454 455 454 433 478 c 128,-1,50
 411 502 411 502 371 502 c 0,35,36
EndSplineSet
EndChar

StartChar: ssharp
Encoding: 223 223 161
Width: 580
GlyphClass: 2
Flags: W
LayerCount: 2
Fore
SplineSet
440 304 m 0,0,1
 440 348 440 348 422 363.5 c 128,-1,2
 404 379 404 379 366 384 c 1,3,-1
 373 421 l 1,4,-1
 389 421 l 2,5,6
 391 421 391 421 393.5 420 c 128,-1,7
 396 419 396 419 399 419 c 0,8,9
 430 419 430 419 458.5 475.5 c 128,-1,10
 487 532 487 532 487 615 c 0,11,12
 487 675 487 675 440 675 c 0,13,14
 406 675 406 675 382 636 c 128,-1,15
 358 597 358 597 339 509 c 2,16,-1
 248 102 l 2,17,18
 180 -200 180 -200 22 -200 c 0,19,20
 -21 -200 -21 -200 -48 -178.5 c 128,-1,21
 -75 -157 -75 -157 -75 -123 c 0,22,23
 -75 -99 -75 -99 -61 -84.5 c 128,-1,24
 -47 -70 -47 -70 -24 -70 c 0,25,26
 -2 -70 -2 -70 11 -82 c 128,-1,27
 24 -94 24 -94 24 -115 c 0,28,29
 24 -134 24 -134 15.5 -143 c 128,-1,30
 7 -152 7 -152 7 -158 c 0,31,32
 7 -169 7 -169 23 -169 c 0,33,34
 51 -169 51 -169 70 -140 c 128,-1,35
 89 -111 89 -111 109 -20 c 2,36,-1
 201 403 l 2,37,38
 267 705 267 705 452 705 c 0,39,40
 516 705 516 705 557 668 c 128,-1,41
 598 631 598 631 598 574 c 0,42,43
 598 539 598 539 583 510.5 c 128,-1,44
 568 482 568 482 539 461.5 c 128,-1,45
 510 441 510 441 482.5 427.5 c 128,-1,46
 455 414 455 414 416 399 c 1,47,48
 560 368 560 368 560 256 c 0,49,50
 560 151 560 151 493.5 69 c 128,-1,51
 427 -13 427 -13 340 -13 c 0,52,53
 297 -13 297 -13 267 9 c 1,54,-1
 287 44 l 1,55,56
 306 21 306 21 334 21 c 0,57,58
 357 21 357 21 377.5 51 c 128,-1,59
 398 81 398 81 411.5 125.5 c 128,-1,60
 425 170 425 170 432.5 217.5 c 128,-1,61
 440 265 440 265 440 304 c 0,0,1
EndSplineSet
EndChar

StartChar: ae
Encoding: 230 230 168
Width: 697
GlyphClass: 2
Flags: W
LayerCount: 2
Fore
SplineSet
450 -13 m 0,0,1
 386 -13 386 -13 352.5 18 c 128,-1,2
 319 49 319 49 307 118 c 1,3,4
 265 49 265 49 224.5 18.5 c 128,-1,5
 184 -12 184 -12 134 -12 c 0,6,7
 85 -12 85 -12 52.5 21.5 c 128,-1,8
 20 55 20 55 20 106 c 0,9,10
 20 185 20 185 62.5 269 c 128,-1,11
 105 353 105 353 170 407.5 c 128,-1,12
 235 462 235 462 296 462 c 0,13,14
 328 462 328 462 346 447.5 c 128,-1,15
 364 433 364 433 377 396 c 1,16,-1
 395 454 l 1,17,-1
 498 459 l 1,18,-1
 478 394 l 1,19,20
 510 431 510 431 535.5 445 c 128,-1,21
 561 459 561 459 598 459 c 0,22,23
 645 459 645 459 671.5 436 c 128,-1,24
 698 413 698 413 698 372 c 0,25,26
 698 310 698 310 638.5 262.5 c 128,-1,27
 579 215 579 215 470 190 c 2,28,-1
 431 181 l 1,29,30
 426 156 426 156 426 134 c 0,31,32
 426 96 426 96 444 73 c 128,-1,33
 462 50 462 50 493 50 c 0,34,35
 565 50 565 50 616 139 c 1,36,-1
 644 122 l 1,37,38
 578 -13 578 -13 450 -13 c 0,0,1
194 58 m 0,39,40
 238 58 238 58 278.5 122.5 c 128,-1,41
 319 187 319 187 338.5 256.5 c 128,-1,42
 358 326 358 326 358 363 c 0,43,44
 358 387 358 387 344.5 403 c 128,-1,45
 331 419 331 419 310 419 c 0,46,47
 267 419 267 419 227 356 c 128,-1,48
 187 293 187 293 166.5 224.5 c 128,-1,49
 146 156 146 156 146 119 c 0,50,51
 146 92 146 92 159 75 c 128,-1,52
 172 58 172 58 194 58 c 0,39,40
438 214 m 1,53,54
 498 223 498 223 553 271.5 c 128,-1,55
 608 320 608 320 608 388 c 0,56,57
 608 429 608 429 575 429 c 0,58,59
 502 429 502 429 443 231 c 2,60,-1
 438 214 l 1,53,54
EndSplineSet
EndChar

StartChar: ccedilla
Encoding: 231 231 169
Width: 417
GlyphClass: 2
Flags: W
LayerCount: 2
Fore
SplineSet
364 123 m 1,0,1
 320 61 320 61 294 38 c 0,2,3
 236 -13 236 -13 166 -13 c 0,4,5
 155 -13 155 -13 148 -12 c 1,6,-1
 114 -62 l 1,7,8
 129 -59 129 -59 140 -59 c 0,9,10
 179 -59 179 -59 204.5 -79.5 c 128,-1,11
 230 -100 230 -100 230 -131 c 0,12,13
 230 -168 230 -168 194.5 -193 c 128,-1,14
 159 -218 159 -218 106 -218 c 0,15,16
 55 -218 55 -218 -6 -193 c 1,17,-1
 16 -160 l 1,18,19
 53 -177 53 -177 83 -177 c 0,20,21
 109 -177 109 -177 124 -166 c 128,-1,22
 139 -155 139 -155 139 -136 c 0,23,24
 139 -119 139 -119 126.5 -109.5 c 128,-1,25
 114 -100 114 -100 92 -100 c 0,26,27
 78 -100 78 -100 62 -104 c 1,28,-1
 49 -92 l 1,29,-1
 109 -4 l 1,30,31
 63 12 63 12 38 49.5 c 128,-1,32
 13 87 13 87 13 138 c 0,33,34
 13 258 13 258 102.5 360 c 128,-1,35
 192 462 192 462 298 462 c 0,36,37
 348 462 348 462 379 437 c 128,-1,38
 410 412 410 412 410 372 c 0,39,40
 410 341 410 341 392.5 321.5 c 128,-1,41
 375 302 375 302 348 302 c 0,42,43
 323 302 323 302 306.5 317 c 128,-1,44
 290 332 290 332 290 354 c 0,45,46
 290 369 290 369 300.5 388.5 c 128,-1,47
 311 408 311 408 311 412 c 0,48,49
 311 429 311 429 289 429 c 0,50,51
 254 429 254 429 224.5 393 c 128,-1,52
 195 357 195 357 177.5 307 c 128,-1,53
 160 257 160 257 150.5 211.5 c 128,-1,54
 141 166 141 166 141 141 c 0,55,56
 141 101 141 101 161.5 76 c 128,-1,57
 182 51 182 51 214 51 c 128,-1,58
 246 51 246 51 273 71 c 128,-1,59
 300 91 300 91 336 141 c 1,60,-1
 364 123 l 1,0,1
EndSplineSet
EndChar

StartChar: eth
Encoding: 240 240 178
Width: 450
GlyphClass: 2
Flags: W
LayerCount: 2
Fore
SplineSet
303 574 m 1,0,-1
 184 512 l 1,1,-1
 151 543 l 1,2,-1
 273 607 l 1,3,4
 215 662 215 662 157 672 c 1,5,-1
 201 699 l 1,6,7
 272 689 272 689 333 639 c 1,8,-1
 440 696 l 1,9,-1
 474 664 l 1,10,-1
 367 608 l 1,11,12
 417 549 417 549 439 494 c 128,-1,13
 461 439 461 439 461 372 c 0,14,15
 461 215 461 215 376 101 c 128,-1,16
 291 -13 291 -13 175 -13 c 0,17,18
 107 -13 107 -13 62 29 c 128,-1,19
 17 71 17 71 17 134 c 0,20,21
 17 215 17 215 56.5 291.5 c 128,-1,22
 96 368 96 368 160 415 c 128,-1,23
 224 462 224 462 292 462 c 0,24,25
 335 462 335 462 363 420 c 1,26,-1
 365 424 l 1,27,28
 359 502 359 502 303 574 c 1,0,-1
185 16 m 0,29,30
 222 16 222 16 254 62 c 128,-1,31
 286 108 286 108 304 171.5 c 128,-1,32
 322 235 322 235 332 290.5 c 128,-1,33
 342 346 342 346 342 375 c 0,34,35
 342 402 342 402 329.5 417.5 c 128,-1,36
 317 433 317 433 296 433 c 0,37,38
 253 433 253 433 214.5 370 c 128,-1,39
 176 307 176 307 156 227.5 c 128,-1,40
 136 148 136 148 136 86 c 0,41,42
 136 16 136 16 185 16 c 0,29,30
EndSplineSet
EndChar

StartChar: divide
Encoding: 247 247 185
Width: 570
GlyphClass: 2
Flags: W
LayerCount: 2
Fore
SplineSet
537 209 m 1,0,-1
 33 209 l 1,1,-1
 33 297 l 1,2,-1
 537 297 l 1,3,-1
 537 209 l 1,0,-1
286 119 m 0,4,5
 316 119 316 119 337.5 97 c 128,-1,6
 359 75 359 75 359 45 c 0,7,8
 359 14 359 14 337 -7.5 c 128,-1,9
 315 -29 315 -29 284 -29 c 128,-1,10
 253 -29 253 -29 232 -7.5 c 128,-1,11
 211 14 211 14 211 45 c 128,-1,12
 211 76 211 76 232.5 97.5 c 128,-1,13
 254 119 254 119 286 119 c 0,4,5
286 535 m 0,14,15
 316 535 316 535 337.5 513 c 128,-1,16
 359 491 359 491 359 461 c 0,17,18
 359 430 359 430 337.5 408.5 c 128,-1,19
 316 387 316 387 284 387 c 0,20,21
 253 387 253 387 232 408.5 c 128,-1,22
 211 430 211 430 211 461 c 128,-1,23
 211 492 211 492 232.5 513.5 c 128,-1,24
 254 535 254 535 286 535 c 0,14,15
EndSplineSet
EndChar

StartChar: oslash
Encoding: 248 248 186
Width: 474
GlyphClass: 2
Flags: W
LayerCount: 2
Fore
SplineSet
452 560 m 1,0,-1
 387 444 l 1,1,2
 469 404 469 404 469 311 c 0,3,4
 469 185 469 185 382.5 86 c 128,-1,5
 296 -13 296 -13 185 -13 c 0,6,7
 161 -13 161 -13 134 -5 c 1,8,-1
 70 -119 l 1,9,-1
 30 -119 l 1,10,-1
 102 7 l 1,11,12
 25 51 25 51 25 134 c 0,13,14
 25 262 25 262 113.5 362 c 128,-1,15
 202 462 202 462 314 462 c 0,16,17
 334 462 334 462 356 456 c 1,18,-1
 415 560 l 1,19,-1
 452 560 l 1,0,-1
303 433 m 0,20,21
 266 433 266 433 233.5 389 c 128,-1,22
 201 345 201 345 183 284.5 c 128,-1,23
 165 224 165 224 154.5 170 c 128,-1,24
 144 116 144 116 144 86 c 2,25,-1
 144 78 l 1,26,-1
 335 419 l 1,27,28
 321 433 321 433 303 433 c 0,20,21
193 16 m 0,29,30
 228 16 228 16 259.5 60 c 128,-1,31
 291 104 291 104 309.5 164.5 c 128,-1,32
 328 225 328 225 339 282 c 128,-1,33
 350 339 350 339 350 372 c 0,34,35
 350 375 350 375 349 377 c 1,36,-1
 156 34 l 1,37,38
 171 16 171 16 193 16 c 0,29,30
EndSplineSet
EndChar

StartChar: thorn
Encoding: 254 254 192
Width: 492
GlyphClass: 2
Flags: W
LayerCount: 2
Fore
SplineSet
169 -178 m 1,0,-1
 169 -205 l 1,1,-1
 -80 -205 l 1,2,-1
 -80 -178 l 1,3,-1
 -75 -178 l 2,4,5
 -42 -178 -42 -178 -29 -162.5 c 128,-1,6
 -16 -147 -16 -147 -2 -93 c 2,7,-1
 160 537 l 2,8,9
 177 602 177 602 177 612 c 0,10,11
 177 629 177 629 164 635.5 c 128,-1,12
 151 642 151 642 114 642 c 1,13,-1
 114 669 l 1,14,15
 233 682 233 682 320 699 c 1,16,-1
 225 359 l 1,17,-1
 228 356 l 1,18,19
 266 412 266 412 301 437 c 128,-1,20
 336 462 336 462 379 462 c 0,21,22
 428 462 428 462 457 429 c 128,-1,23
 486 396 486 396 486 341 c 0,24,25
 486 211 486 211 398 99 c 128,-1,26
 310 -13 310 -13 209 -13 c 0,27,28
 184 -13 184 -13 141 9 c 1,29,-1
 138 -4 l 1,30,-1
 130 -32 l 2,31,32
 104 -125 104 -125 104 -146 c 0,33,34
 104 -164 104 -164 117.5 -170.5 c 128,-1,35
 131 -177 131 -177 169 -178 c 1,0,-1
361 340 m 0,36,37
 361 363 361 363 349.5 377 c 128,-1,38
 338 391 338 391 319 391 c 0,39,40
 306 391 306 391 293.5 386 c 128,-1,41
 281 381 281 381 271 370.5 c 128,-1,42
 261 360 261 360 252 349.5 c 128,-1,43
 243 339 243 339 235 322 c 128,-1,44
 227 305 227 305 221 293.5 c 128,-1,45
 215 282 215 282 209 263.5 c 128,-1,46
 203 245 203 245 200 236.5 c 128,-1,47
 197 228 197 228 192.5 212 c 128,-1,48
 188 196 188 196 188 195 c 0,49,50
 153 77 153 77 153 58 c 0,51,52
 153 43 153 43 164.5 32.5 c 128,-1,53
 176 22 176 22 192 22 c 0,54,55
 228 22 228 22 261 62.5 c 128,-1,56
 294 103 294 103 315 157.5 c 128,-1,57
 336 212 336 212 348.5 263 c 128,-1,58
 361 314 361 314 361 340 c 0,36,37
EndSplineSet
EndChar

StartChar: Aogonek
Encoding: 260 260 198
Width: 734
GlyphClass: 2
Flags: W
AnchorPoint: "Anchor-2" 468 668 basechar 0
LayerCount: 2
Fore
SplineSet
435 84 m 0,0,1
 435 86 435 86 420 208 c 1,2,-1
 205 208 l 1,3,-1
 146 106 l 2,4,5
 131 80 131 80 131 60 c 0,6,7
 131 25 131 25 196 25 c 1,8,-1
 196 0 l 1,9,-1
 0 0 l 1,10,-1
 0 25 l 1,11,12
 27 31 27 31 43.5 44.5 c 128,-1,13
 60 58 60 58 83 95 c 2,14,-1
 455 683 l 1,15,-1
 480 683 l 1,16,-1
 576 111 l 2,17,18
 586 54 586 54 598 41.5 c 128,-1,19
 610 29 610 29 660 25 c 1,20,-1
 660 0 l 1,21,22
 651 -21 651 -21 651 -39 c 0,23,24
 651 -104 651 -104 714 -104 c 0,25,26
 727 -104 727 -104 738 -100.5 c 128,-1,27
 749 -97 749 -97 761 -90.5 c 128,-1,28
 773 -84 773 -84 774 -84 c 2,29,-1
 796 -98 l 1,30,31
 777 -132 777 -132 744 -152.5 c 128,-1,32
 711 -173 711 -173 673 -173 c 0,33,34
 627 -173 627 -173 597 -150 c 128,-1,35
 567 -127 567 -127 567 -92 c 128,-1,36
 567 -57 567 -57 610 0 c 1,37,-1
 356 0 l 1,38,-1
 356 25 l 1,39,40
 404 30 404 30 419.5 41.5 c 128,-1,41
 435 53 435 53 435 84 c 0,0,1
228 248 m 1,42,-1
 413 248 l 1,43,-1
 376 491 l 1,44,-1
 228 248 l 1,42,-1
EndSplineSet
EndChar

StartChar: aogonek
Encoding: 261 261 199
Width: 509
GlyphClass: 2
Flags: W
AnchorPoint: "Anchor-2" 306 449 basechar 0
LayerCount: 2
Fore
SplineSet
453 -104 m 0,0,1
 466 -104 466 -104 477 -100.5 c 128,-1,2
 488 -97 488 -97 500 -90.5 c 128,-1,3
 512 -84 512 -84 513 -84 c 2,4,-1
 535 -98 l 1,5,6
 516 -132 516 -132 483 -152.5 c 128,-1,7
 450 -173 450 -173 412 -173 c 0,8,9
 366 -173 366 -173 336 -150 c 128,-1,10
 306 -127 306 -127 306 -92 c 0,11,12
 306 -60 306 -60 338 -14 c 1,13,14
 307 -11 307 -11 289.5 6.5 c 128,-1,15
 272 24 272 24 272 52 c 0,16,17
 272 68 272 68 286 119 c 1,18,19
 243 48 243 48 205.5 17.5 c 128,-1,20
 168 -13 168 -13 122 -13 c 0,21,22
 73 -13 73 -13 43.5 22 c 128,-1,23
 14 57 14 57 14 114 c 0,24,25
 14 190 14 190 56 272 c 128,-1,26
 98 354 98 354 162.5 408 c 128,-1,27
 227 462 227 462 287 462 c 0,28,29
 319 462 319 462 336.5 445 c 128,-1,30
 354 428 354 428 361 390 c 1,31,-1
 379 449 l 1,32,-1
 490 456 l 1,33,-1
 419 220 l 2,34,35
 385 105 385 105 385 72 c 0,36,37
 385 57 385 57 397 57 c 128,-1,38
 409 57 409 57 423.5 71 c 128,-1,39
 438 85 438 85 469 127 c 1,40,-1
 490 112 l 1,41,42
 464 73 464 73 441 45.5 c 128,-1,43
 418 18 418 18 409 10 c 128,-1,44
 400 2 400 2 395 -9.5 c 128,-1,45
 390 -21 390 -21 390 -41 c 0,46,47
 390 -104 390 -104 453 -104 c 0,0,1
338 373 m 0,48,49
 338 394 338 394 326.5 407 c 128,-1,50
 315 420 315 420 299 420 c 0,51,52
 269 420 269 420 230 364.5 c 128,-1,53
 191 309 191 309 164 235.5 c 128,-1,54
 137 162 137 162 137 112 c 0,55,56
 137 89 137 89 150 73.5 c 128,-1,57
 163 58 163 58 182 58 c 0,58,59
 222 58 222 58 260.5 124 c 128,-1,60
 299 190 299 190 318.5 262 c 128,-1,61
 338 334 338 334 338 373 c 0,48,49
EndSplineSet
EndChar

StartChar: dcaron
Encoding: 271 271 209
Width: 609
GlyphClass: 2
Flags: W
LayerCount: 2
Fore
SplineSet
542 481 m 1,0,-1
 643 655 l 2,1,2
 660 685 660 685 694 685 c 0,3,4
 713 685 713 685 724 674 c 128,-1,5
 735 663 735 663 735 645 c 0,6,7
 735 617 735 617 704 586 c 2,8,-1
 598 481 l 1,9,-1
 542 481 l 1,0,-1
468 131 m 1,10,-1
 490 115 l 1,11,12
 449 49 449 49 413.5 19 c 128,-1,13
 378 -11 378 -11 341 -11 c 0,14,15
 313 -11 313 -11 297 5.5 c 128,-1,16
 281 22 281 22 281 51 c 0,17,18
 281 67 281 67 292 118 c 1,19,20
 249 47 249 47 211 17 c 128,-1,21
 173 -13 173 -13 126 -13 c 0,22,23
 80 -13 80 -13 50 22.5 c 128,-1,24
 20 58 20 58 20 112 c 0,25,26
 20 188 20 188 62 270.5 c 128,-1,27
 104 353 104 353 168.5 407.5 c 128,-1,28
 233 462 233 462 292 462 c 0,29,30
 331 462 331 462 364 429 c 1,31,-1
 383 497 l 2,32,33
 411 597 411 597 411 615 c 0,34,35
 411 643 411 643 370 643 c 2,36,-1
 349 643 l 1,37,-1
 349 670 l 1,38,39
 478 680 478 680 558 699 c 1,40,-1
 447 294 l 2,41,42
 390 87 390 87 390 71 c 0,43,44
 390 67 390 67 393.5 63 c 128,-1,45
 397 59 397 59 401 59 c 0,46,47
 425 59 425 59 468 131 c 1,10,-1
349 370 m 0,48,49
 349 392 349 392 338 406 c 128,-1,50
 327 420 327 420 309 420 c 0,51,52
 270 420 270 420 229.5 358 c 128,-1,53
 189 296 189 296 166.5 225.5 c 128,-1,54
 144 155 144 155 144 117 c 0,55,56
 144 92 144 92 155.5 75.5 c 128,-1,57
 167 59 167 59 185 59 c 0,58,59
 225 59 225 59 265 127.5 c 128,-1,60
 305 196 305 196 327 268 c 128,-1,61
 349 340 349 340 349 370 c 0,48,49
EndSplineSet
EndChar

StartChar: dcroat
Encoding: 273 273 211
Width: 505
GlyphClass: 2
Flags: W
LayerCount: 2
Fore
SplineSet
390 544 m 1,0,1
 407 606 407 606 407 615 c 0,2,3
 407 643 407 643 366 643 c 2,4,-1
 345 643 l 1,5,-1
 345 670 l 1,6,7
 474 680 474 680 554 699 c 1,8,-1
 511 544 l 1,9,-1
 577 544 l 1,10,-1
 569 513 l 1,11,-1
 503 513 l 1,12,-1
 443 294 l 2,13,14
 386 87 386 87 386 71 c 0,15,16
 386 67 386 67 389.5 63 c 128,-1,17
 393 59 393 59 397 59 c 0,18,19
 421 59 421 59 464 131 c 1,20,-1
 486 115 l 1,21,22
 445 49 445 49 409.5 19 c 128,-1,23
 374 -11 374 -11 337 -11 c 0,24,25
 309 -11 309 -11 293 5.5 c 128,-1,26
 277 22 277 22 277 51 c 0,27,28
 277 67 277 67 288 118 c 1,29,30
 245 47 245 47 207 17 c 128,-1,31
 169 -13 169 -13 122 -13 c 0,32,33
 76 -13 76 -13 46 22.5 c 128,-1,34
 16 58 16 58 16 112 c 0,35,36
 16 188 16 188 58 270.5 c 128,-1,37
 100 353 100 353 164.5 407.5 c 128,-1,38
 229 462 229 462 288 462 c 0,39,40
 327 462 327 462 360 429 c 1,41,-1
 382 513 l 1,42,-1
 243 513 l 1,43,-1
 252 544 l 1,44,-1
 390 544 l 1,0,1
345 370 m 0,45,46
 345 392 345 392 334 406 c 128,-1,47
 323 420 323 420 305 420 c 0,48,49
 266 420 266 420 225.5 358 c 128,-1,50
 185 296 185 296 162.5 225.5 c 128,-1,51
 140 155 140 155 140 117 c 0,52,53
 140 92 140 92 151.5 75.5 c 128,-1,54
 163 59 163 59 181 59 c 0,55,56
 221 59 221 59 261 127.5 c 128,-1,57
 301 196 301 196 323 268 c 128,-1,58
 345 340 345 340 345 370 c 0,45,46
EndSplineSet
EndChar

StartChar: Eogonek
Encoding: 280 280 218
Width: 610
GlyphClass: 2
Flags: W
AnchorPoint: "Anchor-2" 428 668 basechar 0
LayerCount: 2
Fore
SplineSet
283 32 m 0,0,1
 365 32 365 32 426 56 c 128,-1,2
 487 80 487 80 521.5 113.5 c 128,-1,3
 556 147 556 147 588 199 c 1,4,-1
 613 194 l 1,5,-1
 566 41 l 2,6,7
 549 -14 549 -14 549 -41 c 0,8,9
 549 -104 549 -104 612 -104 c 0,10,11
 625 -104 625 -104 636 -100.5 c 128,-1,12
 647 -97 647 -97 659 -90.5 c 128,-1,13
 671 -84 671 -84 672 -84 c 2,14,-1
 694 -98 l 1,15,16
 675 -132 675 -132 642 -152.5 c 128,-1,17
 609 -173 609 -173 571 -173 c 0,18,19
 525 -173 525 -173 495 -150 c 128,-1,20
 465 -127 465 -127 465 -92 c 128,-1,21
 465 -57 465 -57 508 0 c 1,22,-1
 0 0 l 1,23,-1
 0 25 l 1,24,25
 39 31 39 31 54 44 c 128,-1,26
 69 57 69 57 80 97 c 2,27,-1
 203 546 l 2,28,29
 213 583 213 583 213 606 c 0,30,31
 213 619 213 619 204.5 626.5 c 128,-1,32
 196 634 196 634 185 636.5 c 128,-1,33
 174 639 174 639 147 643 c 0,34,35
 143 644 143 644 140 644 c 1,36,-1
 140 669 l 1,37,-1
 680 669 l 1,38,-1
 637 479 l 1,39,-1
 610 484 l 1,40,41
 610 522 610 522 604.5 546 c 128,-1,42
 599 570 599 570 581 593 c 128,-1,43
 563 616 563 616 525 626.5 c 128,-1,44
 487 637 487 637 426 637 c 0,45,46
 395 637 395 637 383 628 c 128,-1,47
 371 619 371 619 363 593 c 2,48,-1
 302 370 l 1,49,-1
 315 370 l 2,50,51
 378 370 378 370 410 378 c 128,-1,52
 442 386 442 386 462.5 407 c 128,-1,53
 483 428 483 428 507 476 c 1,54,-1
 535 472 l 1,55,-1
 461 199 l 1,56,-1
 433 204 l 1,57,58
 437 229 437 229 437 248 c 0,59,60
 437 300 437 300 407.5 318.5 c 128,-1,61
 378 337 378 337 293 338 c 1,62,-1
 237 129 l 1,63,64
 222 69 222 69 222 66 c 0,65,66
 222 32 222 32 283 32 c 0,0,1
EndSplineSet
EndChar

StartChar: eogonek
Encoding: 281 281 219
Width: 417
GlyphClass: 2
Flags: W
AnchorPoint: "Anchor-2" 298 449 basechar 0
LayerCount: 2
Fore
SplineSet
329 -104 m 0,0,1
 342 -104 342 -104 353 -100.5 c 128,-1,2
 364 -97 364 -97 376 -90.5 c 128,-1,3
 388 -84 388 -84 389 -84 c 2,4,-1
 411 -98 l 1,5,6
 392 -132 392 -132 359 -152.5 c 128,-1,7
 326 -173 326 -173 288 -173 c 0,8,9
 242 -173 242 -173 212 -150 c 128,-1,10
 182 -127 182 -127 182 -92 c 0,11,12
 182 -58 182 -58 223 -3 c 1,13,14
 190 -13 190 -13 163 -13 c 0,15,16
 98 -13 98 -13 55 29 c 128,-1,17
 12 71 12 71 12 134 c 0,18,19
 12 258 12 258 102 360 c 128,-1,20
 192 462 192 462 300 462 c 0,21,22
 346 462 346 462 375.5 437.5 c 128,-1,23
 405 413 405 413 405 375 c 0,24,25
 405 354 405 354 396 331.5 c 128,-1,26
 387 309 387 309 362.5 279.5 c 128,-1,27
 338 250 338 250 283 223.5 c 128,-1,28
 228 197 228 197 148 182 c 1,29,30
 142 152 142 152 142 133 c 0,31,32
 142 51 142 51 207 51 c 0,33,34
 238 51 238 51 263.5 70.5 c 128,-1,35
 289 90 289 90 324 142 c 1,36,-1
 353 125 l 1,37,38
 334 94 334 94 314 67 c 128,-1,39
 294 40 294 40 285.5 29 c 128,-1,40
 277 18 277 18 271.5 2 c 128,-1,41
 266 -14 266 -14 266 -37 c 0,42,43
 266 -104 266 -104 329 -104 c 0,0,1
155 214 m 1,44,45
 227 240 227 240 270 280.5 c 128,-1,46
 313 321 313 321 313 395 c 0,47,48
 313 429 313 429 285 429 c 0,49,50
 211 429 211 429 155 214 c 1,44,45
EndSplineSet
EndChar

StartChar: Hbar
Encoding: 294 294 232
Width: 758
GlyphClass: 2
Flags: W
LayerCount: 2
Fore
SplineSet
598 607 m 0,0,1
 598 626 598 626 585 631.5 c 128,-1,2
 572 637 572 637 525 644 c 1,3,-1
 525 669 l 1,4,-1
 823 669 l 1,5,-1
 823 644 l 1,6,7
 788 639 788 639 772.5 628 c 128,-1,8
 757 617 757 617 747 587 c 1,9,-1
 803 587 l 1,10,-1
 789 525 l 1,11,-1
 729 525 l 1,12,-1
 627 153 l 2,13,14
 608 84 608 84 608 66 c 0,15,16
 608 44 608 44 624 35.5 c 128,-1,17
 640 27 640 27 681 25 c 1,18,-1
 681 0 l 1,19,-1
 364 0 l 1,20,-1
 364 25 l 1,21,22
 414 28 414 28 434 42 c 128,-1,23
 454 56 454 56 465 97 c 2,24,-1
 529 329 l 1,25,-1
 290 329 l 1,26,-1
 240 148 l 2,27,28
 239 144 239 144 231 113.5 c 128,-1,29
 223 83 223 83 223 68 c 0,30,31
 223 44 223 44 236 36.5 c 128,-1,32
 249 29 249 29 296 25 c 1,33,-1
 296 0 l 1,34,-1
 0 0 l 1,35,-1
 0 25 l 1,36,37
 38 30 38 30 54 44 c 128,-1,38
 70 58 70 58 80 97 c 2,39,-1
 198 525 l 1,40,-1
 104 525 l 1,41,-1
 118 587 l 1,42,-1
 212 587 l 1,43,44
 213 596 213 596 213 604 c 0,45,46
 213 625 213 625 198.5 631.5 c 128,-1,47
 184 638 184 638 140 644 c 1,48,-1
 140 669 l 1,49,-1
 457 669 l 1,50,-1
 457 644 l 1,51,52
 413 643 413 643 392.5 631 c 128,-1,53
 372 619 372 619 361 587 c 1,54,-1
 596 587 l 1,55,56
 598 600 598 600 598 607 c 0,0,1
582 525 m 1,57,-1
 343 525 l 1,58,-1
 302 373 l 1,59,-1
 541 373 l 1,60,-1
 582 525 l 1,57,-1
EndSplineSet
EndChar

StartChar: hbar
Encoding: 295 295 233
Width: 547
GlyphClass: 2
Flags: W
LayerCount: 2
Fore
SplineSet
220 283 m 1,0,1
 252 328 252 328 271 353 c 128,-1,2
 290 378 290 378 318 407 c 128,-1,3
 346 436 346 436 373.5 449 c 128,-1,4
 401 462 401 462 432 462 c 0,5,6
 467 462 467 462 487.5 442 c 128,-1,7
 508 422 508 422 508 387 c 0,8,9
 508 357 508 357 478 265 c 2,10,-1
 420 87 l 2,11,12
 417 78 417 78 417 75 c 0,13,14
 417 70 417 70 423 64.5 c 128,-1,15
 429 59 429 59 434 59 c 0,16,17
 451 59 451 59 509 142 c 1,18,-1
 531 127 l 1,19,20
 481 50 481 50 445.5 20.5 c 128,-1,21
 410 -9 410 -9 364 -9 c 0,22,23
 335 -9 335 -9 316.5 7 c 128,-1,24
 298 23 298 23 298 49 c 0,25,26
 298 83 298 83 311 130.5 c 128,-1,27
 324 178 324 178 357 275 c 0,28,29
 366 300 366 300 370 313 c 0,30,31
 381 344 381 344 381 346 c 0,32,33
 386 361 386 361 386 369 c 128,-1,34
 386 377 386 377 379.5 383.5 c 128,-1,35
 373 390 373 390 364 390 c 0,36,37
 325 390 325 390 263 301 c 0,38,39
 225 246 225 246 202 189 c 128,-1,40
 179 132 179 132 141 0 c 1,41,-1
 20 0 l 1,42,-1
 162 525 l 1,43,-1
 73 525 l 1,44,-1
 87 587 l 1,45,-1
 179 587 l 1,46,47
 182 603 182 603 182 610 c 0,48,49
 182 643 182 643 141 643 c 0,50,51
 127 643 127 643 119 642 c 1,52,-1
 119 669 l 1,53,54
 216 677 216 677 327 699 c 1,55,-1
 298 587 l 1,56,-1
 492 587 l 1,57,-1
 478 525 l 1,58,-1
 282 525 l 1,59,-1
 220 283 l 1,0,1
EndSplineSet
EndChar

StartChar: Iogonek
Encoding: 302 302 240
Width: 421
GlyphClass: 2
Flags: W
AnchorPoint: "Anchor-2" 313 668 basechar 0
LayerCount: 2
Fore
SplineSet
213 607 m 0,0,1
 213 626 213 626 200 631.5 c 128,-1,2
 187 637 187 637 140 644 c 1,3,-1
 140 669 l 1,4,-1
 438 669 l 1,5,-1
 438 644 l 1,6,7
 399 639 399 639 382.5 625 c 128,-1,8
 366 611 366 611 356 572 c 2,9,-1
 242 152 l 2,10,11
 224 84 224 84 224 65 c 0,12,13
 224 44 224 44 239 35.5 c 128,-1,14
 254 27 254 27 296 25 c 1,15,-1
 296 0 l 1,16,17
 276 -17 276 -17 276 -45 c 0,18,19
 276 -72 276 -72 293 -88 c 128,-1,20
 310 -104 310 -104 339 -104 c 0,21,22
 352 -104 352 -104 363 -100.5 c 128,-1,23
 374 -97 374 -97 384.5 -91 c 128,-1,24
 395 -85 395 -85 399 -84 c 1,25,-1
 421 -98 l 1,26,27
 402 -132 402 -132 369 -152.5 c 128,-1,28
 336 -173 336 -173 298 -173 c 0,29,30
 252 -173 252 -173 222 -150 c 128,-1,31
 192 -127 192 -127 192 -92 c 128,-1,32
 192 -57 192 -57 235 0 c 1,33,-1
 0 0 l 1,34,-1
 0 25 l 1,35,36
 37 30 37 30 53.5 44 c 128,-1,37
 70 58 70 58 80 97 c 2,38,-1
 203 546 l 2,39,40
 213 582 213 582 213 607 c 0,0,1
EndSplineSet
EndChar

StartChar: iogonek
Encoding: 303 303 241
Width: 292
GlyphClass: 2
Flags: W
AnchorPoint: "Anchor-2" 239 668 basechar 0
LayerCount: 2
Fore
SplineSet
234 -104 m 0,0,1
 247 -104 247 -104 258 -100.5 c 128,-1,2
 269 -97 269 -97 281 -90.5 c 128,-1,3
 293 -84 293 -84 294 -84 c 2,4,-1
 316 -98 l 1,5,6
 297 -132 297 -132 264 -152.5 c 128,-1,7
 231 -173 231 -173 193 -173 c 0,8,9
 147 -173 147 -173 117 -150 c 128,-1,10
 87 -127 87 -127 87 -92 c 0,11,12
 87 -59 87 -59 124 -8 c 1,13,14
 117 -9 117 -9 107 -9 c 0,15,16
 78 -9 78 -9 59 8.5 c 128,-1,17
 40 26 40 26 40 54 c 0,18,19
 40 78 40 78 53 123 c 2,20,-1
 111 338 l 1,21,22
 118 368 118 368 118 378 c 0,23,24
 118 394 118 394 104.5 400.5 c 128,-1,25
 91 407 91 407 59 407 c 1,26,-1
 59 434 l 1,27,28
 175 443 175 443 261 462 c 1,29,-1
 170 128 l 2,30,31
 161 92 161 92 161 76 c 0,32,33
 161 70 161 70 165.5 65.5 c 128,-1,34
 170 61 170 61 176 61 c 0,35,36
 200 61 200 61 240 121 c 1,37,-1
 254 141 l 1,38,-1
 276 127 l 1,39,40
 248 84 248 84 218.5 51.5 c 128,-1,41
 189 19 189 19 180 4 c 128,-1,42
 171 -11 171 -11 171 -40 c 0,43,44
 171 -104 171 -104 234 -104 c 0,0,1
232 685 m 0,45,46
 260 685 260 685 280.5 665 c 128,-1,47
 301 645 301 645 301 617 c 128,-1,48
 301 589 301 589 281 569.5 c 128,-1,49
 261 550 261 550 232 550 c 0,50,51
 204 550 204 550 185 570 c 128,-1,52
 166 590 166 590 166 619 c 0,53,54
 166 645 166 645 186 665 c 128,-1,55
 206 685 206 685 232 685 c 0,45,46
EndSplineSet
MultipleSubs2: "Multiple Substitution lookup 0 subtable" dotlessi ogonekcmb
EndChar

StartChar: dotlessi
Encoding: 305 305 243
Width: 292
GlyphClass: 2
Flags: W
AnchorPoint: "Anchor-4" 129 0 basechar 0
AnchorPoint: "Anchor-3" 111 0 basechar 0
AnchorPoint: "Anchor-2" 201 449 basechar 0
LayerCount: 2
Fore
SplineSet
254 141 m 1,0,-1
 276 127 l 1,1,2
 223 48 223 48 188.5 19.5 c 128,-1,3
 154 -9 154 -9 109 -9 c 0,4,5
 78 -9 78 -9 59 8.5 c 128,-1,6
 40 26 40 26 40 54 c 0,7,8
 40 78 40 78 53 123 c 2,9,-1
 111 338 l 1,10,11
 118 368 118 368 118 378 c 0,12,13
 118 394 118 394 104.5 400.5 c 128,-1,14
 91 407 91 407 59 407 c 1,15,-1
 59 434 l 1,16,17
 175 443 175 443 261 462 c 1,18,-1
 170 128 l 2,19,20
 161 92 161 92 161 76 c 0,21,22
 161 70 161 70 165.5 65.5 c 128,-1,23
 170 61 170 61 176 61 c 0,24,25
 200 61 200 61 240 121 c 1,26,-1
 254 141 l 1,0,-1
EndSplineSet
EndChar

StartChar: ij
Encoding: 307 307 245
Width: 516
GlyphClass: 3
Flags: W
LayerCount: 2
Fore
SplineSet
492 685 m 0,0,1
 520 685 520 685 540.5 665 c 128,-1,2
 561 645 561 645 561 617 c 128,-1,3
 561 589 561 589 541 569.5 c 128,-1,4
 521 550 521 550 492 550 c 0,5,6
 464 550 464 550 445 570 c 128,-1,7
 426 590 426 590 426 619 c 0,8,9
 426 645 426 645 446 665 c 128,-1,10
 466 685 466 685 492 685 c 0,0,1
222 685 m 0,11,12
 250 685 250 685 270.5 665 c 128,-1,13
 291 645 291 645 291 617 c 128,-1,14
 291 589 291 589 271 569.5 c 128,-1,15
 251 550 251 550 222 550 c 0,16,17
 194 550 194 550 175 570 c 128,-1,18
 156 590 156 590 156 619 c 0,19,20
 156 645 156 645 176 665 c 128,-1,21
 196 685 196 685 222 685 c 0,11,12
180 63 m 0,22,23
 202 63 202 63 250 114.5 c 128,-1,24
 298 166 298 166 339.5 242.5 c 128,-1,25
 381 319 381 319 381 376 c 0,26,27
 381 395 381 395 373 401.5 c 128,-1,28
 365 408 365 408 349 408 c 0,29,30
 335 408 335 408 328 407 c 1,31,-1
 328 434 l 1,32,33
 459 445 459 445 536 462 c 1,34,-1
 422 24 l 2,35,36
 362 -207 362 -207 214 -207 c 0,37,38
 173 -207 173 -207 140.5 -187.5 c 128,-1,39
 108 -168 108 -168 108 -130 c 0,40,41
 108 -109 108 -109 122.5 -93 c 128,-1,42
 137 -77 137 -77 157 -77 c 128,-1,43
 177 -77 177 -77 191.5 -91.5 c 128,-1,44
 206 -106 206 -106 206 -126 c 0,45,46
 206 -138 206 -138 198.5 -150 c 128,-1,47
 191 -162 191 -162 191 -164 c 0,48,49
 191 -169 191 -169 199.5 -172.5 c 128,-1,50
 208 -176 208 -176 213 -176 c 0,51,52
 222 -176 222 -176 230.5 -171 c 128,-1,53
 239 -166 239 -166 246 -155.5 c 128,-1,54
 253 -145 253 -145 258 -135 c 128,-1,55
 263 -125 263 -125 268 -110 c 128,-1,56
 273 -95 273 -95 275.5 -85.5 c 128,-1,57
 278 -76 278 -76 281.5 -62.5 c 128,-1,58
 285 -49 285 -49 286 -45 c 2,59,-1
 344 178 l 2,60,61
 345 182 345 182 347.5 191 c 128,-1,62
 350 200 350 200 351 204 c 1,63,64
 323 160 323 160 306 135.5 c 128,-1,65
 289 111 289 111 255.5 71 c 128,-1,66
 222 31 222 31 187 11 c 128,-1,67
 152 -9 152 -9 115 -9 c 0,68,69
 37 -9 37 -9 37 69 c 0,70,71
 37 108 37 108 73.5 226.5 c 128,-1,72
 110 345 110 345 110 375 c 0,73,74
 110 407 110 407 63 407 c 2,75,-1
 51 407 l 1,76,-1
 51 434 l 1,77,78
 168 443 168 443 253 462 c 1,79,80
 166 144 166 144 163 130 c 1,81,82
 157 130 157 130 157 87 c 0,83,84
 157 63 157 63 180 63 c 0,22,23
EndSplineSet
Ligature2: "'liga' Standard Ligatures in Latin lookup 10 subtable" i j
EndChar

StartChar: kgreenlandic
Encoding: 312 312 250
Width: 514
GlyphClass: 2
Flags: W
LayerCount: 2
Fore
SplineSet
117 376 m 0,0,1
 117 394 117 394 105 400 c 128,-1,2
 93 406 93 406 62 407 c 1,3,-1
 62 434 l 1,4,5
 151 437 151 437 260 461 c 1,6,-1
 204 261 l 1,7,-1
 225 261 l 2,8,9
 247 261 247 261 278.5 296 c 128,-1,10
 310 331 310 331 333 368 c 0,11,12
 398 470 398 470 473 470 c 0,13,14
 512 470 512 470 523 456 c 128,-1,15
 534 442 534 442 534 410 c 0,16,17
 534 388 534 388 516.5 374.5 c 128,-1,18
 499 361 499 361 475 361 c 0,19,20
 461 361 461 361 452.5 366.5 c 128,-1,21
 444 372 444 372 442 378.5 c 128,-1,22
 440 385 440 385 435 390.5 c 128,-1,23
 430 396 430 396 421 396 c 0,24,25
 409 396 409 396 393 376 c 128,-1,26
 377 356 377 356 363.5 330.5 c 128,-1,27
 350 305 350 305 329 278.5 c 128,-1,28
 308 252 308 252 287 243 c 1,29,30
 311 242 311 242 332.5 231 c 128,-1,31
 354 220 354 220 361 200 c 2,32,-1
 419 39 l 2,33,34
 425 24 425 24 444 24 c 1,35,-1
 438 0 l 1,36,-1
 290 0 l 1,37,-1
 234 168 l 1,38,39
 222 214 222 214 201 214 c 2,40,-1
 191 214 l 1,41,-1
 133 0 l 1,42,-1
 14 0 l 1,43,-1
 106 328 l 2,44,45
 117 369 117 369 117 376 c 0,0,1
EndSplineSet
EndChar

StartChar: Lcaron
Encoding: 317 317 255
Width: 638
GlyphClass: 2
Flags: W
LayerCount: 2
Fore
SplineSet
462 481 m 1,0,-1
 563 655 l 2,1,2
 580 685 580 685 614 685 c 0,3,4
 633 685 633 685 644 674 c 128,-1,5
 655 663 655 663 655 645 c 0,6,7
 655 617 655 617 624 586 c 2,8,-1
 518 481 l 1,9,-1
 462 481 l 1,0,-1
213 607 m 0,10,11
 213 626 213 626 200 631.5 c 128,-1,12
 187 637 187 637 140 644 c 1,13,-1
 140 669 l 1,14,-1
 457 669 l 1,15,-1
 457 644 l 1,16,17
 407 641 407 641 387 627 c 128,-1,18
 367 613 367 613 356 572 c 2,19,-1
 227 94 l 2,20,21
 222 76 222 76 222 62 c 0,22,23
 222 32 222 32 286 32 c 0,24,25
 411 32 411 32 493 90 c 0,26,27
 522 111 522 111 542.5 134 c 128,-1,28
 563 157 563 157 588 199 c 1,29,-1
 612 194 l 1,30,-1
 553 0 l 1,31,-1
 0 0 l 1,32,-1
 0 25 l 1,33,34
 37 30 37 30 53.5 44.5 c 128,-1,35
 70 59 70 59 80 97 c 2,36,-1
 203 546 l 2,37,38
 213 582 213 582 213 607 c 0,10,11
EndSplineSet
EndChar

StartChar: lcaron
Encoding: 318 318 256
Width: 382
GlyphClass: 2
Flags: W
LayerCount: 2
Fore
SplineSet
322 481 m 1,0,-1
 423 655 l 2,1,2
 440 685 440 685 474 685 c 0,3,4
 493 685 493 685 504 674 c 128,-1,5
 515 663 515 663 515 645 c 0,6,7
 515 617 515 617 484 586 c 2,8,-1
 378 481 l 1,9,-1
 322 481 l 1,0,-1
256 141 m 1,10,-1
 278 127 l 1,11,12
 226 48 226 48 190.5 19.5 c 128,-1,13
 155 -9 155 -9 109 -9 c 0,14,15
 79 -9 79 -9 60.5 7.5 c 128,-1,16
 42 24 42 24 42 51 c 0,17,18
 42 86 42 86 76 209 c 2,19,-1
 150 473 l 1,20,21
 184 587 184 587 184 615 c 0,22,23
 184 644 184 644 150 644 c 0,24,25
 139 644 139 644 121 642 c 1,26,-1
 121 669 l 1,27,28
 229 679 229 679 330 699 c 1,29,-1
 185 176 l 2,30,31
 163 94 163 94 163 76 c 0,32,33
 163 70 163 70 167.5 65.5 c 128,-1,34
 172 61 172 61 178 61 c 0,35,36
 202 61 202 61 256 141 c 1,10,-1
EndSplineSet
EndChar

StartChar: Lslash
Encoding: 321 321 259
Width: 609
GlyphClass: 2
Flags: W
LayerCount: 2
Fore
SplineSet
213 607 m 0,0,1
 213 626 213 626 200 631.5 c 128,-1,2
 187 637 187 637 140 644 c 1,3,-1
 140 669 l 1,4,-1
 457 669 l 1,5,-1
 457 644 l 1,6,7
 407 641 407 641 387 627 c 128,-1,8
 367 613 367 613 356 572 c 2,9,-1
 312 410 l 1,10,-1
 462 491 l 1,11,-1
 441 421 l 1,12,-1
 293 338 l 1,13,-1
 227 94 l 2,14,15
 222 76 222 76 222 62 c 0,16,17
 222 32 222 32 286 32 c 0,18,19
 411 32 411 32 493 90 c 0,20,21
 522 111 522 111 542.5 134 c 128,-1,22
 563 157 563 157 588 199 c 1,23,-1
 612 194 l 1,24,-1
 553 0 l 1,25,-1
 0 0 l 1,26,-1
 0 25 l 1,27,28
 38 30 38 30 54 44 c 128,-1,29
 70 58 70 58 80 97 c 2,30,-1
 130 278 l 1,31,-1
 26 222 l 1,32,-1
 48 292 l 1,33,-1
 148 345 l 1,34,-1
 203 546 l 2,35,36
 213 582 213 582 213 607 c 0,0,1
EndSplineSet
EndChar

StartChar: lslash
Encoding: 322 322 260
Width: 304
GlyphClass: 2
Flags: W
LayerCount: 2
Fore
SplineSet
266 141 m 1,0,-1
 288 127 l 1,1,2
 236 48 236 48 201 19.5 c 128,-1,3
 166 -9 166 -9 120 -9 c 0,4,5
 89 -9 89 -9 70.5 7.5 c 128,-1,6
 52 24 52 24 52 53 c 0,7,8
 52 87 52 87 114 309 c 1,9,-1
 37 266 l 1,10,-1
 56 336 l 1,11,-1
 134 379 l 1,12,13
 194 591 194 591 194 615 c 0,14,15
 194 643 194 643 152 643 c 0,16,17
 142 643 142 643 131 642 c 1,18,-1
 131 669 l 1,19,20
 227 678 227 678 340 699 c 1,21,-1
 265 427 l 1,22,-1
 351 474 l 1,23,-1
 332 406 l 1,24,-1
 246 359 l 1,25,-1
 195 176 l 2,26,27
 173 96 173 96 173 76 c 0,28,29
 173 70 173 70 177.5 65.5 c 128,-1,30
 182 61 182 61 188 61 c 0,31,32
 201 61 201 61 218.5 78.5 c 128,-1,33
 236 96 236 96 266 141 c 1,0,-1
EndSplineSet
EndChar

StartChar: Eng
Encoding: 330 330 268
Width: 793
GlyphClass: 2
Flags: W
LayerCount: 2
Fore
SplineSet
482 135 m 0,0,1
 482 106 482 106 458 82 c 128,-1,2
 434 58 434 58 434 45 c 0,3,4
 434 20 434 20 471 20 c 0,5,6
 512 20 512 20 561 99 c 128,-1,7
 610 178 610 178 643 289.5 c 128,-1,8
 676 401 676 401 676 488 c 128,-1,9
 676 575 676 575 649.5 602 c 128,-1,10
 623 629 623 629 573 629 c 0,11,12
 515 629 515 629 458.5 597 c 128,-1,13
 402 565 402 565 334 488 c 1,14,-1
 235 125 l 2,15,16
 224 85 224 85 224 65 c 0,17,18
 224 44 224 44 237 36.5 c 128,-1,19
 250 29 250 29 296 25 c 1,20,-1
 296 0 l 1,21,-1
 0 0 l 1,22,-1
 0 25 l 1,23,24
 43 29 43 29 56 46.5 c 128,-1,25
 69 64 69 64 87 128 c 2,26,-1
 209 574 l 2,27,28
 214 592 214 592 214 605 c 0,29,30
 214 623 214 623 198.5 631 c 128,-1,31
 183 639 183 639 140 645 c 1,32,-1
 140 670 l 1,33,-1
 384 670 l 1,34,-1
 353 555 l 1,35,36
 460 686 460 686 596 686 c 0,37,38
 709 686 709 686 768 643.5 c 128,-1,39
 827 601 827 601 827 491 c 0,40,41
 827 390 827 390 794.5 295 c 128,-1,42
 762 200 762 200 711 133.5 c 128,-1,43
 660 67 660 67 597 27 c 128,-1,44
 534 -13 534 -13 474 -13 c 0,45,46
 410 -13 410 -13 371.5 14 c 128,-1,47
 333 41 333 41 333 87 c 128,-1,48
 333 133 333 133 364 162 c 128,-1,49
 395 191 395 191 427 191 c 0,50,51
 451 191 451 191 466.5 175 c 128,-1,52
 482 159 482 159 482 135 c 0,0,1
EndSplineSet
EndChar

StartChar: eng
Encoding: 331 331 269
Width: 495
GlyphClass: 2
Flags: W
AnchorPoint: "Anchor-2" 334 449 basechar 0
AnchorPoint: "Anchor-1" 268 237 basechar 0
AnchorPoint: "Anchor-0" 380 462 basechar 0
LayerCount: 2
Fore
SplineSet
490 383 m 0,0,1
 490 369 490 369 487 354 c 128,-1,2
 484 339 484 339 477.5 316.5 c 128,-1,3
 471 294 471 294 470 289 c 2,4,-1
 401 24 l 2,5,6
 341 -207 341 -207 193 -207 c 0,7,8
 152 -207 152 -207 119.5 -187.5 c 128,-1,9
 87 -168 87 -168 87 -130 c 0,10,11
 87 -109 87 -109 101.5 -93 c 128,-1,12
 116 -77 116 -77 136 -77 c 128,-1,13
 156 -77 156 -77 170.5 -91.5 c 128,-1,14
 185 -106 185 -106 185 -126 c 0,15,16
 185 -138 185 -138 177.5 -150 c 128,-1,17
 170 -162 170 -162 170 -164 c 0,18,19
 170 -169 170 -169 178.5 -172.5 c 128,-1,20
 187 -176 187 -176 192 -176 c 0,21,22
 201 -176 201 -176 209.5 -171 c 128,-1,23
 218 -166 218 -166 225 -155.5 c 128,-1,24
 232 -145 232 -145 237 -135 c 128,-1,25
 242 -125 242 -125 247 -110 c 128,-1,26
 252 -95 252 -95 254.5 -85.5 c 128,-1,27
 257 -76 257 -76 260.5 -62.5 c 128,-1,28
 264 -49 264 -49 265 -45 c 2,29,-1
 357 310 l 1,30,31
 370 365 370 365 370 368 c 0,32,33
 370 377 370 377 362 383.5 c 128,-1,34
 354 390 354 390 345 390 c 0,35,36
 310 390 310 390 272.5 340.5 c 128,-1,37
 235 291 235 291 205.5 217 c 128,-1,38
 176 143 176 143 158.5 90.5 c 128,-1,39
 141 38 141 38 131 0 c 1,40,-1
 10 0 l 1,41,42
 12 8 12 8 40.5 107 c 128,-1,43
 69 206 69 206 90.5 285.5 c 128,-1,44
 112 365 112 365 112 381 c 0,45,46
 112 407 112 407 66 407 c 2,47,-1
 58 407 l 1,48,-1
 58 434 l 1,49,50
 136 434 136 434 258 461 c 1,51,-1
 198 275 l 1,52,-1
 201 273 l 1,53,54
 204 278 204 278 219.5 301 c 128,-1,55
 235 324 235 324 241 333 c 128,-1,56
 247 342 247 342 263.5 363.5 c 128,-1,57
 280 385 280 385 289.5 395 c 128,-1,58
 299 405 299 405 316 420.5 c 128,-1,59
 333 436 333 436 347 443 c 128,-1,60
 361 450 361 450 378.5 456 c 128,-1,61
 396 462 396 462 414 462 c 0,62,63
 490 462 490 462 490 383 c 0,0,1
EndSplineSet
EndChar

StartChar: OE
Encoding: 338 338 276
Width: 875
GlyphClass: 2
Flags: W
LayerCount: 2
Fore
SplineSet
464 677 m 0,0,1
 476 677 476 677 534 673 c 128,-1,2
 592 669 592 669 611 669 c 2,3,-1
 946 669 l 1,4,-1
 900 478 l 1,5,-1
 875 484 l 1,6,7
 877 512 877 512 877 521 c 0,8,9
 877 637 877 637 712 637 c 0,10,11
 686 637 686 637 676.5 629 c 128,-1,12
 667 621 667 621 659 590 c 2,13,-1
 598 370 l 1,14,-1
 628 370 l 2,15,16
 693 370 693 370 728.5 393 c 128,-1,17
 764 416 764 416 787 473 c 1,18,-1
 814 470 l 1,19,-1
 742 198 l 1,20,-1
 715 203 l 1,21,22
 716 212 716 212 716 222 c 1,23,24
 719 248 719 248 719 263 c 0,25,26
 719 281 719 281 712 293.5 c 128,-1,27
 705 306 705 306 696.5 313 c 128,-1,28
 688 320 688 320 667 325 c 128,-1,29
 646 330 646 330 633 331.5 c 128,-1,30
 620 333 620 333 589 336 c 1,31,-1
 525 91 l 2,32,33
 521 73 521 73 521 66 c 0,34,35
 521 32 521 32 594 32 c 0,36,37
 682 32 682 32 740.5 70 c 128,-1,38
 799 108 799 108 851 199 c 1,39,-1
 878 194 l 1,40,-1
 818 0 l 1,41,-1
 494 0 l 1,42,43
 484 -1 484 -1 470 -1 c 2,44,-1
 448 -1 l 1,45,-1
 294 -8 l 1,46,-1
 274 -9 l 1,47,48
 213 -9 213 -9 166 7 c 128,-1,49
 119 23 119 23 92.5 46.5 c 128,-1,50
 66 70 66 70 50 103 c 128,-1,51
 34 136 34 136 28.5 164 c 128,-1,52
 23 192 23 192 23 223 c 0,53,54
 23 329 23 329 76 432 c 128,-1,55
 129 535 129 535 217 602 c 1,56,57
 273 643 273 643 328 660 c 128,-1,58
 383 677 383 677 464 677 c 0,0,1
392 123 m 2,59,-1
 500 514 l 2,60,61
 512 559 512 559 512 582 c 0,62,63
 512 645 512 645 439 645 c 0,64,65
 352 645 352 645 281 545 c 1,66,67
 234 477 234 477 199 361.5 c 128,-1,68
 164 246 164 246 164 158 c 0,69,70
 164 97 164 97 197 60.5 c 128,-1,71
 230 24 230 24 285 24 c 0,72,73
 328 24 328 24 352.5 46.5 c 128,-1,74
 377 69 377 69 392 123 c 2,59,-1
EndSplineSet
EndChar

StartChar: oe
Encoding: 339 339 277
Width: 680
GlyphClass: 2
Flags: W
LayerCount: 2
Fore
SplineSet
15 144 m 0,0,1
 15 213 15 213 51 285.5 c 128,-1,2
 87 358 87 358 157 410 c 128,-1,3
 227 462 227 462 309 462 c 0,4,5
 349 462 349 462 375.5 448 c 128,-1,6
 402 434 402 434 425 400 c 1,7,8
 469 435 469 435 500.5 448.5 c 128,-1,9
 532 462 532 462 571 462 c 0,10,11
 623 462 623 462 653 437.5 c 128,-1,12
 683 413 683 413 683 371 c 0,13,14
 683 301 683 301 596 245 c 0,15,16
 562 223 562 223 531 212 c 128,-1,17
 500 201 500 201 423 184 c 1,18,19
 415 147 415 147 415 128 c 0,20,21
 415 50 415 50 482 50 c 0,22,23
 517 50 517 50 542 69 c 128,-1,24
 567 88 567 88 600 139 c 1,25,-1
 628 124 l 1,26,27
 616 101 616 101 606.5 86 c 128,-1,28
 597 71 597 71 573.5 44 c 128,-1,29
 550 17 550 17 516 2 c 128,-1,30
 482 -13 482 -13 440 -13 c 0,31,32
 377 -13 377 -13 323 44 c 1,33,34
 260 -13 260 -13 175 -13 c 0,35,36
 104 -13 104 -13 59.5 30.5 c 128,-1,37
 15 74 15 74 15 144 c 0,0,1
430 218 m 1,38,39
 514 243 514 243 554.5 289.5 c 128,-1,40
 595 336 595 336 595 392 c 0,41,42
 595 410 595 410 585 421 c 128,-1,43
 575 432 575 432 558 432 c 0,44,45
 540 432 540 432 524 418 c 128,-1,46
 508 404 508 404 490.5 367.5 c 128,-1,47
 473 331 473 331 462.5 305 c 128,-1,48
 452 279 452 279 430 218 c 1,38,39
186 16 m 0,49,50
 220 16 220 16 251.5 59 c 128,-1,51
 283 102 283 102 302.5 160.5 c 128,-1,52
 322 219 322 219 334 274 c 128,-1,53
 346 329 346 329 346 359 c 0,54,55
 346 433 346 433 291 433 c 0,56,57
 256 433 256 433 224 390 c 128,-1,58
 192 347 192 347 173.5 288 c 128,-1,59
 155 229 155 229 144 176.5 c 128,-1,60
 133 124 133 124 133 97 c 0,61,62
 133 16 133 16 186 16 c 0,49,50
EndSplineSet
EndChar

StartChar: Scedilla
Encoding: 350 350 288
Width: 508
GlyphClass: 2
Flags: W
LayerCount: 2
Fore
SplineSet
303 685 m 0,0,1
 337 685 337 685 389 670 c 128,-1,2
 441 655 441 655 452 655 c 0,3,4
 483 655 483 655 496 681 c 1,5,-1
 526 681 l 1,6,-1
 486 480 l 1,7,-1
 459 484 l 1,8,9
 449 572 449 572 418 611 c 128,-1,10
 387 650 387 650 327 650 c 0,11,12
 279 650 279 650 251 621.5 c 128,-1,13
 223 593 223 593 223 545 c 0,14,15
 223 511 223 511 238 488.5 c 128,-1,16
 253 466 253 466 300 431 c 0,17,18
 392 361 392 361 430 305 c 128,-1,19
 468 249 468 249 468 185 c 0,20,21
 468 91 468 91 405.5 36.5 c 128,-1,22
 343 -18 343 -18 236 -18 c 0,23,24
 217 -18 217 -18 202 -16 c 1,25,-1
 172 -62 l 1,26,27
 187 -59 187 -59 197 -59 c 0,28,29
 237 -59 237 -59 262.5 -79.5 c 128,-1,30
 288 -100 288 -100 288 -131 c 0,31,32
 288 -168 288 -168 252.5 -193 c 128,-1,33
 217 -218 217 -218 164 -218 c 0,34,35
 112 -218 112 -218 52 -193 c 1,36,-1
 74 -160 l 1,37,38
 111 -177 111 -177 141 -177 c 0,39,40
 167 -177 167 -177 182 -166 c 128,-1,41
 197 -155 197 -155 197 -136 c 0,42,43
 197 -119 197 -119 184.5 -109.5 c 128,-1,44
 172 -100 172 -100 150 -100 c 0,45,46
 135 -100 135 -100 120 -104 c 1,47,-1
 107 -92 l 1,48,-1
 163 -9 l 1,49,50
 77 17 77 17 70 17 c 0,51,52
 56 17 56 17 48.5 10.5 c 128,-1,53
 41 4 41 4 32 -18 c 1,54,-1
 2 -18 l 1,55,-1
 38 206 l 1,56,-1
 67 204 l 1,57,58
 79 16 79 16 221 16 c 0,59,60
 277 16 277 16 312 52.5 c 128,-1,61
 347 89 347 89 347 142 c 0,62,63
 347 177 347 177 322 210.5 c 128,-1,64
 297 244 297 244 261 273.5 c 128,-1,65
 225 303 225 303 188.5 333.5 c 128,-1,66
 152 364 152 364 127 405 c 128,-1,67
 102 446 102 446 102 491 c 0,68,69
 102 574 102 574 160 629.5 c 128,-1,70
 218 685 218 685 303 685 c 0,0,1
EndSplineSet
EndChar

StartChar: scedilla
Encoding: 351 351 289
Width: 337
GlyphClass: 2
Flags: W
LayerCount: 2
Fore
SplineSet
142 376 m 0,0,1
 142 355 142 355 163.5 323.5 c 128,-1,2
 185 292 185 292 210.5 263 c 128,-1,3
 236 234 236 234 257.5 194 c 128,-1,4
 279 154 279 154 279 119 c 0,5,6
 279 63 279 63 236.5 25 c 128,-1,7
 194 -13 194 -13 133 -13 c 0,8,9
 122 -13 122 -13 114 -12 c 1,10,-1
 80 -62 l 1,11,12
 95 -59 95 -59 106 -59 c 0,13,14
 145 -59 145 -59 170.5 -79.5 c 128,-1,15
 196 -100 196 -100 196 -131 c 0,16,17
 196 -168 196 -168 160.5 -193 c 128,-1,18
 125 -218 125 -218 72 -218 c 0,19,20
 21 -218 21 -218 -40 -193 c 1,21,-1
 -18 -160 l 1,22,23
 19 -177 19 -177 49 -177 c 0,24,25
 75 -177 75 -177 90 -166 c 128,-1,26
 105 -155 105 -155 105 -136 c 0,27,28
 105 -119 105 -119 92.5 -109.5 c 128,-1,29
 80 -100 80 -100 58 -100 c 0,30,31
 44 -100 44 -100 28 -104 c 1,32,-1
 15 -92 l 1,33,-1
 75 -3 l 1,34,35
 69 -1 69 -1 68 -1 c 0,36,37
 47 7 47 7 37 7 c 0,38,39
 15 7 15 7 8 -13 c 1,40,-1
 -19 -13 l 1,41,-1
 3 153 l 1,42,-1
 30 150 l 1,43,44
 51 17 51 17 126 17 c 0,45,46
 150 17 150 17 166.5 32.5 c 128,-1,47
 183 48 183 48 183 71 c 0,48,49
 183 95 183 95 161.5 127 c 128,-1,50
 140 159 140 159 115 187.5 c 128,-1,51
 90 216 90 216 68.5 256.5 c 128,-1,52
 47 297 47 297 47 336 c 0,53,54
 47 393 47 393 83.5 427.5 c 128,-1,55
 120 462 120 462 181 462 c 0,56,57
 203 462 203 462 234.5 451 c 128,-1,58
 266 440 266 440 275 440 c 0,59,60
 286 440 286 440 291 443.5 c 128,-1,61
 296 447 296 447 304 461 c 1,62,-1
 333 461 l 1,63,-1
 310 308 l 1,64,-1
 283 310 l 1,65,66
 271 372 271 372 250 400.5 c 128,-1,67
 229 429 229 429 195 429 c 0,68,69
 171 429 171 429 156.5 414.5 c 128,-1,70
 142 400 142 400 142 376 c 0,0,1
EndSplineSet
EndChar

StartChar: Tcedilla
Encoding: 354 354 292
Width: 593
GlyphClass: 2
Flags: W
LayerCount: 2
Fore
SplineSet
689 669 m 1,0,-1
 653 477 l 1,1,-1
 626 479 l 1,2,3
 622 562 622 562 590.5 597.5 c 128,-1,4
 559 633 559 633 488 634 c 1,5,-1
 348 128 l 2,6,7
 337 87 337 87 337 66 c 0,8,9
 337 42 337 42 352 34.5 c 128,-1,10
 367 27 367 27 420 25 c 1,11,-1
 420 0 l 1,12,-1
 239 0 l 1,13,-1
 195 -66 l 1,14,15
 210 -63 210 -63 221 -63 c 0,16,17
 260 -63 260 -63 285.5 -83.5 c 128,-1,18
 311 -104 311 -104 311 -135 c 0,19,20
 311 -172 311 -172 275.5 -197 c 128,-1,21
 240 -222 240 -222 187 -222 c 0,22,23
 136 -222 136 -222 75 -197 c 1,24,-1
 97 -164 l 1,25,26
 134 -181 134 -181 164 -181 c 0,27,28
 190 -181 190 -181 205 -170 c 128,-1,29
 220 -159 220 -159 220 -140 c 0,30,31
 220 -123 220 -123 207.5 -113.5 c 128,-1,32
 195 -104 195 -104 173 -104 c 0,33,34
 159 -104 159 -104 143 -108 c 1,35,-1
 130 -96 l 1,36,-1
 195 0 l 1,37,-1
 89 0 l 1,38,-1
 89 25 l 1,39,-1
 103 25 l 2,40,41
 141 25 141 25 162 42 c 128,-1,42
 183 59 183 59 194 97 c 2,43,-1
 342 634 l 1,44,45
 265 632 265 632 214.5 599 c 128,-1,46
 164 566 164 566 125 491 c 1,47,-1
 100 498 l 1,48,-1
 138 669 l 1,49,-1
 689 669 l 1,0,-1
EndSplineSet
EndChar

StartChar: tcedilla
Encoding: 355 355 293
Width: 286
GlyphClass: 2
Flags: W
LayerCount: 2
Fore
SplineSet
324 449 m 1,0,-1
 324 407 l 1,1,-1
 241 407 l 1,2,-1
 208 289 l 2,3,4
 154 96 154 96 154 76 c 0,5,6
 154 71 154 71 159 66 c 128,-1,7
 164 61 164 61 170 61 c 0,8,9
 195 61 195 61 246 141 c 1,10,-1
 268 127 l 1,11,12
 219 51 219 51 184 21.5 c 128,-1,13
 149 -8 149 -8 106 -9 c 1,14,-1
 70 -62 l 1,15,16
 85 -59 85 -59 96 -59 c 0,17,18
 135 -59 135 -59 160.5 -79.5 c 128,-1,19
 186 -100 186 -100 186 -131 c 0,20,21
 186 -168 186 -168 150.5 -193 c 128,-1,22
 115 -218 115 -218 62 -218 c 0,23,24
 11 -218 11 -218 -50 -193 c 1,25,-1
 -28 -160 l 1,26,27
 9 -177 9 -177 39 -177 c 0,28,29
 65 -177 65 -177 80 -166 c 128,-1,30
 95 -155 95 -155 95 -136 c 0,31,32
 95 -119 95 -119 82.5 -109.5 c 128,-1,33
 70 -100 70 -100 48 -100 c 0,34,35
 34 -100 34 -100 18 -104 c 1,36,-1
 5 -92 l 1,37,-1
 67 -2 l 1,38,39
 32 15 32 15 32 56 c 0,40,41
 32 87 32 87 56 169 c 2,42,-1
 124 407 l 1,43,-1
 73 407 l 1,44,-1
 73 442 l 1,45,46
 132 465 132 465 174 499 c 128,-1,47
 216 533 216 533 256 594 c 1,48,-1
 291 594 l 1,49,-1
 252 449 l 1,50,-1
 324 449 l 1,0,-1
EndSplineSet
EndChar

StartChar: tcaron
Encoding: 357 357 295
Width: 426
GlyphClass: 2
Flags: W
LayerCount: 2
Fore
SplineSet
313 481 m 1,0,-1
 414 655 l 2,1,2
 431 685 431 685 465 685 c 0,3,4
 484 685 484 685 495 674 c 128,-1,5
 506 663 506 663 506 645 c 0,6,7
 506 617 506 617 475 586 c 2,8,-1
 369 481 l 1,9,-1
 313 481 l 1,0,-1
324 449 m 1,10,-1
 324 407 l 1,11,-1
 241 407 l 1,12,-1
 208 289 l 2,13,14
 154 96 154 96 154 76 c 0,15,16
 154 71 154 71 159 66 c 128,-1,17
 164 61 164 61 170 61 c 0,18,19
 195 61 195 61 246 141 c 1,20,-1
 268 127 l 1,21,22
 218 50 218 50 182.5 20.5 c 128,-1,23
 147 -9 147 -9 102 -9 c 0,24,25
 70 -9 70 -9 51 9 c 128,-1,26
 32 27 32 27 32 56 c 0,27,28
 32 87 32 87 56 169 c 2,29,-1
 124 407 l 1,30,-1
 73 407 l 1,31,-1
 73 442 l 1,32,33
 132 465 132 465 174 499 c 128,-1,34
 216 533 216 533 256 594 c 1,35,-1
 291 594 l 1,36,-1
 252 449 l 1,37,-1
 324 449 l 1,10,-1
EndSplineSet
EndChar

StartChar: Tbar
Encoding: 358 358 296
Width: 593
GlyphClass: 2
Flags: W
LayerCount: 2
Fore
SplineSet
282 416 m 1,0,-1
 342 634 l 1,1,2
 265 632 265 632 214.5 599 c 128,-1,3
 164 566 164 566 125 491 c 1,4,-1
 100 498 l 1,5,-1
 138 669 l 1,6,-1
 689 669 l 1,7,-1
 653 477 l 1,8,-1
 626 479 l 1,9,10
 622 562 622 562 590.5 597.5 c 128,-1,11
 559 633 559 633 488 634 c 1,12,-1
 428 416 l 1,13,-1
 515 416 l 1,14,-1
 499 346 l 1,15,-1
 408 346 l 1,16,-1
 348 128 l 2,17,18
 337 87 337 87 337 66 c 0,19,20
 337 42 337 42 352 34.5 c 128,-1,21
 367 27 367 27 420 25 c 1,22,-1
 420 0 l 1,23,-1
 89 0 l 1,24,-1
 89 25 l 1,25,-1
 103 25 l 2,26,27
 141 25 141 25 162 42 c 128,-1,28
 183 59 183 59 194 97 c 2,29,-1
 263 346 l 1,30,-1
 173 346 l 1,31,-1
 190 416 l 1,32,-1
 282 416 l 1,0,-1
EndSplineSet
EndChar

StartChar: tbar
Encoding: 359 359 297
Width: 317
GlyphClass: 2
Flags: W
LayerCount: 2
Fore
SplineSet
117 322 m 1,0,-1
 141 407 l 1,1,-1
 90 407 l 1,2,-1
 90 442 l 1,3,4
 149 465 149 465 191 499 c 128,-1,5
 233 533 233 533 273 594 c 1,6,-1
 308 594 l 1,7,-1
 269 449 l 1,8,-1
 341 449 l 1,9,-1
 341 407 l 1,10,-1
 258 407 l 1,11,-1
 234 322 l 1,12,-1
 326 322 l 1,13,-1
 313 252 l 1,14,-1
 214 252 l 1,15,16
 171 104 171 104 171 76 c 0,17,18
 171 71 171 71 176 66 c 128,-1,19
 181 61 181 61 187 61 c 0,20,21
 212 61 212 61 263 141 c 1,22,-1
 285 127 l 1,23,24
 235 50 235 50 199.5 20.5 c 128,-1,25
 164 -9 164 -9 119 -9 c 0,26,27
 88 -9 88 -9 68.5 9 c 128,-1,28
 49 27 49 27 49 56 c 0,29,30
 49 87 49 87 73 169 c 2,31,-1
 97 252 l 1,32,-1
 45 252 l 1,33,-1
 59 322 l 1,34,-1
 117 322 l 1,0,-1
EndSplineSet
EndChar

StartChar: Uogonek
Encoding: 370 370 308
Width: 722
GlyphClass: 2
Flags: W
AnchorPoint: "Anchor-2" 471 668 basechar 0
LayerCount: 2
Fore
SplineSet
521 -104 m 0,0,1
 534 -104 534 -104 543.5 -101.5 c 128,-1,2
 553 -99 553 -99 565.5 -92 c 128,-1,3
 578 -85 578 -85 582 -84 c 1,4,-1
 604 -98 l 1,5,6
 585 -132 585 -132 552 -152.5 c 128,-1,7
 519 -173 519 -173 481 -173 c 0,8,9
 434 -173 434 -173 404 -150 c 128,-1,10
 374 -127 374 -127 374 -92 c 0,11,12
 374 -70 374 -70 385 -48 c 128,-1,13
 396 -26 396 -26 428 13 c 1,14,15
 366 -18 366 -18 289 -18 c 0,16,17
 191 -18 191 -18 129 28.5 c 128,-1,18
 67 75 67 75 67 148 c 0,19,20
 67 203 67 203 100 323 c 2,21,-1
 156 529 l 2,22,23
 171 584 171 584 171 605 c 0,24,25
 171 621 171 621 162 628.5 c 128,-1,26
 153 636 153 636 129 640 c 0,27,28
 126 640 126 640 98 644 c 1,29,-1
 98 669 l 1,30,-1
 409 669 l 1,31,-1
 409 644 l 1,32,33
 362 642 362 642 344.5 628.5 c 128,-1,34
 327 615 327 615 315 572 c 2,35,-1
 233 272 l 2,36,37
 205 170 205 170 205 139 c 0,38,39
 205 92 205 92 237.5 65 c 128,-1,40
 270 38 270 38 327 38 c 0,41,42
 409 38 409 38 460 98 c 1,43,44
 502 150 502 150 539 282 c 2,45,-1
 597 491 l 2,46,47
 616 562 616 562 616 588 c 128,-1,48
 616 614 616 614 597.5 627 c 128,-1,49
 579 640 579 640 536 644 c 1,50,-1
 536 669 l 1,51,-1
 744 669 l 1,52,-1
 744 644 l 1,53,54
 702 636 702 636 686 612.5 c 128,-1,55
 670 589 670 589 642 491 c 2,56,-1
 576 263 l 2,57,58
 569 241 569 241 563.5 223 c 128,-1,59
 558 205 558 205 553 190 c 128,-1,60
 548 175 548 175 545 165 c 128,-1,61
 542 155 542 155 537.5 145.5 c 128,-1,62
 533 136 533 136 531 131.5 c 128,-1,63
 529 127 529 127 525 120 c 128,-1,64
 521 113 521 113 519.5 111 c 128,-1,65
 518 109 518 109 513 101.5 c 128,-1,66
 508 94 508 94 507 92 c 2,67,-1
 487 62 l 2,68,69
 458 18 458 18 458 -42 c 0,70,71
 458 -104 458 -104 521 -104 c 0,0,1
EndSplineSet
EndChar

StartChar: uogonek
Encoding: 371 371 309
Width: 556
GlyphClass: 2
Flags: W
AnchorPoint: "Anchor-2" 321 449 basechar 0
LayerCount: 2
Fore
SplineSet
494 -104 m 0,0,1
 507 -104 507 -104 518 -100.5 c 128,-1,2
 529 -97 529 -97 541 -90.5 c 128,-1,3
 553 -84 553 -84 554 -84 c 2,4,-1
 576 -98 l 1,5,6
 557 -132 557 -132 524 -152.5 c 128,-1,7
 491 -173 491 -173 453 -173 c 0,8,9
 407 -173 407 -173 377 -150 c 128,-1,10
 347 -127 347 -127 347 -92 c 0,11,12
 347 -58 347 -58 387 -4 c 1,13,14
 367 -9 367 -9 351 -9 c 0,15,16
 286 -9 286 -9 286 51 c 0,17,18
 286 88 286 88 310 161 c 1,19,20
 233 53 233 53 196.5 22 c 128,-1,21
 160 -9 160 -9 110 -9 c 0,22,23
 35 -9 35 -9 35 65 c 0,24,25
 35 101 35 101 56 173 c 2,26,-1
 96 306 l 2,27,28
 110 351 110 351 110 379 c 0,29,30
 110 394 110 394 99 399.5 c 128,-1,31
 88 405 88 405 54 407 c 1,32,-1
 54 434 l 1,33,34
 114 436 114 436 263 462 c 1,35,-1
 169 154 l 2,36,37
 154 104 154 104 154 88 c 0,38,39
 154 63 154 63 175 63 c 0,40,41
 203 63 203 63 248 118 c 0,42,43
 291 172 291 172 319.5 238.5 c 128,-1,44
 348 305 348 305 390 449 c 1,45,-1
 508 449 l 1,46,-1
 430 181 l 1,47,48
 405 86 405 86 405 76 c 0,49,50
 405 59 405 59 419 59 c 0,51,52
 442 59 442 59 491 133 c 1,53,-1
 512 120 l 1,54,55
 496 92 496 92 472 61 c 128,-1,56
 448 30 448 30 439.5 10.5 c 128,-1,57
 431 -9 431 -9 431 -41 c 0,58,59
 431 -104 431 -104 494 -104 c 0,0,1
EndSplineSet
EndChar

StartChar: longs
Encoding: 383 383 321
Width: 485
GlyphClass: 2
Flags: W
LayerCount: 2
Fore
SplineSet
420 614 m 0,0,1
 420 627 420 627 428 640.5 c 128,-1,2
 436 654 436 654 436 656 c 0,3,4
 436 669 436 669 419 669 c 0,5,6
 363 669 363 669 328 520 c 2,7,-1
 214 30 l 1,8,9
 198 -22 198 -22 183 -56 c 128,-1,10
 168 -90 168 -90 143.5 -128 c 128,-1,11
 119 -166 119 -166 84 -185.5 c 128,-1,12
 49 -205 49 -205 4 -205 c 128,-1,13
 -41 -205 -41 -205 -68 -183.5 c 128,-1,14
 -95 -162 -95 -162 -95 -126 c 0,15,16
 -95 -104 -95 -104 -79.5 -88 c 128,-1,17
 -64 -72 -64 -72 -43 -72 c 0,18,19
 -24 -72 -24 -72 -9 -87 c 128,-1,20
 6 -102 6 -102 6 -120 c 0,21,22
 6 -134 6 -134 -2 -147 c 128,-1,23
 -10 -160 -10 -160 -10 -163 c 0,24,25
 -10 -174 -10 -174 8 -174 c 0,26,27
 44 -174 44 -174 62.5 -120.5 c 128,-1,28
 81 -67 81 -67 130 156 c 0,29,30
 163 307 163 307 186 407 c 1,31,-1
 113 407 l 1,32,-1
 122 449 l 1,33,-1
 195 449 l 1,34,35
 210 503 210 503 227 542 c 128,-1,36
 244 581 244 581 270 619.5 c 128,-1,37
 296 658 296 658 334 678 c 128,-1,38
 372 698 372 698 421 698 c 0,39,40
 466 698 466 698 493 676.5 c 128,-1,41
 520 655 520 655 520 618 c 0,42,43
 520 595 520 595 505.5 580 c 128,-1,44
 491 565 491 565 469 565 c 0,45,46
 449 565 449 565 434.5 579.5 c 128,-1,47
 420 594 420 594 420 614 c 0,0,1
EndSplineSet
Substitution2: "'fina' Terminal Forms in Latin lookup 9 subtable" s
EndChar

StartChar: uni0180
Encoding: 384 384 322
Width: 492
GlyphClass: 2
Flags: W
LayerCount: 2
Fore
SplineSet
494 336 m 0,0,1
 494 209 494 209 397 98 c 128,-1,2
 300 -13 300 -13 175 -13 c 0,3,4
 141 -13 141 -13 88.5 3.5 c 128,-1,5
 36 20 36 20 36 47 c 0,6,7
 36 59 36 59 65 163 c 128,-1,8
 94 267 94 267 131 393 c 128,-1,9
 168 519 168 519 170 527 c 1,10,-1
 85 527 l 1,11,-1
 97 571 l 1,12,-1
 181 571 l 1,13,14
 189 598 189 598 189 609 c 0,15,16
 189 643 189 643 143 643 c 0,17,18
 140 643 140 643 134 642.5 c 128,-1,19
 128 642 128 642 126 642 c 1,20,-1
 126 669 l 1,21,22
 250 683 250 683 334 699 c 1,23,-1
 299 571 l 1,24,-1
 385 571 l 1,25,-1
 373 527 l 1,26,-1
 287 527 l 1,27,-1
 246 378 l 1,28,-1
 248 376 l 1,29,30
 310 462 310 462 384 462 c 0,31,32
 436 462 436 462 465 425.5 c 128,-1,33
 494 389 494 389 494 336 c 0,0,1
369 326 m 0,34,35
 369 394 369 394 323 394 c 0,36,37
 285 394 285 394 244.5 320 c 128,-1,38
 204 246 204 246 181.5 166 c 128,-1,39
 159 86 159 86 159 51 c 0,40,41
 159 20 159 20 191 20 c 0,42,43
 242 20 242 20 285 79 c 128,-1,44
 328 138 328 138 348.5 207 c 128,-1,45
 369 276 369 276 369 326 c 0,34,35
EndSplineSet
EndChar

StartChar: uni0181
Encoding: 385 385 323
Width: 778
GlyphClass: 2
Flags: W
LayerCount: 2
Fore
SplineSet
787 525 m 0,0,1
 787 486 787 486 771.5 456 c 128,-1,2
 756 426 756 426 727 407 c 128,-1,3
 698 388 698 388 669 377 c 128,-1,4
 640 366 640 366 601 356 c 1,5,-1
 601 354 l 1,6,7
 665 334 665 334 700 301.5 c 128,-1,8
 735 269 735 269 735 208 c 0,9,10
 735 150 735 150 708.5 107.5 c 128,-1,11
 682 65 682 65 637.5 42.5 c 128,-1,12
 593 20 593 20 544 10 c 128,-1,13
 495 0 495 0 440 0 c 2,14,-1
 139 0 l 1,15,-1
 139 25 l 1,16,17
 176 30 176 30 192.5 45 c 128,-1,18
 209 60 209 60 219 97 c 2,19,-1
 366 637 l 1,20,21
 324 637 324 637 291.5 633 c 128,-1,22
 259 629 259 629 222 618 c 128,-1,23
 185 607 185 607 158.5 582.5 c 128,-1,24
 132 558 132 558 120 521 c 0,25,26
 119 518 119 518 119 513 c 0,27,28
 119 503 119 503 126 496 c 1,29,30
 130 496 130 496 139 499 c 128,-1,31
 148 502 148 502 152 502 c 0,32,33
 174 502 174 502 188 488 c 128,-1,34
 202 474 202 474 202 452 c 0,35,36
 202 432 202 432 187 418.5 c 128,-1,37
 172 405 172 405 152 405 c 0,38,39
 122 405 122 405 102 429 c 128,-1,40
 82 453 82 453 82 484 c 0,41,42
 82 536 82 536 110 574 c 128,-1,43
 138 612 138 612 183.5 631.5 c 128,-1,44
 229 651 229 651 275.5 660 c 128,-1,45
 322 669 322 669 369 669 c 2,46,-1
 551 669 l 2,47,48
 593 669 593 669 629.5 663.5 c 128,-1,49
 666 658 666 658 704 644 c 128,-1,50
 742 630 742 630 764.5 599.5 c 128,-1,51
 787 569 787 569 787 525 c 0,0,1
640 539 m 0,52,53
 640 637 640 637 550 637 c 0,54,55
 527 637 527 637 517.5 627 c 128,-1,56
 508 617 508 617 501 593 c 2,57,-1
 440 368 l 1,58,59
 489 370 489 370 522.5 377 c 128,-1,60
 556 384 556 384 584.5 402 c 128,-1,61
 613 420 613 420 626.5 454 c 128,-1,62
 640 488 640 488 640 539 c 0,52,53
582 225 m 0,63,64
 582 262 582 262 571.5 285.5 c 128,-1,65
 561 309 561 309 537.5 319.5 c 128,-1,66
 514 330 514 330 492 333.5 c 128,-1,67
 470 337 470 337 432 338 c 1,68,69
 429 327 429 327 408.5 258.5 c 128,-1,70
 388 190 388 190 374.5 137 c 128,-1,71
 361 84 361 84 361 63 c 0,72,73
 361 32 361 32 422 32 c 0,74,75
 496 32 496 32 539 90.5 c 128,-1,76
 582 149 582 149 582 225 c 0,63,64
EndSplineSet
EndChar

StartChar: uni0182
Encoding: 386 386 324
Width: 648
GlyphClass: 2
Flags: W
LayerCount: 2
Fore
SplineSet
237 607 m 0,0,1
 237 626 237 626 224 631.5 c 128,-1,2
 211 637 211 637 172 643 c 0,3,4
 167 644 167 644 164 644 c 1,5,-1
 164 669 l 1,6,-1
 711 669 l 1,7,-1
 668 479 l 1,8,-1
 641 479 l 1,9,10
 641 573 641 573 600.5 605 c 128,-1,11
 560 637 560 637 460 637 c 0,12,13
 398 637 398 637 385 588 c 2,14,-1
 336 404 l 1,15,16
 511 404 511 404 575 370 c 128,-1,17
 639 336 639 336 639 246 c 0,18,19
 639 166 639 166 588 108.5 c 128,-1,20
 537 51 537 51 461.5 25.5 c 128,-1,21
 386 0 386 0 298 0 c 2,22,-1
 24 0 l 1,23,-1
 24 25 l 1,24,25
 61 30 61 30 77 44 c 128,-1,26
 93 58 93 58 104 97 c 2,27,-1
 227 546 l 2,28,29
 237 582 237 582 237 607 c 0,0,1
328 374 m 1,30,-1
 250 93 l 2,31,32
 245 77 245 77 245 65 c 0,33,34
 245 32 245 32 294 32 c 0,35,36
 372 32 372 32 420 98.5 c 128,-1,37
 468 165 468 165 468 260 c 0,38,39
 468 374 468 374 358 374 c 2,40,-1
 328 374 l 1,30,-1
EndSplineSet
EndChar

StartChar: uni0183
Encoding: 387 387 325
Width: 486
GlyphClass: 2
Flags: W
LayerCount: 2
Fore
SplineSet
185 20 m 0,0,1
 231 20 231 20 273.5 73.5 c 128,-1,2
 316 127 316 127 340 197.5 c 128,-1,3
 364 268 364 268 364 325 c 0,4,5
 364 394 364 394 320 394 c 0,6,7
 286 394 286 394 253 346 c 128,-1,8
 220 298 220 298 199.5 235 c 128,-1,9
 179 172 179 172 166.5 118.5 c 128,-1,10
 154 65 154 65 154 47 c 0,11,12
 154 36 154 36 163 28 c 128,-1,13
 172 20 172 20 185 20 c 0,0,1
121 642 m 1,14,-1
 121 669 l 1,15,-1
 514 669 l 1,16,-1
 465 515 l 1,17,-1
 435 511 l 1,18,19
 443 549 443 549 443 567 c 0,20,21
 443 634 443 634 366 634 c 2,22,-1
 312 634 l 1,23,-1
 239 371 l 1,24,25
 277 421 277 421 308 441.5 c 128,-1,26
 339 462 339 462 377 462 c 0,27,28
 426 462 426 462 457.5 427.5 c 128,-1,29
 489 393 489 393 489 338 c 0,30,31
 489 204 489 204 390 95.5 c 128,-1,32
 291 -13 291 -13 169 -13 c 0,33,34
 120 -13 120 -13 75.5 6.5 c 128,-1,35
 31 26 31 26 31 47 c 0,36,37
 31 57 31 57 51 128 c 2,38,-1
 145 455 l 2,39,40
 184 592 184 592 184 612 c 0,41,42
 184 629 184 629 171 635.5 c 128,-1,43
 158 642 158 642 121 642 c 1,14,-1
EndSplineSet
EndChar

StartChar: uni0184
Encoding: 388 388 326
Width: 640
GlyphClass: 2
Flags: W
LayerCount: 2
Fore
SplineSet
596 208 m 0,0,1
 596 150 596 150 569.5 107.5 c 128,-1,2
 543 65 543 65 498.5 42.5 c 128,-1,3
 454 20 454 20 405 10 c 128,-1,4
 356 0 356 0 301 0 c 2,5,-1
 0 0 l 1,6,-1
 0 25 l 1,7,8
 37 30 37 30 53.5 45 c 128,-1,9
 70 60 70 60 80 97 c 2,10,-1
 161 398 l 1,11,12
 160 401 160 401 147.5 428.5 c 128,-1,13
 135 456 135 456 125.5 479.5 c 128,-1,14
 116 503 116 503 116 508 c 0,15,16
 116 517 116 517 128 525 c 0,17,18
 133 528 133 528 162.5 547.5 c 128,-1,19
 192 567 192 567 225.5 588.5 c 128,-1,20
 259 610 259 610 294.5 632.5 c 128,-1,21
 330 655 330 655 354.5 670 c 128,-1,22
 379 685 379 685 382 686 c 1,23,24
 384 684 384 684 384 679 c 0,25,26
 384 669 384 669 301 368 c 1,27,28
 331 368 331 368 353.5 367 c 128,-1,29
 376 366 376 366 408.5 362.5 c 128,-1,30
 441 359 441 359 465 353 c 128,-1,31
 489 347 489 347 515 335 c 128,-1,32
 541 323 541 323 557.5 306.5 c 128,-1,33
 574 290 574 290 585 265 c 128,-1,34
 596 240 596 240 596 208 c 0,0,1
443 225 m 0,35,36
 443 262 443 262 432.5 285.5 c 128,-1,37
 422 309 422 309 398.5 319.5 c 128,-1,38
 375 330 375 330 353 333.5 c 128,-1,39
 331 337 331 337 293 338 c 1,40,41
 290 327 290 327 269.5 258.5 c 128,-1,42
 249 190 249 190 235.5 137 c 128,-1,43
 222 84 222 84 222 63 c 0,44,45
 222 32 222 32 283 32 c 0,46,47
 357 32 357 32 400 90.5 c 128,-1,48
 443 149 443 149 443 225 c 0,35,36
EndSplineSet
EndChar

StartChar: uni0185
Encoding: 389 389 327
Width: 502
GlyphClass: 2
Flags: W
LayerCount: 2
Fore
SplineSet
504 336 m 0,0,1
 504 209 504 209 407 98 c 128,-1,2
 310 -13 310 -13 185 -13 c 0,3,4
 151 -13 151 -13 98.5 3.5 c 128,-1,5
 46 20 46 20 46 47 c 0,6,7
 46 59 46 59 67 134.5 c 128,-1,8
 88 210 88 210 116.5 307.5 c 128,-1,9
 145 405 145 405 146 407 c 1,10,11
 145 410 145 410 133 437 c 128,-1,12
 121 464 121 464 111.5 487 c 128,-1,13
 102 510 102 510 102 515 c 0,14,15
 102 526 102 526 212.5 613.5 c 128,-1,16
 323 701 323 701 338 703 c 1,17,18
 341 702 341 702 341 695 c 0,19,20
 341 690 341 690 322 620 c 128,-1,21
 303 550 303 550 280 466 c 128,-1,22
 257 382 257 382 256 378 c 1,23,-1
 258 376 l 1,24,25
 320 462 320 462 394 462 c 0,26,27
 446 462 446 462 475 425.5 c 128,-1,28
 504 389 504 389 504 336 c 0,0,1
379 326 m 0,29,30
 379 394 379 394 333 394 c 0,31,32
 295 394 295 394 254.5 320 c 128,-1,33
 214 246 214 246 191.5 166 c 128,-1,34
 169 86 169 86 169 51 c 0,35,36
 169 20 169 20 201 20 c 0,37,38
 252 20 252 20 295 79 c 128,-1,39
 338 138 338 138 358.5 207 c 128,-1,40
 379 276 379 276 379 326 c 0,29,30
EndSplineSet
EndChar

StartChar: uni0186
Encoding: 390 390 328
Width: 702
GlyphClass: 2
Flags: W
LayerCount: 2
Fore
SplineSet
407 643 m 0,0,1
 340 643 340 643 279 611.5 c 128,-1,2
 218 580 218 580 146 520 c 1,3,-1
 122 545 l 1,4,5
 211 622 211 622 281.5 656.5 c 128,-1,6
 352 691 352 691 443 691 c 0,7,8
 572 691 572 691 646.5 621 c 128,-1,9
 721 551 721 551 721 435 c 0,10,11
 721 358 721 358 687.5 278 c 128,-1,12
 654 198 654 198 596.5 131.5 c 128,-1,13
 539 65 539 65 453 23 c 128,-1,14
 367 -19 367 -19 271 -19 c 0,15,16
 227 -19 227 -19 186.5 -6.5 c 128,-1,17
 146 6 146 6 120 18 c 128,-1,18
 94 30 94 30 83 30 c 0,19,20
 57 30 57 30 27 -16 c 1,21,-1
 0 -16 l 1,22,-1
 59 218 l 1,23,-1
 84 218 l 1,24,25
 127 14 127 14 267 14 c 0,26,27
 331 14 331 14 383 55 c 128,-1,28
 435 96 435 96 465 154 c 128,-1,29
 495 212 495 212 516 281 c 128,-1,30
 537 350 537 350 544.5 401.5 c 128,-1,31
 552 453 552 453 552 484 c 0,32,33
 552 532 552 532 538 565.5 c 128,-1,34
 524 599 524 599 501 614.5 c 128,-1,35
 478 630 478 630 455.5 636.5 c 128,-1,36
 433 643 433 643 407 643 c 0,0,1
EndSplineSet
EndChar

StartChar: uni0187
Encoding: 391 391 329
Width: 870
GlyphClass: 2
Flags: W
LayerCount: 2
Fore
SplineSet
874 527 m 0,0,1
 854 527 854 527 841 538 c 128,-1,2
 828 549 828 549 828 569 c 0,3,4
 828 588 828 588 848 612.5 c 128,-1,5
 868 637 868 637 868 640 c 0,6,7
 868 659 868 659 834 659 c 128,-1,8
 800 659 800 659 774 646.5 c 128,-1,9
 748 634 748 634 732 616 c 128,-1,10
 716 598 716 598 703 568 c 128,-1,11
 690 538 690 538 684.5 515 c 128,-1,12
 679 492 679 492 672 458 c 0,13,14
 668 439 668 439 650 439 c 0,15,16
 634 439 634 439 634 460 c 0,17,18
 634 466 634 466 635.5 476.5 c 128,-1,19
 637 487 637 487 637 490 c 0,20,21
 637 561 637 561 586 605 c 128,-1,22
 535 649 535 649 463 649 c 0,23,24
 400 649 400 649 346.5 601.5 c 128,-1,25
 293 554 293 554 261.5 484.5 c 128,-1,26
 230 415 230 415 212.5 343 c 128,-1,27
 195 271 195 271 195 214 c 0,28,29
 195 137 195 137 231 86 c 128,-1,30
 267 35 267 35 339 35 c 0,31,32
 408 35 408 35 457.5 64 c 128,-1,33
 507 93 507 93 555 153 c 1,34,-1
 585 131 l 1,35,36
 538 61 538 61 467 21.5 c 128,-1,37
 396 -18 396 -18 313 -18 c 0,38,39
 194 -18 194 -18 117.5 52 c 128,-1,40
 41 122 41 122 41 240 c 0,41,42
 41 325 41 325 72 405.5 c 128,-1,43
 103 486 103 486 156 548 c 128,-1,44
 209 610 209 610 286 647.5 c 128,-1,45
 363 685 363 685 450 685 c 0,46,47
 522 685 522 685 581 651.5 c 128,-1,48
 640 618 640 618 661 554 c 1,49,50
 717 688 717 688 846 688 c 0,51,52
 888 688 888 688 921.5 668.5 c 128,-1,53
 955 649 955 649 955 610 c 0,54,55
 955 576 955 576 931.5 551.5 c 128,-1,56
 908 527 908 527 874 527 c 0,0,1
EndSplineSet
EndChar

StartChar: uni0188
Encoding: 392 392 330
Width: 600
GlyphClass: 2
Flags: W
LayerCount: 2
Fore
SplineSet
604 386 m 0,0,1
 584 386 584 386 571 397 c 128,-1,2
 558 408 558 408 558 428 c 0,3,4
 558 447 558 447 578 471.5 c 128,-1,5
 598 496 598 496 598 499 c 0,6,7
 598 518 598 518 564 518 c 0,8,9
 507 518 507 518 463 475 c 128,-1,10
 419 432 419 432 411 374 c 0,11,12
 407 339 407 339 394 320.5 c 128,-1,13
 381 302 381 302 348 302 c 0,14,15
 325 302 325 302 308 316.5 c 128,-1,16
 291 331 291 331 291 354 c 0,17,18
 291 369 291 369 301.5 388 c 128,-1,19
 312 407 312 407 312 412 c 0,20,21
 312 429 312 429 289 429 c 0,22,23
 258 429 258 429 229 395 c 128,-1,24
 200 361 200 361 182 314 c 128,-1,25
 164 267 164 267 153 221.5 c 128,-1,26
 142 176 142 176 142 148 c 0,27,28
 142 108 142 108 159.5 79.5 c 128,-1,29
 177 51 177 51 215 51 c 0,30,31
 276 51 276 51 337 141 c 1,32,-1
 365 123 l 1,33,34
 318 55 318 55 274.5 21 c 128,-1,35
 231 -13 231 -13 163 -13 c 0,36,37
 96 -13 96 -13 55 30.5 c 128,-1,38
 14 74 14 74 14 141 c 0,39,40
 14 211 14 211 52.5 285.5 c 128,-1,41
 91 360 91 360 158 411 c 128,-1,42
 225 462 225 462 296 462 c 0,43,44
 364 462 364 462 395 422 c 1,45,46
 449 547 449 547 576 547 c 0,47,48
 618 547 618 547 651.5 527.5 c 128,-1,49
 685 508 685 508 685 469 c 0,50,51
 685 435 685 435 661.5 410.5 c 128,-1,52
 638 386 638 386 604 386 c 0,0,1
EndSplineSet
EndChar

StartChar: uni018A
Encoding: 394 394 332
Width: 860
GlyphClass: 2
Flags: W
LayerCount: 2
Fore
SplineSet
867 391 m 0,0,1
 867 272 867 272 803.5 181 c 128,-1,2
 740 90 740 90 640 45 c 128,-1,3
 540 0 540 0 422 0 c 2,4,-1
 136 0 l 1,5,-1
 136 25 l 1,6,7
 173 30 173 30 189.5 45 c 128,-1,8
 206 60 206 60 216 97 c 2,9,-1
 363 637 l 1,10,11
 320 637 320 637 287.5 633.5 c 128,-1,12
 255 630 255 630 218 619 c 128,-1,13
 181 608 181 608 155 583 c 128,-1,14
 129 558 129 558 117 521 c 0,15,16
 116 518 116 518 116 513 c 0,17,18
 116 503 116 503 123 496 c 1,19,20
 128 496 128 496 136 499 c 128,-1,21
 144 502 144 502 149 502 c 0,22,23
 171 502 171 502 185 488 c 128,-1,24
 199 474 199 474 199 452 c 0,25,26
 199 432 199 432 184 418.5 c 128,-1,27
 169 405 169 405 149 405 c 0,28,29
 119 405 119 405 99 429 c 128,-1,30
 79 453 79 453 79 484 c 0,31,32
 79 536 79 536 107 574 c 128,-1,33
 135 612 135 612 180.5 631.5 c 128,-1,34
 226 651 226 651 272.5 660 c 128,-1,35
 319 669 319 669 366 669 c 2,36,-1
 566 669 l 2,37,38
 705 669 705 669 786 598 c 128,-1,39
 867 527 867 527 867 391 c 0,0,1
720 453 m 0,40,41
 720 638 720 638 558 638 c 0,42,43
 533 638 533 638 519.5 630.5 c 128,-1,44
 506 623 506 623 500 600 c 2,45,-1
 372 126 l 2,46,47
 359 77 359 77 359 69 c 0,48,49
 359 53 359 53 369.5 45 c 128,-1,50
 380 37 380 37 390.5 35.5 c 128,-1,51
 401 34 401 34 418 34 c 0,52,53
 481 34 481 34 532.5 60 c 128,-1,54
 584 86 584 86 618 128.5 c 128,-1,55
 652 171 652 171 675.5 226.5 c 128,-1,56
 699 282 699 282 709.5 339 c 128,-1,57
 720 396 720 396 720 453 c 0,40,41
EndSplineSet
EndChar

StartChar: uni018B
Encoding: 395 395 333
Width: 717
GlyphClass: 2
Flags: W
LayerCount: 2
Fore
SplineSet
409 374 m 2,0,1
 344 374 344 374 289.5 327.5 c 128,-1,2
 235 281 235 281 207.5 220.5 c 128,-1,3
 180 160 180 160 180 108 c 0,4,5
 180 32 180 32 267 32 c 0,6,7
 300 32 300 32 319 46 c 128,-1,8
 338 60 338 60 348 93 c 2,9,-1
 439 374 l 1,10,-1
 409 374 l 2,0,1
461 635 m 0,11,12
 415 635 415 635 377.5 629.5 c 128,-1,13
 340 624 340 624 312.5 610.5 c 128,-1,14
 285 597 285 597 266 586.5 c 128,-1,15
 247 576 247 576 230 554.5 c 128,-1,16
 213 533 213 533 207 524.5 c 128,-1,17
 201 516 201 516 189 492.5 c 128,-1,18
 177 469 177 469 176 468 c 1,19,-1
 152 468 l 1,20,-1
 218 669 l 1,21,-1
 792 669 l 1,22,-1
 777 644 l 1,23,24
 725 641 725 641 702 626 c 128,-1,25
 679 611 679 611 666 573 c 2,26,-1
 510 96 l 2,27,28
 504 78 504 78 504 67 c 0,29,30
 504 47 504 47 521.5 38.5 c 128,-1,31
 539 30 539 30 581 25 c 1,32,-1
 566 0 l 1,33,-1
 244 0 l 2,34,35
 138 0 138 0 77 37.5 c 128,-1,36
 16 75 16 75 16 138 c 0,37,38
 16 191 16 191 54.5 252.5 c 128,-1,39
 93 314 93 314 125 336 c 0,40,41
 155 356 155 356 182 368 c 128,-1,42
 209 380 209 380 279 392 c 128,-1,43
 349 404 349 404 449 404 c 1,44,-1
 510 588 l 2,45,46
 515 603 515 603 515 610 c 0,47,48
 515 635 515 635 461 635 c 0,11,12
EndSplineSet
EndChar

StartChar: uni018C
Encoding: 396 396 334
Width: 505
GlyphClass: 2
Flags: W
LayerCount: 2
Fore
SplineSet
415 634 m 1,0,-1
 345 634 l 2,1,2
 320 634 320 634 299.5 624.5 c 128,-1,3
 279 615 279 615 267.5 604.5 c 128,-1,4
 256 594 256 594 244 573 c 128,-1,5
 232 552 232 552 228 542.5 c 128,-1,6
 224 533 224 533 216 511 c 1,7,-1
 188 515 l 1,8,-1
 231 669 l 1,9,-1
 543 669 l 1,10,-1
 543 659 l 1,11,-1
 443 294 l 2,12,13
 386 87 386 87 386 71 c 0,14,15
 386 67 386 67 389.5 63 c 128,-1,16
 393 59 393 59 397 59 c 0,17,18
 421 59 421 59 464 131 c 1,19,-1
 486 115 l 1,20,21
 445 49 445 49 409.5 19 c 128,-1,22
 374 -11 374 -11 337 -11 c 0,23,24
 309 -11 309 -11 293 5.5 c 128,-1,25
 277 22 277 22 277 51 c 0,26,27
 277 67 277 67 288 118 c 1,28,29
 245 47 245 47 207 17 c 128,-1,30
 169 -13 169 -13 122 -13 c 0,31,32
 76 -13 76 -13 46 22.5 c 128,-1,33
 16 58 16 58 16 112 c 0,34,35
 16 188 16 188 58 270.5 c 128,-1,36
 100 353 100 353 164.5 407.5 c 128,-1,37
 229 462 229 462 288 462 c 0,38,39
 327 462 327 462 360 429 c 1,40,41
 410 615 410 615 415 634 c 1,0,-1
345 370 m 0,42,43
 345 392 345 392 334 406 c 128,-1,44
 323 420 323 420 305 420 c 0,45,46
 266 420 266 420 225.5 358 c 128,-1,47
 185 296 185 296 162.5 225.5 c 128,-1,48
 140 155 140 155 140 117 c 0,49,50
 140 92 140 92 151.5 75.5 c 128,-1,51
 163 59 163 59 181 59 c 0,52,53
 221 59 221 59 261 127.5 c 128,-1,54
 301 196 301 196 323 268 c 128,-1,55
 345 340 345 340 345 370 c 0,42,43
EndSplineSet
EndChar

